{"glyphs":{"0":{"ha":1171,"x_min":0,"x_max":0,"o":"m 164 32 b 160 14 162 26 161 20 l 160 14 b 151 51 158 25 154 41 l 138 51 b 129 14 135 40 131 25 l 128 14 b 121 51 127 25 123 40 l 105 51 l 120 1 l 135 1 b 144 34 138 12 142 23 l 144 34 b 152 1 146 24 150 11 l 168 1 l 184 51 l 168 51 z m 247 32 b 244 14 246 26 245 20 l 244 14 b 234 51 242 25 237 41 l 222 51 b 212 14 219 40 214 25 l 212 14 b 204 51 210 25 207 40 l 188 51 l 203 1 l 219 1 b 227 34 222 12 226 23 l 227 34 b 236 1 229 24 233 11 l 251 1 l 267 51 l 252 51 z m 330 32 b 327 14 329 26 328 20 l 327 14 b 318 51 325 25 320 41 l 305 51 b 296 14 302 40 298 25 l 295 14 b 288 51 294 25 290 40 l 272 51 l 287 1 l 302 1 b 311 34 305 12 309 23 l 311 34 b 319 1 313 24 317 11 l 335 1 l 351 51 l 335 51 z m 362 19 b 361 0 349 20 349 0 b 371 10 367 0 371 4 b 362 19 371 15 367 19 z m 399 65 l 383 60 l 383 51 l 376 51 l 376 39 l 383 39 b 387 5 383 30 381 11 b 410 2 391 0 405 -1 l 410 14 b 399 23 403 12 398 14 l 399 39 l 410 39 l 410 51 l 399 51 z m 474 32 b 471 14 473 26 472 20 l 471 14 b 461 51 469 25 464 41 l 449 51 b 439 14 446 40 441 25 l 439 14 b 431 51 437 25 434 40 l 415 51 l 430 1 l 446 1 b 454 34 449 12 453 23 l 455 34 b 463 1 456 24 460 11 l 479 1 l 494 51 l 479 51 z m 510 73 b 510 57 499 73 499 57 b 519 65 516 57 519 61 b 510 73 519 69 516 73 z m 518 2 l 518 51 l 502 51 l 502 2 z m 563 52 b 546 44 554 52 548 47 l 546 44 l 545 51 l 531 51 b 532 2 532 42 532 12 l 548 2 b 548 33 548 4 547 32 b 566 28 552 43 567 41 l 566 2 l 582 2 l 582 30 b 563 52 582 46 573 52 z m 612 1 l 612 74 l 595 74 l 595 1 z m 648 52 b 622 26 629 52 622 37 b 669 4 620 2 650 -5 l 667 14 b 637 21 659 11 639 10 l 672 21 b 648 52 674 35 669 52 z m 637 32 b 657 32 638 45 657 45 z m 700 65 l 684 60 l 684 51 l 677 51 l 677 39 l 684 39 b 688 5 685 30 682 11 b 711 2 692 0 706 -1 l 711 14 b 700 23 705 12 699 14 l 700 39 l 711 39 l 711 51 l 700 51 z m 739 65 l 723 60 l 723 51 l 716 51 l 716 39 l 723 39 b 727 5 724 30 721 11 b 750 2 731 0 745 -1 l 750 14 b 739 23 744 12 738 14 l 739 39 l 750 39 l 750 51 l 739 51 z m 783 52 b 757 26 764 52 757 37 b 804 4 755 2 785 -5 l 802 14 b 772 21 794 11 773 10 l 807 21 b 783 52 809 35 804 52 z m 772 32 b 792 32 773 45 792 45 z m 831 41 l 831 41 l 830 51 l 816 51 b 817 2 817 43 817 12 l 833 2 b 833 29 833 3 833 29 b 849 37 834 36 843 39 l 849 52 b 831 41 842 53 835 51 z m 859 19 b 859 0 846 20 846 0 b 868 10 865 0 868 4 b 859 19 868 15 865 19 z m 906 13 b 892 27 898 13 892 17 b 916 38 891 39 907 43 l 918 50 b 919 3 859 66 862 -16 l 917 15 b 906 13 914 13 911 13 z m 953 52 b 952 0 914 53 915 -1 b 953 52 987 -1 991 52 z m 952 12 b 952 41 937 11 936 41 b 952 12 968 41 966 10 z m 1052 52 b 1035 43 1045 52 1039 49 l 1035 43 b 1004 44 1030 57 1008 53 l 1004 44 l 1003 51 l 990 51 b 990 2 990 42 990 12 l 1006 2 l 1006 30 b 1014 39 1006 34 1008 39 b 1022 28 1020 39 1022 35 l 1022 2 l 1038 2 b 1039 34 1038 4 1037 32 b 1055 28 1043 43 1056 40 l 1055 2 l 1070 2 l 1070 30 b 1052 52 1070 46 1062 52 z m 294 111 l 294 117 l 274 117 l 274 111 z m 338 126 b 347 124 342 126 345 125 l 348 130 b 348 93 307 145 307 77 l 347 99 b 325 111 338 94 324 98 b 338 126 325 120 329 126 z m 392 112 b 353 111 393 139 353 139 b 392 112 353 85 392 83 z m 373 96 b 373 127 357 96 356 127 b 373 96 390 126 387 96 z m 426 115 l 426 92 l 433 92 l 433 116 b 442 126 433 121 436 126 b 450 114 448 126 450 122 l 450 92 l 457 92 l 457 115 b 431 124 457 136 438 136 l 431 124 b 408 125 428 135 411 134 l 407 125 l 407 131 l 401 131 b 401 92 401 124 401 99 l 408 92 b 409 119 408 94 408 117 b 426 115 412 130 427 128 z m 476 76 l 476 97 l 476 97 b 506 112 486 84 507 92 b 490 132 506 124 499 132 b 476 124 483 132 479 129 l 476 124 l 475 131 l 469 131 b 469 76 469 123 469 85 z m 476 115 b 488 126 476 121 482 127 b 487 96 504 127 503 95 b 477 105 482 96 478 100 b 476 115 476 107 476 113 z m 523 92 l 523 150 l 516 150 l 516 92 z m 532 102 b 556 97 531 90 550 87 l 556 97 l 557 92 l 563 92 b 563 116 562 97 563 110 b 535 129 564 132 547 136 l 536 124 b 556 117 545 129 557 128 b 532 102 540 117 532 112 z m 556 112 b 546 96 556 105 556 97 b 539 103 542 96 539 98 b 556 112 539 111 548 112 z m 583 141 l 576 139 l 576 131 l 569 131 l 569 126 l 576 126 b 578 94 576 119 573 99 b 593 92 581 90 589 90 l 592 97 b 583 105 587 96 582 97 l 583 126 l 593 126 l 593 131 l 583 131 z m 629 99 b 605 110 620 95 604 95 l 632 110 b 616 132 633 119 631 132 b 598 111 605 132 598 123 b 630 93 597 92 617 87 z m 616 127 b 626 115 624 127 626 120 l 605 115 b 616 127 605 120 608 127 z m 658 99 l 656 94 b 682 103 665 88 683 91 b 672 115 682 109 678 112 b 671 127 662 117 661 126 b 679 124 674 127 677 125 l 681 130 b 657 121 673 135 656 131 b 668 109 657 116 661 112 b 667 96 678 107 678 96 b 658 99 664 96 660 98 z m 723 114 b 707 132 723 121 720 132 b 688 111 695 132 688 123 b 721 93 687 92 708 87 l 720 99 b 695 110 711 95 695 95 l 723 110 b 723 114 723 111 723 112 z m 695 115 b 716 115 696 131 717 131 z m 741 141 l 734 139 l 734 131 l 727 131 l 727 126 l 734 126 b 736 94 734 119 732 99 b 751 92 739 90 747 90 l 750 97 b 741 105 745 96 740 97 l 741 126 l 751 126 l 751 131 l 741 131 z m 793 132 b 792 91 768 133 767 90 b 793 132 817 89 820 132 z m 793 96 b 793 127 778 96 776 127 b 793 96 810 126 807 96 z m 855 92 l 855 115 b 828 125 855 136 834 136 l 828 125 l 827 131 l 821 131 b 821 92 822 124 821 99 l 828 92 b 829 119 829 94 828 117 b 848 115 833 130 849 128 l 848 92 z m 900 111 l 900 117 l 880 117 l 880 111 z m 778 548 b 782 573 781 556 783 565 b 771 585 780 579 776 588 b 758 523 759 570 759 542 b 778 548 767 529 774 537 z m 570 642 b 541 642 562 642 549 641 b 538 506 544 597 539 551 b 545 453 537 489 536 465 b 579 476 557 437 574 467 b 595 529 587 492 591 512 b 601 597 599 552 600 574 b 602 642 601 600 604 642 b 570 642 592 642 581 642 z m 438 548 b 442 573 441 556 444 565 b 432 585 441 579 436 588 b 418 523 420 570 420 542 b 438 548 427 529 434 537 z m 1150 704 b 587 1267 1150 1015 898 1267 b 181 315 93 1269 -159 665 l 85 315 l 85 176 l 1092 176 l 1092 315 l 993 315 b 1150 704 1090 416 1150 553 z m 1031 277 b 1030 206 1081 278 1078 205 b 1031 277 981 206 984 278 z m 653 948 b 708 936 660 989 715 979 b 708 935 708 936 708 936 b 658 915 709 906 677 890 b 653 948 652 925 651 937 z m 640 816 b 648 876 643 845 641 848 b 701 869 656 906 702 900 b 692 773 697 837 693 805 b 696 745 692 764 691 752 b 716 754 702 738 713 749 b 730 789 722 764 726 777 b 743 892 742 822 743 857 b 767 916 744 905 754 916 b 791 892 781 916 790 905 b 794 816 793 867 793 841 b 867 917 804 851 818 923 b 892 836 899 905 893 864 b 888 776 892 816 888 796 b 900 746 888 765 889 750 b 939 763 914 742 930 754 b 972 919 975 805 989 867 b 889 963 963 944 917 993 b 856 944 874 946 867 917 b 860 982 853 953 852 965 b 987 964 889 1029 961 1000 b 908 706 1049 882 1011 735 b 843 869 811 684 835 811 b 840 878 843 871 844 885 b 817 821 828 862 823 840 b 799 753 810 798 805 776 b 772 710 796 736 793 713 b 742 738 756 708 744 722 b 742 756 742 743 742 750 b 675 711 731 726 711 696 b 640 816 635 727 638 779 z m 451 1115 b 604 1054 507 1145 577 1106 b 626 812 641 982 632 891 b 547 708 624 766 608 693 b 509 753 526 714 515 733 b 428 728 499 707 459 686 b 409 806 412 750 411 780 b 407 892 407 834 407 863 b 435 920 408 908 420 919 b 463 892 450 921 463 907 b 462 823 463 868 462 847 b 479 752 464 803 457 752 b 496 783 489 754 494 774 b 509 870 500 801 502 849 b 551 867 518 889 551 886 b 552 784 551 843 552 800 b 593 769 553 745 584 725 b 545 1069 602 859 619 1005 b 442 1041 508 1101 453 1086 b 416 1064 439 1030 413 1037 b 451 1115 418 1091 435 1106 z m 175 953 b 398 1016 217 1016 329 1014 b 522 986 436 1017 494 1017 b 528 971 526 982 529 977 b 488 959 525 955 499 959 b 378 963 451 961 415 965 b 372 821 374 916 372 868 b 387 640 368 759 371 699 b 363 630 390 626 371 628 b 315 804 300 648 316 754 b 321 960 315 856 317 908 b 318 960 320 960 319 960 b 204 935 301 959 195 960 b 248 931 211 925 239 931 b 248 902 268 933 267 903 b 190 908 229 900 207 897 b 175 953 174 917 167 936 z m 164 263 l 143 263 l 143 208 l 127 208 l 127 263 l 106 263 l 106 276 l 164 276 z m 234 208 l 218 208 l 218 236 l 189 236 l 189 208 l 172 208 l 172 276 l 189 276 l 189 250 l 218 250 l 218 276 l 234 276 z m 248 208 l 248 276 l 264 276 l 264 208 z m 297 206 b 276 211 289 206 280 209 l 279 224 b 310 227 285 220 309 215 b 297 236 310 231 306 233 b 277 256 285 239 277 245 b 324 273 276 277 308 281 l 320 260 b 304 264 317 262 311 264 b 307 248 289 263 289 252 b 297 206 337 241 332 206 z m 405 263 l 376 263 l 376 248 l 404 248 l 404 235 l 376 235 l 376 208 l 360 208 l 360 276 l 405 276 z m 450 206 b 451 277 401 206 404 278 b 450 206 501 278 498 205 z m 543 208 b 513 259 534 222 520 244 l 513 259 b 513 208 514 244 513 223 l 498 208 l 498 276 l 518 276 b 546 227 527 262 540 242 l 546 227 b 545 276 545 242 545 261 l 560 276 l 560 208 z m 626 263 l 606 263 l 606 208 l 589 208 l 589 263 l 569 263 l 569 276 l 626 276 z m 673 208 l 657 208 l 657 276 l 673 276 z m 706 206 b 685 211 698 206 689 209 l 688 224 b 719 227 694 220 718 215 b 706 236 719 231 715 233 b 686 256 694 239 686 245 b 732 273 685 277 717 281 l 729 260 b 712 264 726 262 720 264 b 716 248 698 263 698 252 b 706 206 746 241 741 206 z m 823 216 b 769 208 813 206 783 205 l 769 275 b 823 269 784 277 812 278 b 823 216 840 259 838 226 z m 846 208 l 846 276 l 892 276 l 892 263 l 862 263 l 862 249 l 891 249 l 891 236 l 862 236 l 862 221 l 894 221 l 894 208 z m 969 208 b 967 264 968 226 967 246 l 967 264 b 949 209 963 248 955 225 l 936 209 l 928 236 b 922 264 926 245 923 255 l 921 264 b 919 208 921 247 920 225 l 904 208 l 908 276 l 931 276 l 938 254 b 944 229 940 246 942 237 l 944 229 b 959 276 948 244 954 262 l 981 276 l 985 208 l 969 208 z m 969 345 b 807 355 917 380 849 359 b 245 326 620 339 434 310 b 248 363 222 328 224 365 b 807 380 435 336 622 360 b 986 355 835 383 989 417 b 969 345 986 342 979 339 z m 847 631 b 652 640 782 631 713 639 b 649 506 655 596 649 551 b 655 453 648 489 647 465 b 689 476 667 437 685 467 b 754 609 714 518 707 582 b 804 590 773 619 796 610 b 758 502 817 556 787 518 b 756 485 756 501 756 490 b 774 448 757 473 760 453 b 831 532 805 440 829 503 b 823 589 831 551 829 570 b 824 608 822 595 817 603 b 878 590 841 621 870 606 b 886 562 883 581 885 571 b 916 606 892 578 900 597 b 968 595 933 615 955 609 b 930 495 999 565 990 459 b 921 516 925 499 916 512 b 940 535 928 521 936 527 b 939 564 944 544 942 555 b 905 554 928 596 910 577 b 880 431 890 513 883 474 b 869 410 879 424 877 412 b 841 428 858 407 847 421 b 830 466 834 439 830 453 b 761 413 817 440 793 411 b 709 469 731 414 711 441 b 602 477 686 393 609 397 b 576 429 596 461 588 442 b 492 471 540 394 495 427 b 421 413 479 443 455 411 b 375 447 401 414 381 428 b 367 439 373 444 370 441 b 233 450 321 399 256 396 b 232 652 210 513 230 587 b 222 720 233 675 229 698 b 225 732 221 725 220 729 b 279 713 242 745 271 730 b 284 623 292 687 286 651 b 278 488 283 578 278 533 b 292 448 278 476 276 453 b 342 465 309 443 330 452 b 384 579 371 496 366 542 b 464 590 399 612 446 631 b 418 503 478 556 447 518 b 417 485 416 502 416 491 b 434 448 417 473 420 453 b 474 477 452 442 466 464 b 489 549 486 499 488 525 b 491 644 489 556 492 644 b 428 644 470 644 449 644 b 428 663 415 643 416 662 b 490 666 449 664 470 666 b 489 681 490 671 490 676 b 533 687 487 707 526 710 b 537 668 535 681 536 674 b 601 668 557 669 581 668 b 600 681 600 672 600 677 b 643 687 597 707 636 710 b 647 669 645 681 646 675 b 829 672 692 670 806 673 b 975 702 890 671 932 682 b 990 698 983 706 992 710 b 847 631 979 627 893 629 z m 1031 219 b 1031 265 1056 218 1057 265 b 1031 219 1005 265 1005 218 z m 451 265 b 451 219 426 265 426 218 b 451 265 477 218 477 265 z m 793 264 b 785 263 789 264 786 264 l 785 220 b 818 243 802 217 819 225 b 793 264 818 257 808 264 z "},"1":{"ha":1157,"x_min":0,"x_max":0,"o":"m 158 32 b 155 14 157 26 155 20 l 155 14 b 145 51 153 25 148 41 l 132 51 b 123 14 130 40 125 25 l 123 14 b 115 51 121 25 118 40 l 99 51 l 114 1 l 130 1 b 138 34 133 12 137 23 l 138 34 b 147 1 140 24 144 11 l 162 1 l 178 51 l 162 51 z m 241 32 b 238 14 240 26 239 20 l 238 14 b 229 51 236 25 231 41 l 216 51 b 206 14 213 40 208 25 l 206 14 b 199 51 205 25 201 40 l 182 51 l 198 1 l 213 1 b 222 34 216 12 220 23 l 222 34 b 230 1 223 24 227 11 l 246 1 l 262 51 l 246 51 z m 325 32 b 322 14 324 26 322 20 l 321 14 b 312 51 320 25 315 41 l 299 51 b 290 14 297 40 292 25 l 290 14 b 282 51 288 25 285 40 l 266 51 l 281 1 l 297 1 b 305 34 299 12 304 23 l 305 34 b 314 1 307 24 311 11 l 329 1 l 345 51 l 329 51 z m 356 19 b 356 0 343 20 343 0 b 365 10 362 0 365 4 b 356 19 365 15 362 19 z m 393 65 l 377 60 l 377 51 l 371 51 l 371 39 l 377 39 b 381 5 378 30 375 11 b 404 2 385 0 399 -1 l 404 14 b 393 23 398 12 392 14 l 393 39 l 404 39 l 404 51 l 393 51 l 393 65 z m 469 32 b 465 14 467 26 466 20 l 465 14 b 456 51 463 25 459 41 l 443 51 b 434 14 440 40 436 25 l 433 14 b 426 51 432 25 428 40 l 410 51 l 425 1 l 440 1 b 449 34 443 12 447 23 l 449 34 b 457 1 451 24 455 11 l 473 1 l 489 51 l 473 51 z m 505 73 b 505 57 494 73 493 57 b 513 65 510 57 514 61 b 505 73 513 69 510 73 z m 513 2 l 513 51 l 497 51 l 497 2 z m 557 52 b 541 44 548 52 543 47 l 541 44 l 540 51 l 526 51 b 526 2 526 42 526 12 l 542 2 b 543 33 543 4 542 32 b 560 28 547 43 562 41 l 560 2 l 577 2 l 577 30 b 557 52 577 46 568 52 z m 606 1 l 606 74 l 590 74 l 590 1 z m 643 52 b 616 26 624 52 616 37 b 664 4 615 2 645 -5 l 662 14 b 632 21 653 11 633 10 l 666 21 b 643 52 669 35 663 52 z m 631 32 b 652 32 633 45 652 45 z m 694 65 l 678 60 l 678 51 l 672 51 l 672 39 l 678 39 b 683 5 679 30 676 11 b 706 2 687 0 700 -1 l 706 14 b 694 23 699 12 693 14 l 694 39 l 706 39 l 706 51 l 694 51 z m 733 65 l 718 60 l 718 51 l 711 51 l 711 39 l 718 39 b 722 5 718 30 716 11 b 745 2 726 0 740 -1 l 745 14 b 733 23 738 12 733 14 l 733 39 l 745 39 l 745 51 l 733 51 l 733 65 z m 778 52 b 751 26 759 52 751 37 b 799 4 750 2 780 -5 l 797 14 b 766 21 788 11 768 10 l 801 21 b 778 52 804 35 798 52 z m 766 32 b 787 32 768 45 787 45 z m 826 41 l 825 41 l 825 51 l 811 51 b 811 2 812 43 811 12 l 827 2 b 828 29 828 3 827 29 b 844 37 828 36 837 39 l 844 52 b 826 41 837 53 829 51 z m 853 19 b 853 0 841 20 841 0 b 863 10 859 0 863 4 b 853 19 863 15 859 19 z m 901 13 b 886 27 893 13 886 17 b 910 38 885 39 901 43 l 913 50 b 913 3 854 66 856 -16 l 911 15 b 901 13 908 13 905 13 z m 947 52 b 946 0 908 53 909 -1 b 947 52 982 -1 985 52 z m 946 12 b 946 41 932 11 930 41 b 946 12 962 41 960 10 z m 1047 52 b 1029 43 1039 52 1034 49 l 1029 43 b 999 44 1024 57 1003 53 l 998 44 l 998 51 l 984 51 b 985 2 985 42 984 12 l 1000 2 l 1000 30 b 1009 39 1000 34 1002 39 b 1017 28 1014 39 1017 35 l 1017 2 l 1032 2 b 1033 34 1033 4 1032 32 b 1049 28 1037 43 1050 40 l 1049 2 l 1065 2 l 1065 30 b 1047 52 1065 46 1056 52 z m 289 111 l 289 117 l 269 117 l 269 111 z m 333 126 b 341 124 337 126 340 125 l 343 130 b 343 93 302 145 302 77 l 342 99 b 319 111 332 94 318 98 b 333 126 319 120 324 126 z m 386 112 b 348 111 387 139 347 139 b 386 112 347 85 387 83 z m 367 96 b 367 127 352 96 350 127 b 367 96 384 126 382 96 z m 420 115 l 420 92 l 427 92 l 427 116 b 436 126 427 121 431 126 b 445 114 442 126 445 122 l 445 92 l 452 92 l 452 115 b 426 124 452 136 433 136 l 426 124 b 402 125 422 135 406 134 l 402 125 l 401 131 l 395 131 b 396 92 396 124 395 99 l 403 92 b 403 119 403 94 402 117 b 420 115 406 130 421 128 z m 471 76 l 471 97 l 471 97 b 501 112 481 84 502 92 b 484 132 501 124 494 132 b 470 124 478 132 473 129 l 470 124 l 470 131 l 463 131 b 464 76 464 123 463 85 z m 471 115 b 482 126 471 121 476 127 b 482 96 498 127 497 95 b 471 105 477 96 472 100 b 471 115 470 107 471 113 z m 517 92 l 517 150 l 510 150 l 510 92 z m 526 102 b 550 97 526 90 544 87 l 551 97 l 551 92 l 558 92 b 557 116 557 97 557 110 b 529 129 558 132 542 136 l 531 124 b 550 117 539 129 551 128 b 526 102 535 117 526 112 z m 550 112 b 540 96 551 105 550 97 b 533 103 537 96 533 98 b 550 112 533 111 542 112 z m 577 141 l 570 139 l 570 131 l 564 131 l 564 126 l 570 126 b 573 94 571 119 568 99 b 587 92 575 90 584 90 l 587 97 b 577 105 582 96 576 97 l 577 126 l 587 126 l 587 131 l 577 131 l 577 141 z m 623 99 b 599 110 615 95 599 95 l 627 110 b 611 132 628 119 625 132 b 592 111 599 132 592 123 b 625 93 591 92 611 87 z m 610 127 b 620 115 618 127 620 120 l 599 115 b 610 127 600 120 603 127 z m 652 99 l 650 94 b 676 103 659 88 677 91 b 666 115 676 109 673 112 b 665 127 656 117 656 126 b 673 124 669 127 672 125 l 675 130 b 652 121 667 135 651 131 b 662 109 652 116 655 112 b 662 96 672 107 672 96 b 652 99 658 96 654 98 z m 718 114 b 701 132 718 121 714 132 b 683 111 690 132 683 123 b 715 93 682 92 702 87 l 714 99 b 689 110 705 95 689 95 l 717 110 b 718 114 717 111 718 112 z m 690 115 b 711 115 691 131 711 131 z m 735 141 l 728 139 l 728 131 l 722 131 l 722 126 l 728 126 b 731 94 729 119 726 99 b 745 92 733 90 742 90 l 745 97 b 735 105 740 96 735 97 l 735 126 l 745 126 l 745 131 l 735 131 l 735 141 z m 788 132 b 787 91 762 133 761 90 b 788 132 811 89 815 132 z m 787 96 b 787 127 772 96 771 127 b 787 96 804 126 802 96 z m 849 92 l 849 115 b 822 125 849 136 829 136 l 822 125 l 822 131 l 815 131 b 816 92 816 124 815 99 l 823 92 b 823 119 823 94 822 117 b 842 115 827 130 843 128 l 842 92 z m 895 111 l 895 117 l 875 117 l 875 111 z m 772 548 b 776 573 775 556 778 565 b 766 585 775 579 771 588 b 752 523 754 570 754 542 b 772 548 761 529 768 537 z m 565 642 b 535 642 557 642 544 641 b 533 506 539 597 533 551 b 539 454 532 489 531 465 b 573 476 551 437 569 467 b 589 529 582 492 586 512 b 596 597 594 552 595 574 b 596 642 596 600 598 642 b 565 642 586 642 575 642 z m 432 548 b 436 573 435 556 438 565 b 426 585 435 579 431 588 b 412 523 414 570 414 542 b 432 548 421 529 428 537 z m 1144 704 b 582 1267 1144 1015 893 1267 b 176 315 87 1269 -165 665 l 79 315 l 79 176 l 1086 176 l 1086 315 l 988 315 b 1144 704 1085 416 1144 553 z m 1026 277 b 1025 206 1075 278 1073 205 b 1026 277 976 206 979 278 z m 647 948 b 702 936 654 989 709 979 b 702 935 702 936 702 936 b 653 915 703 906 672 890 b 647 948 646 925 646 937 z m 635 816 b 643 876 637 845 635 848 b 696 869 651 906 697 900 b 687 773 692 837 687 805 b 691 745 686 764 685 752 b 710 754 697 738 707 749 b 724 789 717 764 720 777 b 738 892 736 822 737 857 b 762 916 738 905 748 916 b 786 892 775 916 785 905 b 788 816 788 867 788 841 b 861 917 799 852 812 923 b 887 836 894 905 887 864 b 883 776 886 816 883 796 b 895 746 883 765 883 750 b 934 763 908 742 925 754 b 967 919 970 805 983 867 b 883 963 958 944 912 993 b 851 944 868 946 861 917 b 854 982 847 953 846 965 b 981 964 884 1029 955 1000 b 903 706 1043 882 1005 735 b 837 869 806 684 830 811 b 834 878 837 871 839 885 b 811 821 822 862 817 840 b 794 753 804 799 799 776 b 767 710 790 737 787 713 b 737 738 750 708 738 722 b 737 756 736 743 737 750 b 670 711 726 726 705 696 b 635 816 630 727 633 779 z m 445 1115 b 598 1054 501 1145 571 1106 b 621 812 635 982 626 891 b 541 708 619 766 603 693 b 504 753 520 714 509 733 b 422 728 493 707 454 686 b 403 806 407 750 405 780 b 402 892 401 835 402 863 b 430 920 402 908 414 919 b 457 892 444 921 457 907 b 456 823 457 868 457 847 b 473 752 458 803 451 752 b 490 783 483 754 488 774 b 504 870 495 801 496 849 b 545 867 512 889 546 886 b 547 784 545 843 547 800 b 587 769 547 745 578 726 b 539 1069 597 859 614 1005 b 437 1041 502 1102 447 1086 b 410 1064 434 1030 408 1037 b 445 1115 413 1091 430 1106 z m 169 953 b 392 1016 211 1016 323 1014 b 517 986 430 1017 488 1017 b 522 971 521 982 523 977 b 482 959 520 955 494 959 b 372 963 446 961 409 965 b 366 821 369 916 367 868 b 381 640 363 760 365 699 b 357 630 384 626 365 628 b 309 804 294 648 311 754 b 315 960 310 856 312 908 b 312 960 314 960 313 960 b 198 935 295 959 190 960 b 243 931 205 925 233 931 b 243 902 262 933 262 903 b 184 908 224 900 201 897 b 169 953 168 917 162 936 z m 158 263 l 137 263 l 137 208 l 121 208 l 121 263 l 101 263 l 101 276 l 158 276 z m 228 208 l 212 208 l 212 236 l 183 236 l 183 208 l 167 208 l 167 276 l 183 276 l 183 250 l 212 250 l 212 276 l 228 276 z m 259 208 l 242 208 l 242 276 l 259 276 z m 292 206 b 270 211 283 206 275 209 l 274 224 b 304 227 279 220 304 215 b 292 236 304 231 301 233 b 271 256 280 239 271 245 b 318 273 270 277 303 281 l 314 260 b 298 264 311 262 306 264 b 301 248 284 263 283 252 b 292 206 331 241 326 206 z m 400 263 l 370 263 l 370 248 l 398 248 l 398 235 l 370 235 l 370 208 l 354 208 l 354 276 l 400 276 z m 445 206 b 446 277 396 206 398 278 b 445 206 495 278 493 205 z m 555 208 l 537 208 b 508 259 528 222 514 244 l 507 259 b 508 208 508 244 508 223 l 493 208 l 493 276 l 513 276 b 541 227 521 262 535 242 l 541 227 b 540 276 539 242 540 261 l 555 276 z m 621 263 l 600 263 l 600 208 l 584 208 l 584 263 l 563 263 l 563 276 l 621 276 z m 667 208 l 651 208 l 651 276 l 667 276 z m 700 206 b 679 211 692 206 683 209 l 683 224 b 713 227 688 220 713 215 b 701 236 713 231 710 233 b 680 256 689 239 680 245 b 727 273 679 277 711 281 l 723 260 b 707 264 720 262 715 264 b 710 248 692 263 692 252 b 700 206 740 241 735 206 z m 818 216 b 763 208 808 206 777 205 l 763 275 b 817 269 778 277 807 278 b 818 216 834 259 832 226 z m 888 208 l 841 208 l 841 276 l 887 276 l 887 263 l 857 263 l 857 249 l 885 249 l 885 236 l 857 236 l 857 221 l 888 221 z m 963 208 b 962 264 963 226 962 246 l 962 264 b 944 209 957 248 949 225 l 931 209 l 923 236 b 916 264 920 245 918 255 l 916 264 b 913 208 915 247 914 225 l 898 208 l 902 276 l 925 276 l 932 254 b 938 229 934 246 937 237 l 939 229 b 954 276 942 244 949 262 l 976 276 l 979 208 l 963 208 z m 964 345 b 802 355 911 380 843 359 b 240 326 615 339 428 310 b 243 363 217 328 219 365 b 802 380 429 336 616 360 b 981 355 830 383 984 417 b 964 345 980 342 973 339 z m 841 631 b 646 640 776 631 707 639 b 643 506 649 596 643 551 b 649 453 642 489 641 465 b 684 476 661 437 679 467 b 748 609 708 518 701 582 b 798 590 767 619 790 610 b 752 502 812 556 781 518 b 751 485 750 501 751 490 b 768 448 751 473 754 453 b 825 532 799 440 823 503 b 818 589 825 551 823 570 b 818 608 816 595 812 603 b 873 590 835 621 865 606 b 880 562 877 581 879 571 b 911 606 887 578 894 597 b 962 595 927 615 950 609 b 924 495 993 565 984 459 b 915 516 920 499 910 512 b 934 535 922 521 930 527 b 933 564 938 544 937 555 b 899 554 922 596 904 576 b 874 431 884 513 878 474 b 863 410 874 424 871 412 b 836 428 853 407 841 420 b 824 466 828 439 825 453 b 755 413 811 440 788 411 b 703 469 726 414 706 441 b 596 477 681 393 603 397 b 570 429 590 461 582 442 b 487 471 534 394 490 427 b 416 413 474 443 450 411 b 369 447 395 414 376 428 b 362 439 367 444 364 441 b 227 450 316 399 250 396 b 226 652 204 513 225 587 b 216 720 227 675 223 698 b 219 732 215 725 215 729 b 273 713 236 745 266 730 b 279 623 286 687 280 651 b 272 488 277 578 272 533 b 286 448 272 476 270 453 b 336 465 303 444 324 453 b 379 579 365 496 360 542 b 458 590 393 612 440 631 b 412 503 472 556 442 518 b 411 485 410 502 411 491 b 428 448 411 473 414 453 b 468 477 446 442 460 464 b 483 549 480 499 482 525 b 485 644 483 556 486 644 b 422 644 464 644 443 644 b 422 663 410 644 410 662 b 485 667 443 664 464 666 b 483 681 484 671 484 676 b 527 687 481 707 520 710 b 531 668 529 681 530 675 b 595 668 551 669 575 668 b 594 681 595 672 594 677 b 637 687 591 707 631 710 b 642 669 639 681 640 675 b 823 672 686 670 800 673 b 970 703 884 672 927 682 b 985 698 977 706 986 710 b 841 631 974 627 887 629 z m 1025 219 b 1025 265 1051 218 1051 265 b 1025 219 1000 265 1000 218 z m 445 265 b 445 219 420 265 420 218 b 445 265 471 218 471 265 z m 788 264 b 779 263 783 264 781 264 l 779 220 b 813 243 796 217 813 225 b 788 264 813 257 803 264 z "},"2":{"ha":1169,"x_min":0,"x_max":0,"o":"m 159 28 b 156 11 158 22 157 16 l 156 11 b 147 47 154 21 149 37 l 134 47 b 124 11 131 37 126 22 l 124 11 b 117 47 122 22 119 37 l 100 47 l 116 -2 l 131 -2 b 140 30 134 8 138 19 l 140 30 b 148 -2 141 20 146 8 l 164 -2 l 180 47 l 164 47 z m 243 28 b 240 11 241 22 240 16 l 239 11 b 230 47 237 21 233 37 l 217 47 b 208 11 215 37 210 22 l 208 11 b 200 47 206 22 202 37 l 184 47 l 199 -2 l 215 -2 b 223 30 217 8 221 19 l 223 30 b 232 -2 225 20 229 8 l 247 -2 l 263 47 l 247 47 z m 326 28 b 323 11 325 22 324 16 l 323 11 b 314 47 321 21 316 37 l 301 47 b 291 11 298 37 293 22 l 291 11 b 284 47 289 22 286 37 l 267 47 l 282 -2 l 298 -2 b 307 30 301 8 305 19 l 307 30 b 315 -2 308 20 312 8 l 331 -2 l 347 47 l 331 47 z m 357 15 b 357 -4 345 16 345 -4 b 367 6 363 -4 367 0 b 357 15 367 12 363 15 z m 394 61 l 379 57 l 379 47 l 372 47 l 372 35 l 379 35 b 383 1 379 27 377 7 b 406 -2 387 -4 401 -4 l 406 10 b 394 19 399 8 394 10 l 394 35 l 406 35 l 406 47 l 394 47 l 394 61 z m 470 28 b 467 11 469 22 468 16 l 467 11 b 457 47 465 21 460 37 l 445 47 b 435 11 442 37 437 22 l 435 11 b 427 47 433 22 430 37 l 411 47 l 426 -2 l 442 -2 b 450 30 445 8 449 19 l 450 30 b 459 -2 452 20 456 8 l 474 -2 l 490 47 l 475 47 z m 506 69 b 506 53 495 69 495 53 b 515 61 512 53 515 57 b 506 69 515 66 512 69 z m 514 -2 l 514 47 l 498 47 l 498 -2 z m 559 48 b 542 40 549 48 544 43 l 542 40 l 541 47 l 527 47 b 528 -2 528 38 528 8 l 544 -2 b 544 29 544 0 543 28 b 562 24 548 39 563 37 l 562 -2 l 578 -2 l 578 26 b 559 48 578 42 569 48 z m 607 -2 l 607 70 l 591 70 l 591 -2 z m 644 48 b 617 22 625 48 617 33 b 665 0 616 -2 646 -8 l 663 11 b 633 17 655 8 634 6 l 668 17 b 644 48 670 31 665 48 z m 633 28 b 653 28 634 41 653 41 z m 696 61 l 680 57 l 680 47 l 673 47 l 673 35 l 680 35 b 684 1 680 27 678 7 b 707 -2 688 -4 702 -4 l 707 10 b 696 19 701 8 695 10 l 696 35 l 707 35 l 707 47 l 696 47 z m 735 61 l 719 57 l 719 47 l 712 47 l 712 35 l 719 35 b 723 1 719 27 717 7 b 746 -2 727 -4 741 -4 l 746 10 b 735 19 740 8 734 10 l 735 35 l 746 35 l 746 47 l 735 47 z m 779 48 b 752 22 760 48 752 33 b 800 0 751 -2 781 -8 l 798 11 b 768 17 789 8 769 6 l 802 17 b 779 48 805 31 799 48 z m 768 28 b 788 28 769 41 788 41 z m 827 37 l 827 37 l 826 47 l 812 47 b 813 -2 813 39 813 8 l 829 -2 b 829 26 829 -1 829 25 b 845 33 830 32 839 35 l 845 48 b 827 37 838 49 830 47 z m 855 15 b 855 -4 842 16 842 -4 b 864 6 860 -4 864 0 b 855 15 864 12 860 15 z m 902 9 b 887 23 894 9 887 13 b 912 34 886 35 903 39 l 914 46 b 914 -1 855 62 858 -20 l 912 11 b 902 9 910 10 907 9 z m 948 48 b 947 -4 910 49 910 -4 b 948 48 983 -5 987 48 z m 948 8 b 948 37 933 7 932 37 b 948 8 964 37 962 6 z m 1048 48 b 1031 39 1040 48 1035 45 l 1031 39 b 1000 40 1025 53 1004 49 l 1000 40 l 999 47 l 985 47 b 986 -2 986 38 986 8 l 1001 -2 l 1001 26 b 1010 36 1001 30 1004 35 b 1018 24 1015 36 1018 32 l 1018 -2 l 1034 -2 b 1034 30 1034 1 1033 28 b 1050 24 1038 39 1052 37 l 1050 -2 l 1066 -2 l 1066 26 b 1048 48 1066 42 1058 48 z m 290 107 l 290 113 l 270 113 l 270 107 z m 334 123 b 343 121 338 123 341 122 l 344 126 b 344 89 303 141 303 73 l 343 95 b 320 108 334 90 320 94 b 334 123 320 116 325 123 z m 388 108 b 349 107 389 135 348 135 b 388 108 349 81 388 80 z m 368 92 b 369 123 353 92 352 123 b 368 92 385 122 383 92 z m 422 112 l 422 88 l 429 88 l 429 112 b 438 123 429 118 432 122 b 446 110 443 123 446 118 l 446 88 l 453 88 l 453 111 b 427 120 453 132 434 133 l 427 120 b 403 121 424 131 407 130 l 403 121 l 403 127 l 396 127 b 397 88 397 121 397 95 l 404 88 b 404 115 404 90 403 114 b 422 112 408 126 422 124 z m 465 72 l 472 72 l 472 93 l 472 93 b 502 108 482 80 503 88 b 486 128 502 120 495 128 b 472 121 479 128 474 126 l 471 121 l 471 127 l 465 127 b 465 72 465 119 465 81 z m 472 111 b 483 123 472 117 478 123 b 483 93 500 123 499 92 b 472 101 478 93 474 96 b 472 111 472 103 472 109 z m 519 88 l 519 146 l 511 146 l 511 88 z m 528 98 b 552 93 527 86 546 84 l 552 93 l 553 88 l 559 88 b 558 112 558 93 558 106 b 530 125 560 128 543 133 l 532 120 b 551 113 541 125 552 124 b 528 98 536 113 528 108 z m 552 108 b 542 92 552 101 552 93 b 535 99 538 92 535 95 b 552 108 535 107 544 108 z m 578 137 l 571 135 l 571 127 l 565 127 l 565 122 l 571 122 b 574 90 572 115 569 95 b 588 88 577 86 585 86 l 588 94 b 578 101 583 92 578 94 l 578 122 l 589 122 l 589 127 l 578 127 z m 625 95 b 600 106 616 91 600 91 l 628 106 b 612 128 629 115 626 128 b 593 107 600 128 593 119 b 626 90 592 88 613 83 z m 611 123 b 621 111 620 123 621 116 l 600 111 b 611 123 601 117 604 123 z m 654 95 l 652 90 b 678 99 660 84 679 87 b 667 111 678 105 674 108 b 666 123 658 113 657 122 b 674 121 670 123 673 122 l 676 126 b 653 117 668 131 652 127 b 663 106 653 112 656 108 b 663 92 673 103 674 93 b 654 95 659 92 656 94 z m 719 110 b 703 128 719 117 715 128 b 684 107 691 128 684 119 b 717 90 683 88 704 83 l 715 95 b 691 106 707 91 691 91 l 719 106 b 719 110 719 107 719 108 z m 691 112 b 712 112 692 127 712 127 z m 736 137 l 729 135 l 729 127 l 723 127 l 723 122 l 729 122 b 732 90 730 115 727 95 b 746 88 735 86 743 86 l 746 94 b 736 101 741 92 736 94 l 736 122 l 747 122 l 747 127 l 736 127 z m 789 128 b 788 87 764 129 762 87 b 789 128 813 86 816 128 z m 789 92 b 789 123 773 92 772 123 b 789 92 806 122 803 92 z m 851 88 l 851 111 b 824 121 851 132 830 132 l 823 121 l 823 127 l 817 127 b 817 88 817 121 817 95 l 824 88 b 825 115 824 90 824 113 b 843 111 829 127 845 124 l 843 88 z m 896 107 l 896 113 l 876 113 l 876 107 z m 773 544 b 777 570 776 552 779 561 b 767 581 776 575 772 584 b 754 519 755 566 755 538 b 773 544 762 525 769 534 z m 566 638 b 537 638 558 639 545 638 b 534 502 540 593 535 547 b 540 450 533 486 532 461 b 575 472 553 433 570 463 b 591 526 583 488 587 508 b 597 593 595 548 596 571 b 597 638 597 596 600 638 b 566 638 587 638 576 638 z m 434 544 b 438 570 437 552 439 561 b 427 581 436 575 432 584 b 414 519 415 566 415 538 b 434 544 423 525 430 534 z m 1146 701 b 583 1263 1146 1011 894 1263 b 177 311 89 1265 -163 661 l 80 311 l 80 172 l 1087 172 l 1087 311 l 989 311 b 1146 701 1086 412 1146 550 z m 1027 273 b 1026 203 1077 274 1074 201 b 1027 273 977 202 980 274 z m 649 944 b 704 933 655 985 711 975 b 703 932 703 932 703 932 b 654 911 705 902 673 886 b 649 944 648 921 647 933 z m 636 812 b 644 872 639 841 637 844 b 697 865 652 902 698 896 b 688 769 693 833 688 801 b 692 741 688 760 687 749 b 712 750 698 734 709 746 b 726 785 718 761 722 774 b 739 889 738 818 739 854 b 763 913 740 902 750 913 b 787 889 777 913 786 902 b 790 812 789 863 789 838 b 863 913 800 848 814 919 b 888 833 895 902 889 860 b 884 772 888 812 884 792 b 896 743 884 762 885 746 b 935 759 910 738 926 751 b 968 915 971 801 985 863 b 885 959 959 940 913 989 b 852 940 869 943 863 913 b 856 978 849 949 848 961 b 983 960 885 1025 957 997 b 904 702 1045 878 1007 731 b 839 865 807 680 831 808 b 836 875 839 867 840 881 b 813 817 824 858 819 836 b 795 749 806 795 801 772 b 768 707 792 733 789 709 b 738 734 752 704 740 718 b 738 752 738 739 738 746 b 671 707 727 722 707 692 b 636 812 631 723 634 776 z m 446 1111 b 599 1050 502 1142 573 1102 b 622 808 637 978 627 887 b 542 704 620 763 604 689 b 505 749 521 710 511 730 b 423 725 494 703 455 682 b 405 802 408 746 406 776 b 403 888 403 831 403 860 b 431 916 404 904 416 915 b 459 888 446 917 459 903 b 458 819 458 864 458 843 b 475 749 459 800 453 748 b 492 779 484 750 490 770 b 505 866 496 797 498 846 b 547 863 513 885 547 882 b 548 780 547 839 548 796 b 589 766 549 741 580 722 b 541 1065 598 855 615 1001 b 438 1037 504 1098 449 1082 b 412 1060 435 1026 409 1033 b 446 1111 414 1087 431 1102 z m 170 949 b 394 1013 212 1013 325 1011 b 518 983 432 1013 490 1013 b 524 967 522 978 524 973 b 484 956 521 951 495 955 b 374 959 447 958 410 961 b 367 817 370 912 368 864 b 383 636 364 756 367 695 b 358 626 385 622 367 624 b 311 801 295 644 312 750 b 317 957 311 853 313 905 b 313 956 316 957 315 956 b 200 931 297 955 191 956 b 244 928 207 922 234 927 b 244 898 263 929 263 900 b 185 904 225 896 203 894 b 170 949 170 914 163 932 z m 160 259 l 139 259 l 139 204 l 123 204 l 123 259 l 102 259 l 102 272 l 160 272 z m 230 204 l 214 204 l 214 232 l 184 232 l 184 204 l 168 204 l 168 272 l 184 272 l 184 246 l 214 246 l 214 272 l 230 272 z m 260 204 l 244 204 l 244 272 l 260 272 z m 293 203 b 272 207 285 203 276 205 l 275 220 b 306 223 281 217 305 211 b 293 232 306 227 302 229 b 272 253 281 235 272 241 b 319 269 272 273 304 277 l 315 257 b 299 260 313 258 307 260 b 303 244 285 260 285 249 b 293 203 333 237 328 202 z m 401 259 l 372 259 l 372 244 l 399 244 l 399 231 l 372 231 l 372 204 l 356 204 l 356 272 l 401 272 z m 446 203 b 447 273 397 202 400 274 b 446 203 497 274 494 201 z m 556 204 l 538 204 b 509 256 530 219 516 240 l 509 256 b 509 204 509 240 509 220 l 494 204 l 494 272 l 514 272 b 542 223 523 258 536 238 l 542 223 b 541 272 540 238 541 257 l 556 272 z m 622 259 l 601 259 l 601 204 l 585 204 l 585 259 l 565 259 l 565 272 l 622 272 z m 669 204 l 653 204 l 653 272 l 669 272 z m 702 203 b 681 207 693 203 685 205 l 684 220 b 714 223 690 217 714 211 b 702 232 714 227 711 229 b 681 253 690 235 681 241 b 728 269 680 273 713 277 l 724 257 b 708 260 721 258 716 260 b 712 244 694 260 694 249 b 702 203 741 237 737 202 z m 819 213 b 764 204 809 202 778 202 l 764 271 b 819 265 779 274 808 274 b 819 213 836 256 834 222 z m 842 204 l 842 272 l 888 272 l 888 259 l 858 259 l 858 245 l 886 245 l 886 232 l 858 232 l 858 217 l 890 217 l 890 204 z m 965 204 b 963 261 964 222 963 242 l 963 261 b 945 205 959 244 950 221 l 932 205 l 924 232 b 917 261 922 241 919 251 l 917 261 b 915 204 917 243 916 221 l 899 204 l 904 272 l 926 272 l 934 250 b 940 225 936 242 938 233 l 940 225 b 955 272 943 240 950 258 l 977 272 l 981 204 l 965 204 z m 965 342 b 803 351 912 376 845 355 b 241 322 616 336 429 306 b 244 359 218 324 220 362 b 803 376 430 332 617 356 b 982 351 831 379 985 413 b 965 342 981 338 974 335 z m 842 627 b 648 637 778 628 709 635 b 644 502 651 592 645 547 b 651 450 644 486 643 461 b 685 472 663 433 681 463 b 749 605 710 514 703 579 b 800 586 769 615 792 607 b 754 499 813 552 783 514 b 752 481 752 498 752 487 b 769 444 752 469 756 449 b 827 528 800 436 825 499 b 819 585 827 547 824 567 b 820 604 817 592 813 600 b 874 586 837 617 866 602 b 882 558 878 577 881 567 b 912 602 888 574 896 593 b 963 591 929 611 951 605 b 926 492 995 561 986 456 b 917 512 921 495 912 509 b 935 531 924 517 932 523 b 935 560 939 540 938 551 b 900 550 923 592 906 573 b 876 427 886 509 879 470 b 865 406 875 420 873 408 b 837 424 854 403 842 417 b 825 463 829 435 826 449 b 757 409 813 436 789 407 b 705 465 727 410 707 437 b 597 474 682 389 605 393 b 572 425 592 457 584 438 b 488 467 535 390 491 423 b 417 409 475 440 451 407 b 371 443 397 410 377 424 b 363 435 368 440 366 437 b 228 446 317 395 252 392 b 228 648 206 510 226 583 b 218 716 228 671 225 694 b 221 728 217 721 216 725 b 275 710 238 741 267 726 b 280 620 287 684 281 648 b 274 484 278 575 273 530 b 288 444 274 472 271 449 b 338 461 305 440 326 449 b 380 575 367 492 362 539 b 460 586 395 608 442 627 b 414 499 473 552 443 514 b 412 481 412 498 412 487 b 430 444 413 469 416 449 b 469 473 447 439 462 460 b 484 545 482 495 483 521 b 487 640 485 553 488 640 b 424 640 466 640 445 640 b 424 659 411 640 412 658 b 486 663 445 661 465 662 b 485 677 486 668 485 673 b 528 683 483 703 522 706 b 533 664 530 677 532 671 b 597 664 553 665 577 665 b 595 677 596 669 596 673 b 639 683 593 703 632 706 b 643 665 641 677 642 671 b 825 669 688 667 802 669 b 971 699 886 668 928 678 b 986 694 979 702 988 707 b 842 627 975 623 888 625 z m 1027 215 b 1027 261 1052 214 1053 261 b 1027 215 1001 262 1001 214 z m 447 261 b 447 215 421 262 421 214 b 447 261 472 214 473 261 z m 789 260 b 781 260 785 260 782 260 l 781 216 b 814 239 798 213 815 221 b 789 260 814 253 804 260 z "},"3":{"ha":1174,"x_min":0,"x_max":0,"o":"m 161 32 b 158 14 159 26 158 20 l 157 14 b 148 51 155 25 151 41 l 135 51 b 126 14 133 40 128 25 l 126 14 b 118 51 124 25 120 40 l 102 51 l 117 1 l 132 1 b 141 34 135 12 139 23 l 141 34 b 150 1 143 24 147 11 l 165 1 l 181 51 l 165 51 z m 244 32 b 241 14 243 26 242 20 l 241 14 b 232 51 239 25 234 41 l 219 51 b 209 14 216 40 211 25 l 209 14 b 201 51 207 25 204 40 l 185 51 l 200 1 l 216 1 b 224 34 219 12 223 23 l 225 34 b 233 1 226 24 230 11 l 249 1 l 264 51 l 249 51 z m 328 32 b 324 14 326 26 325 20 l 324 14 b 315 51 322 25 318 41 l 302 51 b 293 14 299 40 295 25 l 293 14 b 285 51 291 25 287 40 l 269 51 l 284 1 l 299 1 b 308 34 302 12 306 23 l 308 34 b 317 1 310 24 314 11 l 332 1 l 348 51 l 332 51 z m 359 19 b 359 0 346 20 346 0 b 368 10 364 0 368 4 b 359 19 368 15 365 19 z m 396 65 l 380 60 l 380 51 l 373 51 l 373 39 l 380 39 b 384 5 380 30 378 11 b 407 2 388 0 402 -1 l 407 14 b 396 23 401 12 395 14 l 396 39 l 407 39 l 407 51 l 396 51 l 396 65 z m 471 32 b 468 14 470 26 469 20 l 468 14 b 459 51 466 25 461 41 l 446 51 b 436 14 443 40 438 25 l 436 14 b 429 51 435 25 431 40 l 412 51 l 428 1 l 443 1 b 452 34 446 12 450 23 l 452 34 b 460 1 453 24 457 11 l 476 1 l 492 51 l 476 51 z m 508 73 b 508 57 496 73 496 57 b 516 65 513 57 516 61 b 508 73 516 69 513 73 z m 516 2 l 516 51 l 500 51 l 500 2 z m 560 52 b 544 44 551 52 546 47 l 543 44 l 543 51 l 529 51 b 529 2 529 42 529 12 l 545 2 b 546 33 545 4 544 32 b 563 28 549 43 564 41 l 563 2 l 579 2 l 579 30 b 560 52 579 46 570 52 z m 609 1 l 609 74 l 593 74 l 593 1 z m 646 52 b 619 26 626 52 619 37 b 667 4 617 2 648 -5 l 664 14 b 634 21 656 11 636 10 l 669 21 b 646 52 671 35 666 52 z m 634 32 b 654 32 635 45 655 45 z m 697 65 l 681 60 l 681 51 l 674 51 l 674 39 l 681 39 b 685 5 682 30 679 11 b 708 2 689 0 703 -1 l 708 14 b 697 23 702 12 696 14 l 697 39 l 708 39 l 708 51 l 697 51 l 697 65 z m 736 65 l 720 60 l 720 51 l 714 51 l 714 39 l 720 39 b 725 5 721 30 718 11 b 748 2 729 0 742 -1 l 747 14 b 736 23 741 12 735 14 l 736 39 l 748 39 l 748 51 l 736 51 l 736 65 z m 781 52 b 754 26 761 52 754 37 b 801 4 752 2 782 -5 l 799 14 b 769 21 791 11 771 10 l 804 21 b 781 52 806 35 801 52 z m 769 32 b 789 32 770 45 789 45 z m 828 41 l 828 41 l 828 51 l 814 51 b 814 2 814 43 814 12 l 830 2 b 830 29 830 3 830 29 b 846 37 831 36 840 39 l 846 52 b 828 41 839 53 832 51 z m 856 19 b 856 0 844 20 843 0 b 866 10 862 0 866 4 b 856 19 866 15 862 19 z m 904 13 b 889 27 896 13 889 17 b 913 38 888 39 904 43 l 916 50 b 916 3 857 66 859 -16 l 914 15 b 904 13 911 13 908 13 z m 950 52 b 949 0 911 53 912 -1 b 950 52 984 -1 988 52 z m 949 12 b 949 41 934 11 933 41 b 949 12 965 41 963 10 z m 1049 52 b 1032 43 1042 52 1037 49 l 1032 43 b 1002 44 1027 57 1006 53 l 1001 44 l 1000 51 l 987 51 b 987 2 988 42 987 12 l 1003 2 l 1003 30 b 1012 39 1003 34 1005 39 b 1020 28 1017 39 1020 35 l 1020 2 l 1035 2 b 1036 34 1035 4 1035 32 b 1052 28 1040 43 1053 40 l 1052 2 l 1067 2 l 1067 30 b 1049 52 1067 46 1059 52 z m 292 111 l 292 117 l 271 117 l 271 111 z m 336 126 b 344 124 340 126 342 125 l 346 130 b 346 93 304 145 304 77 l 344 99 b 322 111 335 94 321 98 b 336 126 322 120 327 126 z m 389 112 b 350 111 390 139 350 139 b 389 112 350 85 389 83 z m 370 96 b 370 127 355 96 353 127 b 370 96 387 126 384 96 z m 423 115 l 423 92 l 430 92 l 430 116 b 439 126 430 121 434 126 b 448 114 445 126 448 122 l 448 92 l 455 92 l 455 115 b 429 124 455 136 436 136 l 428 124 b 405 125 425 135 409 134 l 405 125 l 404 131 l 398 131 b 398 92 399 124 398 99 l 405 92 b 406 119 405 94 405 117 b 423 115 409 130 424 128 z m 473 76 l 473 97 l 474 97 b 504 112 484 84 505 92 b 487 132 504 124 497 132 b 473 124 481 132 476 129 l 473 124 l 473 131 l 466 131 b 466 76 467 123 466 85 z m 473 115 b 485 126 474 121 479 127 b 485 96 501 127 500 95 b 474 105 479 96 475 100 b 473 115 473 107 474 113 z m 520 92 l 520 150 l 513 150 l 513 92 z m 529 102 b 553 97 528 90 547 87 l 553 97 l 554 92 l 561 92 b 560 116 560 97 560 110 b 532 129 561 132 544 136 l 533 124 b 553 117 542 129 554 128 b 529 102 538 117 529 112 z m 553 112 b 543 96 553 105 553 97 b 536 103 539 96 536 98 b 553 112 536 111 545 112 z m 580 141 l 573 139 l 573 131 l 567 131 l 567 126 l 573 126 b 576 94 574 119 571 99 b 590 92 578 90 586 90 l 589 97 b 580 105 584 96 579 97 l 580 126 l 590 126 l 590 131 l 580 131 z m 626 99 b 602 110 618 95 601 95 l 629 110 b 613 132 630 119 628 132 b 595 111 602 132 595 123 b 627 93 594 92 614 87 z m 613 127 b 623 115 621 127 623 120 l 602 115 b 613 127 602 120 606 127 z m 655 99 l 653 94 b 679 103 662 88 680 91 b 669 115 679 109 676 112 b 668 127 659 117 658 126 b 676 124 671 127 674 125 l 678 130 b 654 121 670 135 654 131 b 665 109 654 116 658 112 b 664 96 675 107 675 96 b 655 99 661 96 657 98 z m 720 114 b 704 132 720 121 717 132 b 685 111 692 132 685 123 b 718 93 684 92 705 87 l 717 99 b 692 110 708 95 692 95 l 720 110 b 720 114 720 111 720 112 z m 692 115 b 713 115 694 131 714 131 z m 738 141 l 731 139 l 731 131 l 725 131 l 725 126 l 731 126 b 734 94 732 119 729 99 b 748 92 736 90 744 90 l 748 97 b 738 105 743 96 737 97 l 738 126 l 748 126 l 748 131 l 738 131 l 738 141 z m 790 132 b 790 91 765 133 764 90 b 790 132 814 89 817 132 z m 790 96 b 790 127 775 96 773 127 b 790 96 807 126 805 96 z m 852 92 l 852 115 b 825 125 852 136 831 136 l 825 125 l 824 131 l 818 131 b 818 92 819 124 818 99 l 826 92 b 826 119 826 94 825 117 b 845 115 830 130 846 128 l 845 92 z m 898 111 l 898 117 l 878 117 l 878 111 z m 775 548 b 779 573 778 556 781 565 b 769 585 778 579 773 588 b 755 523 757 570 757 542 b 775 548 764 529 771 537 z m 568 642 b 538 642 559 642 547 641 b 535 506 541 597 536 551 b 542 454 535 489 534 465 b 576 476 554 437 572 467 b 592 529 585 492 588 512 b 598 597 597 552 597 574 b 599 642 598 600 601 642 b 568 642 589 642 578 642 z m 435 548 b 439 573 438 556 441 565 b 429 585 438 579 434 588 b 415 523 417 570 417 542 b 435 548 424 529 431 537 z m 1147 704 b 585 1267 1147 1015 895 1267 b 179 315 90 1269 -162 665 l 82 315 l 82 176 l 1089 176 l 1089 315 l 991 315 b 1147 704 1088 416 1147 553 z m 1029 277 b 1027 206 1078 278 1075 205 b 1029 277 978 206 981 278 z m 650 948 b 705 936 657 989 712 979 b 705 935 705 936 705 936 b 655 915 706 906 674 890 b 650 948 649 925 648 937 z m 638 816 b 646 876 640 845 638 848 b 699 869 653 906 700 900 b 689 773 695 837 690 805 b 694 745 689 764 688 752 b 713 754 699 738 710 749 b 727 789 720 764 723 777 b 741 892 739 822 740 857 b 765 916 741 905 751 916 b 789 892 778 916 788 905 b 791 816 790 867 791 841 b 864 917 802 852 815 923 b 890 836 897 905 890 864 b 885 776 889 816 885 796 b 898 746 885 765 886 750 b 936 763 911 742 928 754 b 970 919 973 805 986 867 b 886 963 960 944 915 993 b 854 944 871 946 864 917 b 857 982 850 953 849 965 b 984 964 886 1029 958 1000 b 906 706 1046 882 1008 735 b 840 869 808 684 833 811 b 837 878 840 871 842 885 b 814 821 825 862 820 840 b 797 753 807 798 802 776 b 769 710 793 736 790 713 b 740 738 753 708 741 722 b 739 756 739 743 740 750 b 673 711 728 726 708 696 b 638 816 632 727 636 779 z m 448 1115 b 601 1054 504 1145 574 1106 b 623 812 638 982 629 891 b 544 708 621 766 605 693 b 507 753 523 714 512 733 b 425 728 496 707 456 686 b 406 806 409 750 408 780 b 405 892 404 835 404 863 b 432 920 405 908 417 919 b 460 892 447 921 460 907 b 459 823 460 868 459 847 b 476 752 461 803 454 752 b 493 783 486 754 491 774 b 507 870 498 801 499 849 b 548 867 515 889 548 886 b 550 784 548 843 550 800 b 590 769 550 745 581 725 b 542 1069 600 859 617 1005 b 440 1041 505 1102 450 1086 b 413 1064 437 1030 411 1037 b 448 1115 416 1091 433 1106 z m 172 953 b 395 1016 214 1016 326 1014 b 520 986 433 1017 491 1017 b 525 971 523 982 526 977 b 485 959 523 955 496 959 b 375 963 448 961 412 965 b 369 821 372 916 369 868 b 384 640 365 760 368 699 b 360 630 387 626 368 628 b 312 804 297 648 314 754 b 318 960 312 856 314 908 b 315 960 317 960 316 960 b 201 935 298 959 193 960 b 246 931 208 925 236 931 b 246 902 265 933 264 903 b 187 908 226 900 204 897 b 172 953 171 917 164 936 z m 161 263 l 140 263 l 140 208 l 124 208 l 124 263 l 104 263 l 104 276 l 161 276 z m 231 208 l 215 208 l 215 236 l 186 236 l 186 208 l 170 208 l 170 276 l 186 276 l 186 250 l 215 250 l 215 276 l 231 276 z m 261 208 l 245 208 l 245 276 l 261 276 z m 294 206 b 273 211 286 206 277 209 l 277 224 b 307 227 282 220 307 215 b 295 236 307 231 304 233 b 274 256 283 239 274 245 b 321 273 273 277 305 281 l 317 260 b 301 264 314 262 308 264 b 304 248 286 263 286 252 b 294 206 334 241 329 206 z m 403 263 l 373 263 l 373 248 l 401 248 l 401 235 l 373 235 l 373 208 l 357 208 l 357 276 l 403 276 z m 448 206 b 449 277 399 206 401 278 b 448 206 498 278 496 205 z m 557 208 l 540 208 b 510 259 531 222 517 244 l 510 259 b 511 208 511 244 510 223 l 496 208 l 496 276 l 515 276 b 543 227 524 262 538 242 l 544 227 b 542 276 542 242 542 261 l 557 276 z m 624 263 l 603 263 l 603 208 l 587 208 l 587 263 l 566 263 l 566 276 l 624 276 z m 670 208 l 654 208 l 654 276 l 670 276 z m 703 206 b 682 211 695 206 686 209 l 685 224 b 716 227 691 220 715 215 b 703 236 716 231 712 233 b 683 256 691 239 683 245 b 730 273 682 277 714 281 l 726 260 b 710 264 723 262 717 264 b 713 248 695 263 695 252 b 703 206 743 241 738 206 z m 821 216 b 766 208 811 206 780 205 l 766 275 b 820 269 781 277 809 278 b 821 216 837 259 835 226 z m 891 208 l 843 208 l 843 276 l 889 276 l 889 263 l 859 263 l 859 249 l 888 249 l 888 236 l 859 236 l 859 221 l 891 221 z m 966 208 b 965 264 966 226 965 246 l 964 264 b 946 209 960 248 952 225 l 934 209 l 926 236 b 919 264 923 245 921 255 l 919 264 b 916 208 918 247 917 225 l 901 208 l 905 276 l 928 276 l 935 254 b 941 229 937 246 939 237 l 942 229 b 957 276 945 244 951 262 l 979 276 l 982 208 l 966 208 z m 966 345 b 805 355 914 380 846 359 b 243 326 617 339 431 310 b 246 363 220 328 221 365 b 805 380 432 336 619 360 b 983 355 832 383 986 417 b 966 345 983 342 976 339 z m 844 631 b 649 640 779 631 710 639 b 646 506 652 596 646 551 b 652 453 645 489 644 465 b 687 476 664 437 682 467 b 751 609 711 518 704 582 b 801 590 770 619 793 610 b 755 502 815 556 784 518 b 754 485 753 501 753 490 b 771 448 754 473 757 453 b 828 532 802 440 826 503 b 821 589 828 551 826 570 b 821 608 819 595 815 603 b 876 590 838 621 868 606 b 883 562 880 581 882 571 b 913 606 890 578 897 597 b 965 595 930 615 953 609 b 927 495 996 565 987 459 b 918 516 923 499 913 512 b 937 535 925 521 933 527 b 936 564 941 544 940 555 b 902 554 925 596 907 577 b 877 431 887 513 880 474 b 866 410 876 424 874 412 b 838 428 856 407 844 421 b 827 466 831 439 827 453 b 758 413 814 440 790 411 b 706 469 728 414 708 441 b 599 477 684 393 606 397 b 573 429 593 461 585 442 b 489 471 537 394 492 427 b 418 413 476 444 453 411 b 372 447 398 414 379 428 b 364 439 370 444 367 441 b 230 450 319 399 253 396 b 229 652 207 513 228 587 b 219 720 230 675 226 698 b 222 732 218 725 217 729 b 276 714 239 745 268 730 b 282 624 289 687 283 651 b 275 488 280 578 275 533 b 289 448 275 476 273 453 b 339 465 306 444 327 453 b 382 579 368 496 363 543 b 461 590 396 612 443 631 b 415 503 475 556 445 518 b 414 485 413 502 414 491 b 431 448 414 473 417 453 b 471 477 449 443 463 464 b 486 549 483 499 485 525 b 489 644 486 557 489 644 b 425 644 468 644 446 644 b 425 663 413 644 413 662 b 488 667 446 665 467 666 b 487 681 487 672 487 676 b 530 687 484 707 523 710 b 534 668 532 681 533 675 b 598 668 554 669 578 668 b 597 681 598 672 597 677 b 640 687 594 707 634 710 b 645 669 642 681 644 675 b 826 673 689 670 803 673 b 973 703 887 672 930 682 b 988 698 980 706 989 711 b 844 631 977 627 890 629 z m 1028 219 b 1028 265 1054 218 1054 265 b 1028 219 1003 265 1003 218 z m 448 265 b 448 219 423 265 423 218 b 448 265 474 218 474 265 z m 790 264 b 782 263 786 264 783 264 l 782 220 b 815 243 799 217 816 225 b 790 264 815 257 806 264 z "},"4":{"ha":1181,"x_min":0,"x_max":0,"o":"m 180 32 b 177 14 179 26 178 20 l 177 14 b 168 51 175 25 170 41 l 155 51 b 145 14 152 40 147 25 l 145 14 b 137 51 143 25 140 40 l 121 51 l 136 1 l 152 1 b 160 34 155 12 159 23 l 161 34 b 169 1 162 24 166 11 l 184 1 l 200 51 l 185 51 z m 264 32 b 260 14 262 26 261 20 l 260 14 b 251 51 258 25 254 41 l 238 51 b 229 14 235 40 231 25 l 229 14 b 221 51 227 25 223 40 l 205 51 l 220 1 l 235 1 b 244 34 238 12 242 23 l 244 34 b 253 1 246 24 250 11 l 268 1 l 284 51 l 268 51 z m 347 32 b 344 14 346 26 345 20 l 344 14 b 334 51 342 25 337 41 l 322 51 b 312 14 319 40 314 25 l 312 14 b 304 51 310 25 307 40 l 288 51 l 303 1 l 319 1 b 327 34 322 12 326 23 l 327 34 b 336 1 329 24 333 11 l 351 1 l 367 51 l 352 51 z m 378 19 b 378 0 366 20 366 0 b 388 10 384 0 388 4 b 378 19 388 15 384 19 z m 415 65 l 400 60 l 400 51 l 393 51 l 393 39 l 400 39 b 404 5 400 30 398 11 b 427 2 408 0 422 -1 l 427 14 b 415 23 420 12 414 14 l 415 39 l 427 39 l 427 51 l 415 51 l 415 65 z m 491 32 b 488 14 489 26 488 20 l 487 14 b 478 51 485 25 481 41 l 465 51 b 456 14 463 40 458 25 l 456 14 b 448 51 454 25 450 40 l 432 51 l 447 1 l 463 1 b 471 34 465 12 470 23 l 471 34 b 480 1 473 24 477 11 l 495 1 l 511 51 l 495 51 z m 527 73 b 527 57 516 73 516 57 b 536 65 532 57 536 61 b 527 73 536 69 532 73 z m 535 2 l 535 51 l 519 51 l 519 2 z m 580 52 b 563 44 570 52 565 47 l 563 44 l 562 51 l 548 51 b 549 2 549 42 548 12 l 565 2 b 565 33 565 4 564 32 b 583 28 569 43 584 41 l 583 2 l 599 2 l 599 30 b 580 52 599 46 590 52 z m 628 1 l 628 74 l 612 74 l 612 1 z m 665 52 b 638 26 646 52 638 37 b 686 4 637 2 667 -5 l 684 14 b 654 21 675 11 655 10 l 688 21 b 665 52 691 35 685 52 z m 654 32 b 674 32 655 45 674 45 z m 716 65 l 701 60 l 701 51 l 694 51 l 694 39 l 701 39 b 705 5 701 30 699 11 b 728 2 709 0 723 -1 l 728 14 b 716 23 721 12 716 14 l 716 39 l 728 39 l 728 51 l 716 51 l 716 65 z m 756 65 l 740 60 l 740 51 l 733 51 l 733 39 l 740 39 b 744 5 740 30 738 11 b 767 2 748 0 762 -1 l 767 14 b 756 23 760 12 755 14 l 756 39 l 767 39 l 767 51 l 756 51 l 756 65 z m 800 52 b 773 26 781 52 773 37 b 821 4 772 2 802 -5 l 819 14 b 789 21 810 11 790 10 l 823 21 b 800 52 826 35 820 52 z m 788 32 b 809 32 790 45 809 45 z m 848 41 l 847 41 l 847 51 l 833 51 b 834 2 834 43 833 12 l 850 2 b 850 29 850 3 850 29 b 866 37 850 36 859 39 l 866 52 b 848 41 859 53 851 51 z m 876 19 b 875 0 863 20 863 0 b 885 10 881 0 885 4 b 876 19 885 15 881 19 z m 923 13 b 908 27 915 13 908 17 b 932 38 907 39 924 43 l 935 50 b 935 3 876 66 878 -16 l 933 15 b 923 13 931 13 927 13 z m 969 52 b 968 0 930 53 931 -1 b 969 52 1004 -1 1008 52 z m 969 12 b 969 41 954 11 953 41 b 969 12 984 41 983 10 z m 1069 52 b 1052 43 1061 52 1056 49 l 1051 43 b 1021 44 1046 57 1025 53 l 1021 44 l 1020 51 l 1006 51 b 1007 2 1007 42 1007 12 l 1022 2 l 1022 30 b 1031 39 1022 34 1025 39 b 1039 28 1036 39 1039 35 l 1039 2 l 1054 2 b 1055 34 1055 4 1054 32 b 1071 28 1059 43 1072 40 l 1071 2 l 1087 2 l 1087 30 b 1069 52 1087 46 1078 52 z m 311 111 l 311 117 l 291 117 l 291 111 z m 355 126 b 363 124 359 126 362 125 l 365 130 b 365 93 324 145 324 77 l 364 99 b 341 111 355 94 341 98 b 355 126 341 120 346 126 z m 409 112 b 370 111 409 139 369 139 b 409 112 369 85 409 83 z m 389 96 b 389 127 374 96 373 127 b 389 96 406 126 404 96 z m 442 115 l 442 92 l 449 92 l 449 116 b 459 126 449 121 453 126 b 467 114 464 126 467 122 l 467 92 l 474 92 l 474 115 b 448 124 474 136 455 136 l 448 124 b 424 125 444 135 428 134 l 424 125 l 424 131 l 417 131 b 418 92 418 124 418 99 l 425 92 b 425 119 425 94 424 117 b 442 115 429 130 443 128 z m 486 76 l 493 76 l 493 97 l 493 97 b 523 112 503 84 524 92 b 506 132 523 124 516 132 b 492 124 500 132 495 129 l 492 124 l 492 131 l 486 131 b 486 76 486 123 486 85 z m 493 115 b 504 126 493 121 498 127 b 504 96 520 127 520 95 b 493 105 499 96 495 100 b 493 115 493 107 493 113 z m 539 92 l 539 150 l 532 150 l 532 92 z m 548 102 b 573 97 548 90 567 87 l 573 97 l 573 92 l 580 92 b 579 116 579 97 579 110 b 551 129 581 132 564 136 l 553 124 b 572 117 561 129 573 128 b 548 102 557 117 548 112 z m 572 112 b 562 96 573 105 572 97 b 556 103 559 96 556 98 b 572 112 556 111 565 112 z m 599 141 l 592 139 l 592 131 l 586 131 l 586 126 l 592 126 b 595 94 593 119 590 99 b 609 92 598 90 606 90 l 609 97 b 599 105 604 96 599 97 l 599 126 l 610 126 l 610 131 l 599 131 l 599 141 z m 646 99 b 621 110 637 95 621 95 l 649 110 b 633 132 650 119 647 132 b 614 111 621 132 614 123 b 647 93 613 92 634 87 z m 632 127 b 642 115 640 127 642 120 l 621 115 b 632 127 622 120 625 127 z m 674 99 l 673 94 b 699 103 681 88 699 91 b 688 115 699 109 695 112 b 687 127 679 117 678 126 b 695 124 691 127 694 125 l 697 130 b 674 121 689 135 673 131 b 684 109 674 116 677 112 b 684 96 694 107 694 96 b 674 99 680 96 677 98 z m 740 114 b 723 132 740 121 736 132 b 705 111 712 132 705 123 b 737 93 704 92 724 87 l 736 99 b 712 110 728 95 711 95 l 739 110 b 740 114 740 111 740 112 z m 712 115 b 733 115 713 131 733 131 z m 757 141 l 750 139 l 750 131 l 744 131 l 744 126 l 750 126 b 753 94 751 119 748 99 b 767 92 756 90 764 90 l 767 97 b 757 105 762 96 757 97 l 757 126 l 768 126 l 768 131 l 757 131 l 757 141 z m 810 132 b 809 91 784 133 783 90 b 810 132 833 89 837 132 z m 809 96 b 810 127 794 96 793 127 b 809 96 827 126 824 96 z m 872 92 l 872 115 b 844 125 872 136 851 136 l 844 125 l 844 131 l 838 131 b 838 92 838 124 838 99 l 845 92 b 845 119 845 94 844 117 b 864 115 849 130 866 128 l 864 92 z m 917 111 l 917 117 l 897 117 l 897 111 z m 794 548 b 798 573 797 556 800 565 b 788 585 797 579 793 588 b 775 523 776 570 776 542 b 794 548 783 529 790 537 z m 587 642 b 557 642 579 642 566 641 b 555 506 561 597 556 551 b 561 454 554 489 553 465 b 596 476 573 437 591 467 b 612 529 604 492 608 512 b 618 597 616 552 617 574 b 618 642 618 600 620 642 b 587 642 608 642 597 642 z m 454 548 b 458 573 458 556 460 565 b 448 585 457 579 453 588 b 435 523 436 570 436 542 b 454 548 443 529 450 537 z m 1167 704 b 604 1267 1167 1015 915 1267 b 198 315 110 1269 -142 665 l 101 315 l 101 176 l 1108 176 l 1108 315 l 1010 315 b 1167 704 1107 416 1167 553 z m 1048 277 b 1047 206 1098 278 1095 205 b 1048 277 998 206 1001 278 z m 670 948 b 724 936 676 989 732 979 b 724 935 724 936 724 936 b 675 915 725 906 694 890 b 670 948 669 925 668 937 z m 657 816 b 665 876 660 845 658 848 b 718 869 673 906 719 900 b 709 773 714 837 709 805 b 713 745 709 764 708 752 b 732 754 719 738 729 749 b 746 789 739 764 743 777 b 760 892 758 822 760 857 b 784 916 761 905 770 916 b 808 892 798 916 807 905 b 810 816 810 867 810 841 b 884 917 821 852 835 923 b 909 836 916 905 909 864 b 905 776 909 816 905 796 b 917 746 905 765 905 750 b 956 763 931 742 947 754 b 989 919 992 805 1006 867 b 906 963 980 944 934 993 b 873 944 890 946 884 917 b 877 982 870 953 869 965 b 1004 964 906 1029 977 1000 b 925 706 1065 882 1028 735 b 860 869 828 684 852 811 b 856 878 860 871 861 885 b 834 821 845 862 840 840 b 816 753 827 799 822 776 b 789 710 812 737 810 713 b 759 738 772 708 760 722 b 759 756 759 743 759 750 b 692 711 748 726 728 696 b 657 816 652 727 655 779 z m 467 1115 b 620 1054 523 1145 593 1106 b 643 812 658 982 648 891 b 563 708 641 766 625 693 b 526 753 542 714 532 733 b 444 728 515 707 476 686 b 426 806 429 750 427 780 b 424 892 423 835 424 863 b 452 920 424 908 437 919 b 479 892 467 921 480 907 b 479 823 479 868 479 847 b 495 752 480 803 474 752 b 513 783 505 754 511 774 b 526 870 517 801 519 849 b 568 867 534 889 568 886 b 569 784 567 843 569 800 b 610 769 570 745 601 726 b 562 1069 619 859 636 1005 b 459 1041 525 1102 470 1086 b 433 1064 456 1030 430 1037 b 467 1115 435 1091 452 1106 z m 191 953 b 414 1016 233 1016 346 1014 b 539 986 452 1017 511 1017 b 544 971 543 982 545 977 b 505 959 542 955 516 959 b 394 963 468 961 431 965 b 388 821 391 916 389 868 b 404 640 385 760 388 699 b 379 630 406 626 388 628 b 332 804 316 648 333 754 b 338 960 332 856 334 908 b 334 960 337 960 335 960 b 220 935 318 959 212 960 b 265 931 227 925 255 931 b 265 902 284 933 284 903 b 206 908 246 900 223 897 b 191 953 191 917 184 936 z m 181 263 l 160 263 l 160 208 l 144 208 l 144 263 l 123 263 l 123 276 l 181 276 z m 251 208 l 235 208 l 235 236 l 205 236 l 205 208 l 189 208 l 189 276 l 205 276 l 205 250 l 235 250 l 235 276 l 251 276 z m 281 208 l 265 208 l 265 276 l 281 276 z m 314 206 b 292 211 305 206 297 209 l 296 224 b 326 227 302 220 326 215 b 314 236 326 231 323 233 b 293 256 302 239 293 245 b 340 273 292 277 325 281 l 336 260 b 320 264 333 262 328 264 b 324 248 306 263 306 252 b 314 206 353 241 349 206 z m 422 263 l 392 263 l 392 248 l 420 248 l 420 235 l 392 235 l 392 208 l 376 208 l 376 276 l 422 276 z m 467 206 b 468 277 418 206 421 278 b 467 206 518 278 515 205 z m 577 208 l 559 208 b 530 259 550 222 537 244 l 529 259 b 530 208 530 244 530 223 l 515 208 l 515 276 l 535 276 b 563 227 544 262 557 242 l 563 227 b 562 276 561 242 562 261 l 577 276 z m 643 263 l 622 263 l 622 208 l 606 208 l 606 263 l 586 263 l 586 276 l 643 276 z m 690 208 l 673 208 l 673 276 l 690 276 z m 723 206 b 701 211 714 206 706 209 l 705 224 b 735 227 710 220 735 215 b 723 236 735 231 732 233 b 702 256 711 239 702 245 b 749 273 701 277 734 281 l 745 260 b 729 264 742 262 737 264 b 732 248 715 263 714 252 b 723 206 762 241 758 206 z m 840 216 b 785 208 830 206 799 205 l 785 275 b 840 269 800 277 829 278 b 840 216 857 259 855 226 z m 863 208 l 863 276 l 909 276 l 909 263 l 879 263 l 879 249 l 907 249 l 907 236 l 879 236 l 879 221 l 911 221 l 911 208 z m 986 208 b 984 264 985 226 984 246 l 984 264 b 966 209 979 248 971 225 l 953 209 l 945 236 b 938 264 943 245 940 255 l 938 264 b 936 208 937 247 936 225 l 920 208 l 924 276 l 947 276 l 954 254 b 960 229 957 246 959 237 l 961 229 b 976 276 964 244 971 262 l 998 276 l 1002 208 l 986 208 z m 986 345 b 824 355 933 380 866 359 b 262 326 637 339 450 310 b 265 363 239 328 241 365 b 824 380 451 336 638 360 b 1003 355 852 383 1006 417 b 986 345 1002 342 995 339 z m 863 631 b 669 640 799 631 730 639 b 665 506 671 596 666 551 b 672 453 664 489 663 465 b 706 476 684 437 701 467 b 770 609 731 518 723 582 b 820 590 789 619 812 610 b 774 502 834 556 804 518 b 773 485 773 501 773 490 b 790 448 773 473 776 453 b 848 532 821 440 846 503 b 840 589 848 551 845 570 b 841 608 838 595 834 603 b 895 590 858 621 887 606 b 903 562 899 581 901 571 b 933 606 909 578 916 597 b 984 595 950 615 972 609 b 946 495 1016 565 1007 459 b 938 516 942 499 933 512 b 956 535 945 521 952 527 b 956 564 960 544 959 555 b 921 554 944 596 927 577 b 896 431 907 513 900 474 b 886 410 896 424 893 412 b 858 428 875 407 863 421 b 846 466 850 439 847 453 b 778 413 833 440 810 411 b 725 469 748 414 728 441 b 618 477 703 393 625 397 b 593 429 612 461 605 442 b 509 471 556 394 512 427 b 438 413 496 444 472 411 b 392 447 418 414 398 428 b 384 439 389 444 387 441 b 249 450 338 399 272 396 b 249 652 226 513 247 587 b 239 720 249 675 246 698 b 241 732 237 725 237 729 b 296 714 258 745 288 730 b 301 624 308 687 302 651 b 294 488 299 578 294 533 b 308 448 295 476 292 453 b 359 465 325 444 346 453 b 401 579 387 496 382 543 b 481 590 415 612 462 631 b 435 503 494 556 464 518 b 433 485 433 502 433 491 b 450 448 433 473 437 453 b 490 477 468 443 483 464 b 505 549 503 499 504 525 b 508 644 505 557 508 644 b 445 644 487 644 466 644 b 445 663 432 644 432 662 b 507 667 465 665 486 666 b 506 681 507 672 506 676 b 549 687 503 707 542 710 b 554 668 551 681 552 675 b 617 668 574 669 598 668 b 616 681 617 672 617 677 b 660 687 614 707 653 710 b 664 669 661 681 663 675 b 845 673 709 670 822 673 b 992 703 906 672 949 682 b 1007 698 1000 706 1008 711 b 863 631 996 627 909 629 z m 1048 219 b 1048 265 1073 218 1073 265 b 1048 219 1022 265 1022 218 z m 468 265 b 468 219 442 265 442 218 b 468 265 493 218 493 265 z m 810 264 b 801 263 806 264 803 264 l 801 220 b 835 243 819 217 836 225 b 810 264 835 257 825 264 z "},"5":{"ha":1222,"x_min":0,"x_max":0,"o":"m 208 32 b 205 14 207 26 205 20 l 204 14 b 195 51 203 25 198 41 l 182 51 b 173 14 180 40 175 25 l 173 14 b 165 51 171 25 168 40 l 149 51 l 164 1 l 180 1 b 188 34 183 12 187 23 l 188 34 b 197 1 190 24 194 11 l 212 1 l 228 51 l 212 51 z m 291 32 b 288 14 290 26 289 20 l 288 14 b 279 51 286 25 281 41 l 266 51 b 256 14 263 40 259 25 l 256 14 b 249 51 255 25 251 40 l 232 51 l 248 1 l 263 1 b 272 34 266 12 270 23 l 272 34 b 280 1 274 24 278 11 l 296 1 l 312 51 l 296 51 z m 375 32 b 372 14 374 26 372 20 l 371 14 b 362 51 370 25 365 41 l 349 51 b 340 14 347 40 342 25 l 340 14 b 332 51 338 25 335 40 l 316 51 l 331 1 l 347 1 b 355 34 350 12 354 23 l 355 34 b 364 1 357 24 361 11 l 379 1 l 395 51 l 379 51 z m 406 19 b 406 0 393 20 393 0 b 415 10 412 0 415 4 b 406 19 415 15 412 19 z m 443 65 l 427 60 l 427 51 l 421 51 l 421 39 l 427 39 b 432 5 428 30 425 11 b 455 2 435 0 449 -1 l 454 14 b 443 23 448 12 442 14 l 443 39 l 455 39 l 455 51 l 443 51 l 443 65 z m 519 32 b 515 14 517 26 516 20 l 515 14 b 506 51 513 25 509 41 l 493 51 b 484 14 490 40 486 25 l 483 14 b 476 51 482 25 478 40 l 460 51 l 475 1 l 490 1 b 499 34 493 12 497 23 l 499 34 b 507 1 501 24 505 11 l 523 1 l 539 51 l 523 51 z m 555 73 b 555 57 544 73 543 57 b 564 65 560 57 564 61 b 555 73 563 69 560 73 z m 563 2 l 563 51 l 547 51 l 547 2 z m 607 52 b 591 44 598 52 593 47 l 591 44 l 590 51 l 576 51 b 576 2 576 42 576 12 l 592 2 b 593 33 593 4 592 32 b 610 28 597 43 612 41 l 610 2 l 627 2 l 627 30 b 607 52 627 46 618 52 z m 656 1 l 656 74 l 640 74 l 640 1 z m 693 52 b 666 26 674 52 666 37 b 714 4 665 2 695 -5 l 712 14 b 682 21 703 11 683 10 l 716 21 b 693 52 719 35 713 52 z m 681 32 b 702 32 683 45 702 45 z m 744 65 l 728 60 l 728 51 l 722 51 l 722 39 l 728 39 b 733 5 729 30 726 11 b 756 2 737 0 750 -1 l 756 14 b 744 23 749 12 743 14 l 744 39 l 756 39 l 756 51 l 744 51 l 744 65 z m 783 65 l 768 60 l 768 51 l 761 51 l 761 39 l 768 39 b 772 5 768 30 766 11 b 795 2 776 0 790 -1 l 795 14 b 783 23 788 12 783 14 l 783 39 l 795 39 l 795 51 l 783 51 z m 828 52 b 801 26 809 52 801 37 b 849 4 800 2 830 -5 l 847 14 b 816 21 838 11 818 10 l 851 21 b 828 52 854 35 848 52 z m 816 32 b 837 32 818 45 837 45 z m 876 41 l 875 41 l 875 51 l 861 51 b 861 2 862 43 861 12 l 877 2 b 878 29 877 3 877 29 b 894 37 878 36 887 39 l 894 52 b 876 41 887 53 879 51 z m 903 19 b 903 0 891 20 891 0 b 913 10 909 0 913 4 b 903 19 913 15 909 19 z m 951 13 b 936 27 943 13 936 17 b 960 38 935 39 951 43 l 963 50 b 963 3 904 66 906 -16 l 961 15 b 951 13 958 13 955 13 z m 997 52 b 996 0 958 53 959 -1 b 997 52 1032 -1 1035 52 z m 996 12 b 996 41 982 11 980 41 b 996 12 1012 41 1010 10 z m 1097 52 b 1079 43 1089 52 1084 49 l 1079 43 b 1049 44 1074 57 1053 53 l 1048 44 l 1048 51 l 1034 51 b 1035 2 1035 42 1034 12 l 1050 2 l 1050 30 b 1059 39 1050 34 1052 39 b 1067 28 1064 39 1067 35 l 1067 2 l 1082 2 b 1083 34 1083 4 1082 32 b 1099 28 1087 43 1100 40 l 1099 2 l 1115 2 l 1115 30 b 1097 52 1115 46 1106 52 z m 339 111 l 339 117 l 319 117 l 319 111 z m 383 126 b 391 124 387 126 390 125 l 393 130 b 393 93 352 145 352 77 l 392 99 b 369 111 382 94 368 98 b 383 126 369 120 374 126 z m 436 112 b 398 111 437 139 397 139 b 436 112 397 85 437 83 z m 417 96 b 417 127 402 96 400 127 b 417 96 434 126 432 96 z m 470 115 l 470 92 l 477 92 l 477 116 b 486 126 477 121 481 126 b 495 114 492 126 495 122 l 495 92 l 502 92 l 502 115 b 476 124 502 136 483 136 l 476 124 b 452 125 472 135 456 134 l 452 125 l 452 131 l 445 131 b 446 92 446 124 445 99 l 453 92 b 453 119 453 94 452 117 b 470 115 456 130 471 128 z m 514 76 l 521 76 l 521 97 l 521 97 b 551 112 531 84 552 92 b 534 132 551 124 544 132 b 520 124 528 132 523 129 l 520 124 l 520 131 l 513 131 b 514 76 514 123 514 85 z m 521 115 b 532 126 521 121 526 127 b 532 96 548 127 547 95 b 521 105 527 96 522 100 b 521 115 520 107 521 113 z m 567 92 l 567 150 l 560 150 l 560 92 z m 576 102 b 600 97 576 90 594 87 l 601 97 l 601 92 l 608 92 b 607 116 607 97 607 110 b 579 129 608 132 592 136 l 581 124 b 600 117 589 129 601 128 b 576 102 585 117 576 112 z m 600 112 b 590 96 601 105 600 97 b 583 103 587 96 583 98 b 600 112 583 111 592 112 z m 627 141 l 620 139 l 620 131 l 614 131 l 614 126 l 620 126 b 623 94 621 119 618 99 b 637 92 625 90 634 90 l 637 97 b 627 105 632 96 626 97 l 627 126 l 637 126 l 637 131 l 627 131 z m 673 99 b 649 110 665 95 649 95 l 677 110 b 661 132 678 119 675 132 b 642 111 649 132 642 123 b 675 93 641 92 661 87 z m 660 127 b 670 115 668 127 670 120 l 649 115 b 660 127 650 120 653 127 z m 702 99 l 700 94 b 726 103 709 88 727 91 b 716 115 726 109 723 112 b 715 127 706 117 706 126 b 723 124 719 127 722 125 l 725 130 b 702 121 717 135 701 131 b 712 109 702 116 705 112 b 712 96 722 107 722 96 b 702 99 708 96 704 98 z m 768 114 b 751 132 768 121 764 132 b 733 111 740 132 733 123 b 765 93 732 92 752 87 l 764 99 b 739 110 755 95 739 95 l 767 110 b 768 114 767 111 768 112 z m 740 115 b 761 115 741 131 761 131 z m 785 141 l 778 139 l 778 131 l 772 131 l 772 126 l 778 126 b 781 94 779 119 776 99 b 795 92 783 90 792 90 l 795 97 b 785 105 790 96 784 97 l 785 126 l 795 126 l 795 131 l 785 131 z m 838 132 b 837 91 812 133 811 90 b 838 132 861 89 865 132 z m 837 96 b 837 127 822 96 821 127 b 837 96 854 126 852 96 z m 899 92 l 899 115 b 872 125 899 136 879 136 l 872 125 l 872 131 l 865 131 b 866 92 866 124 865 99 l 873 92 b 873 119 873 94 872 117 b 892 115 877 130 893 128 l 892 92 z m 945 111 l 945 117 l 925 117 l 925 111 z m 822 548 b 826 573 825 556 828 565 b 816 585 825 579 821 588 b 802 523 804 570 804 542 b 822 548 811 529 818 537 z m 615 642 b 585 642 607 642 594 641 b 583 506 589 597 583 551 b 589 454 582 489 581 465 b 623 476 601 437 619 467 b 639 529 632 492 636 512 b 646 597 644 552 645 574 b 646 642 646 600 648 642 b 615 642 636 642 625 642 z m 482 548 b 486 573 485 556 488 565 b 476 585 485 579 481 588 b 462 523 464 570 464 542 b 482 548 471 529 478 537 z m 1194 704 b 632 1267 1194 1015 943 1267 b 226 315 137 1269 -115 665 l 129 315 l 129 176 l 1136 176 l 1136 315 l 1038 315 b 1194 704 1135 416 1194 553 z m 1076 277 b 1075 206 1125 278 1123 205 b 1076 277 1026 206 1028 278 z m 697 948 b 752 936 704 989 759 979 b 752 935 752 936 752 936 b 703 915 753 906 722 890 b 697 948 696 925 696 937 z m 685 816 b 693 876 687 845 685 848 b 746 869 701 906 747 900 b 737 773 742 837 737 805 b 741 745 736 764 735 752 b 760 754 747 738 757 749 b 774 789 767 764 770 777 b 788 892 786 822 787 857 b 812 916 788 905 798 916 b 836 892 825 916 835 905 b 838 816 838 867 838 841 b 912 917 849 852 862 923 b 937 836 944 905 937 864 b 933 776 936 816 933 796 b 945 746 933 765 933 750 b 984 763 958 742 975 754 b 1017 919 1020 805 1033 867 b 933 963 1008 944 962 993 b 901 944 918 946 911 917 b 904 982 897 953 896 965 b 1031 964 934 1029 1005 1000 b 953 706 1093 882 1056 735 b 887 869 856 684 880 811 b 884 878 887 871 889 885 b 861 821 872 862 867 840 b 844 753 854 799 849 776 b 817 710 840 737 838 713 b 787 738 800 708 788 722 b 787 756 786 743 787 750 b 720 711 776 726 756 696 b 685 816 680 727 683 779 z m 495 1115 b 648 1054 551 1145 621 1106 b 671 812 685 982 676 891 b 591 708 669 766 653 693 b 554 753 570 714 559 733 b 472 728 543 707 504 686 b 453 806 457 750 455 780 b 452 892 451 835 451 863 b 480 920 452 908 464 919 b 507 892 494 921 507 907 b 506 823 507 868 507 847 b 523 752 508 803 501 752 b 540 783 533 754 538 774 b 554 870 545 801 546 849 b 595 867 562 889 596 886 b 597 784 595 843 597 800 b 638 769 597 745 628 726 b 590 1069 647 859 664 1005 b 487 1041 552 1102 497 1086 b 460 1064 484 1030 458 1037 b 495 1115 463 1091 480 1106 z m 219 953 b 442 1016 261 1016 373 1014 b 567 986 480 1017 538 1017 b 572 971 571 982 573 977 b 532 959 570 955 544 959 b 422 963 496 961 459 965 b 416 821 419 916 416 868 b 432 640 413 760 415 699 b 407 630 434 626 415 628 b 359 804 344 648 361 754 b 366 960 360 856 362 908 b 362 960 364 960 363 960 b 248 935 346 959 240 960 b 293 931 255 925 283 931 b 293 902 312 933 312 903 b 234 908 274 900 251 897 b 219 953 218 917 212 936 z m 187 263 l 187 208 l 171 208 l 171 263 l 151 263 l 151 276 l 208 276 l 208 263 z m 278 208 l 262 208 l 262 236 l 233 236 l 233 208 l 217 208 l 217 276 l 233 276 l 233 250 l 262 250 l 262 276 l 278 276 z m 309 208 l 292 208 l 292 276 l 309 276 z m 342 206 b 320 211 333 206 325 209 l 324 224 b 354 227 329 220 354 215 b 342 236 354 231 351 233 b 321 256 330 239 321 245 b 368 273 320 277 353 281 l 364 260 b 348 264 361 262 356 264 b 352 248 334 263 333 252 b 342 206 381 241 376 206 z m 450 263 l 420 263 l 420 248 l 448 248 l 448 235 l 420 235 l 420 208 l 404 208 l 404 276 l 450 276 z m 495 206 b 496 277 446 206 448 278 b 495 206 545 278 543 205 z m 605 208 l 587 208 b 558 259 578 222 565 244 l 557 259 b 558 208 558 244 558 223 l 543 208 l 543 276 l 563 276 b 591 227 571 262 585 242 l 591 227 b 590 276 589 242 590 261 l 605 276 z m 671 263 l 650 263 l 650 208 l 634 208 l 634 263 l 613 263 l 613 276 l 671 276 z m 717 208 l 701 208 l 701 276 l 717 276 z m 750 206 b 729 211 742 206 733 209 l 733 224 b 763 227 738 220 763 215 b 751 236 763 231 760 233 b 730 256 739 239 730 245 b 777 273 729 277 761 281 l 773 260 b 757 264 770 262 764 264 b 760 248 742 263 742 252 b 750 206 790 241 785 206 z m 868 216 b 813 208 858 206 827 205 l 813 275 b 867 269 828 277 857 278 b 868 216 884 259 882 226 z m 891 208 l 891 276 l 937 276 l 937 263 l 907 263 l 907 249 l 935 249 l 935 236 l 907 236 l 907 221 l 938 221 l 938 208 z m 1013 208 b 1012 264 1013 226 1012 246 l 1012 264 b 994 209 1007 248 999 225 l 981 209 l 973 236 b 966 264 970 245 968 255 l 966 264 b 963 208 965 247 964 225 l 948 208 l 952 276 l 975 276 l 982 254 b 988 229 984 246 987 237 l 989 229 b 1004 276 992 244 999 262 l 1026 276 l 1029 208 l 1013 208 z m 1014 345 b 852 355 961 380 893 359 b 290 326 665 339 478 310 b 293 363 267 328 269 365 b 852 380 479 336 666 360 b 1031 355 880 383 1034 417 b 1014 345 1030 342 1023 339 z m 891 631 b 696 640 826 631 757 639 b 693 506 699 596 693 551 b 699 453 692 489 691 465 b 734 476 711 437 729 467 b 798 609 758 518 751 582 b 848 590 817 619 840 610 b 802 502 862 556 831 518 b 801 485 800 501 801 490 b 818 448 801 473 804 453 b 875 532 849 440 873 503 b 868 589 875 551 873 570 b 868 608 866 595 862 603 b 923 590 885 621 915 606 b 930 562 927 581 929 571 b 960 606 937 578 944 597 b 1012 595 977 615 1000 609 b 974 495 1043 565 1034 459 b 965 516 970 499 960 512 b 984 535 972 521 980 527 b 983 564 988 544 987 555 b 949 554 972 596 954 577 b 924 431 934 513 928 474 b 913 410 924 424 921 412 b 886 428 903 407 891 421 b 874 466 878 439 875 453 b 805 413 861 440 838 411 b 753 469 776 414 756 441 b 646 477 731 393 653 397 b 620 429 640 461 632 442 b 537 471 584 394 539 427 b 466 413 524 444 500 411 b 419 447 445 414 426 428 b 411 439 417 444 414 441 b 277 450 366 399 300 396 b 276 652 254 513 275 587 b 266 720 277 675 273 698 b 269 732 265 725 265 729 b 323 714 286 745 316 730 b 329 624 336 687 330 651 b 322 488 327 578 322 533 b 336 448 322 476 320 453 b 386 465 353 444 374 453 b 429 579 415 496 410 543 b 508 590 443 612 490 631 b 462 503 522 556 492 518 b 461 485 460 502 461 491 b 478 448 461 473 464 453 b 518 477 496 443 510 464 b 533 549 530 499 532 525 b 536 644 533 557 536 644 b 472 644 515 644 493 644 b 472 663 460 644 460 662 b 535 667 493 665 514 666 b 534 681 534 672 534 676 b 577 687 531 707 570 710 b 581 668 579 681 580 675 b 645 668 601 669 625 668 b 644 681 645 672 644 677 b 687 687 641 707 681 710 b 692 669 689 681 691 675 b 873 673 736 670 850 673 b 1020 703 934 672 977 682 b 1035 698 1027 706 1036 711 b 891 631 1024 627 937 629 z m 1075 219 b 1075 265 1101 218 1101 265 b 1075 219 1050 265 1050 218 z m 495 265 b 495 219 470 265 470 218 b 495 265 521 218 521 265 z m 838 264 b 829 263 833 264 831 264 l 829 220 b 863 243 846 217 863 225 b 838 264 863 257 853 264 z "},"6":{"ha":1182,"x_min":0,"x_max":0,"o":"m 166 32 b 163 14 165 26 164 20 l 163 14 b 154 51 161 25 156 41 l 141 51 b 131 14 138 40 133 25 l 131 14 b 123 51 129 25 126 40 l 107 51 l 122 1 l 138 1 b 146 34 141 12 145 23 l 147 34 b 155 1 148 24 152 11 l 171 1 l 186 51 l 171 51 z m 250 32 b 247 14 248 26 247 20 l 246 14 b 237 51 244 25 240 41 l 224 51 b 215 14 222 40 217 25 l 215 14 b 207 51 213 25 209 40 l 191 51 l 206 1 l 221 1 b 230 34 224 12 228 23 l 230 34 b 239 1 232 24 236 11 l 254 1 l 270 51 l 254 51 z m 333 32 b 330 14 332 26 331 20 l 330 14 b 321 51 328 25 323 41 l 308 51 b 298 14 305 40 300 25 l 298 14 b 290 51 296 25 293 40 l 274 51 l 289 1 l 305 1 b 313 34 308 12 312 23 l 314 34 b 322 1 315 24 319 11 l 338 1 l 353 51 l 338 51 z m 364 19 b 364 0 352 20 352 0 b 374 10 370 0 374 4 b 364 19 374 15 370 19 z m 401 65 l 386 60 l 386 51 l 379 51 l 379 39 l 386 39 b 390 5 386 30 384 11 b 413 2 394 0 408 -1 l 413 14 b 401 23 406 12 401 14 l 401 39 l 413 39 l 413 51 l 401 51 l 401 65 z m 477 32 b 474 14 476 26 474 20 l 473 14 b 464 51 471 25 467 41 l 451 51 b 442 14 449 40 444 25 l 442 14 b 434 51 440 25 436 40 l 418 51 l 433 1 l 449 1 b 457 34 451 12 456 23 l 457 34 b 466 1 459 24 463 11 l 481 1 l 497 51 l 481 51 z m 513 73 b 513 57 502 73 502 57 b 522 65 518 57 522 61 b 513 73 522 69 519 73 z m 521 2 l 521 51 l 505 51 l 505 2 z m 566 52 b 549 44 556 52 551 47 l 549 44 l 548 51 l 534 51 b 534 2 535 42 534 12 l 551 2 b 551 33 551 4 550 32 b 569 28 555 43 570 41 l 569 2 l 585 2 l 585 30 b 566 52 585 46 576 52 z m 614 1 l 614 74 l 598 74 l 598 1 z m 651 52 b 624 26 632 52 624 37 b 672 4 623 2 653 -5 l 670 14 b 640 21 661 11 641 10 l 674 21 b 651 52 677 35 672 52 z m 640 32 b 660 32 641 45 660 45 z m 703 65 l 687 60 l 687 51 l 680 51 l 680 39 l 687 39 b 691 5 687 30 685 11 b 714 2 695 0 709 -1 l 714 14 b 702 23 707 12 702 14 l 702 39 l 714 39 l 714 51 l 702 51 l 702 65 z m 742 65 l 726 60 l 726 51 l 719 51 l 719 39 l 726 39 b 730 5 726 30 724 11 b 753 2 734 0 748 -1 l 753 14 b 742 23 747 12 741 14 l 742 39 l 753 39 l 753 51 l 742 51 l 742 65 z m 786 52 b 759 26 767 52 759 37 b 807 4 758 2 788 -5 l 805 14 b 775 21 796 11 776 10 l 809 21 b 786 52 812 35 806 52 z m 774 32 b 795 32 776 45 795 45 z m 834 41 l 834 41 l 833 51 l 819 51 b 820 2 820 43 819 12 l 836 2 b 836 29 836 3 836 29 b 852 37 836 36 845 39 l 852 52 b 834 41 845 53 837 51 z m 862 19 b 862 0 849 20 849 0 b 871 10 867 0 871 4 b 862 19 871 15 867 19 z m 909 13 b 894 27 901 13 894 17 b 919 38 893 39 910 43 l 921 50 b 921 3 862 66 865 -16 l 919 15 b 909 13 917 13 913 13 z m 955 52 b 954 0 917 53 917 -1 b 955 52 990 -1 994 52 z m 955 12 b 955 41 940 11 939 41 b 955 12 970 41 969 10 z m 1055 52 b 1038 43 1047 52 1042 49 l 1038 43 b 1007 44 1032 57 1011 53 l 1007 44 l 1006 51 l 992 51 b 993 2 993 42 993 12 l 1008 2 l 1008 30 b 1017 39 1008 34 1011 39 b 1025 28 1022 39 1025 35 l 1025 2 l 1041 2 b 1041 34 1041 4 1040 32 b 1057 28 1045 43 1059 40 l 1057 2 l 1073 2 l 1073 30 b 1055 52 1073 46 1065 52 z m 297 111 l 297 117 l 277 117 l 277 111 z m 341 126 b 350 124 345 126 348 125 l 351 130 b 351 93 310 145 310 77 l 350 99 b 327 111 341 94 327 98 b 341 126 327 120 332 126 z m 395 112 b 356 111 396 139 355 139 b 395 112 355 85 395 83 z m 375 96 b 376 127 360 96 359 127 b 375 96 392 126 390 96 z m 429 115 l 429 92 l 436 92 l 436 116 b 445 126 436 121 439 126 b 453 114 450 126 453 122 l 453 92 l 460 92 l 460 115 b 434 124 460 136 441 136 l 434 124 b 410 125 431 135 414 134 l 410 125 l 410 131 l 403 131 b 404 92 404 124 404 99 l 411 92 b 411 119 411 94 410 117 b 429 115 415 130 429 128 z m 479 76 l 479 97 l 479 97 b 509 112 489 84 510 92 b 492 132 509 124 502 132 b 478 124 486 132 481 129 l 478 124 l 478 131 l 471 131 b 472 76 472 123 472 85 z m 479 115 b 490 126 479 121 484 127 b 490 96 506 127 505 95 b 479 105 485 96 481 100 b 479 115 479 107 479 113 z m 526 92 l 526 150 l 518 150 l 518 92 z m 535 102 b 559 97 534 90 553 87 l 559 97 l 560 92 l 566 92 b 565 116 565 97 566 110 b 537 129 567 132 550 136 l 539 124 b 558 117 548 129 559 128 b 535 102 543 117 535 112 z m 558 112 b 549 96 559 105 558 97 b 542 103 545 96 542 98 b 558 112 542 111 551 112 z m 585 141 l 578 139 l 578 131 l 572 131 l 572 126 l 578 126 b 581 94 579 119 576 99 b 595 92 584 90 592 90 l 595 97 b 585 105 590 96 585 97 l 585 126 l 596 126 l 596 131 l 585 131 l 585 141 z m 632 99 b 607 110 623 95 607 95 l 635 110 b 619 132 636 119 633 132 b 600 111 607 132 600 123 b 633 93 599 92 620 87 z m 618 127 b 628 115 626 127 628 120 l 607 115 b 618 127 608 120 611 127 z m 661 99 l 659 94 b 685 103 667 88 686 91 b 674 115 685 109 681 112 b 673 127 665 117 664 126 b 681 124 677 127 680 125 l 683 130 b 660 121 675 135 659 131 b 670 109 660 116 663 112 b 670 96 680 107 681 96 b 661 99 666 96 663 98 z m 726 114 b 710 132 726 121 722 132 b 691 111 698 132 691 123 b 724 93 690 92 710 87 l 722 99 b 698 110 714 95 698 95 l 726 110 b 726 114 726 111 726 112 z m 698 115 b 719 115 699 131 719 131 z m 743 141 l 736 139 l 736 131 l 730 131 l 730 126 l 736 126 b 739 94 737 119 734 99 b 753 92 742 90 750 90 l 753 97 b 743 105 748 96 743 97 l 743 126 l 754 126 l 754 131 l 743 131 z m 796 132 b 795 91 771 133 769 90 b 796 132 819 89 823 132 z m 795 96 b 796 127 780 96 779 127 b 795 96 813 126 810 96 z m 858 92 l 858 115 b 831 125 858 136 837 136 l 830 125 l 830 131 l 824 131 b 824 92 824 124 824 99 l 831 92 b 832 119 831 94 831 117 b 850 115 836 130 852 128 l 850 92 z m 903 111 l 903 117 l 883 117 l 883 111 z m 780 548 b 784 573 783 556 786 565 b 774 585 783 579 779 588 b 761 523 762 570 762 542 b 780 548 769 529 776 537 z m 573 642 b 543 642 565 642 552 641 b 541 506 547 597 542 551 b 547 454 540 489 539 465 b 582 476 560 437 577 467 b 598 529 590 492 594 512 b 604 597 602 552 603 574 b 604 642 604 600 607 642 b 573 642 594 642 583 642 z m 441 548 b 445 573 444 556 446 565 b 434 585 443 579 439 588 b 421 523 422 570 422 542 b 441 548 430 529 437 537 z m 1153 704 b 590 1267 1153 1015 901 1267 b 184 315 96 1269 -156 665 l 87 315 l 87 176 l 1094 176 l 1094 315 l 996 315 b 1153 704 1093 416 1153 553 z m 1034 277 b 1033 206 1084 278 1081 205 b 1034 277 984 206 987 278 z m 656 948 b 710 936 662 989 718 979 b 710 935 710 936 710 936 b 661 915 712 906 680 890 b 656 948 655 925 654 937 z m 643 816 b 651 876 646 845 644 848 b 704 869 659 906 705 900 b 695 773 700 837 695 805 b 699 745 695 764 694 752 b 719 754 705 738 715 749 b 732 789 725 764 729 777 b 746 892 744 822 746 857 b 770 916 747 905 757 916 b 794 892 784 916 793 905 b 797 816 796 867 796 841 b 870 917 807 852 821 923 b 895 836 902 905 895 864 b 891 776 895 816 891 796 b 903 746 891 765 891 750 b 942 763 917 742 933 754 b 975 919 978 805 992 867 b 892 963 966 944 920 993 b 859 944 876 946 870 917 b 863 982 856 953 854 965 b 990 964 892 1029 963 1000 b 911 706 1051 882 1014 735 b 846 869 814 684 838 811 b 842 878 846 871 847 885 b 820 821 831 862 826 840 b 802 753 813 799 808 776 b 775 710 798 737 796 713 b 745 738 758 708 746 722 b 745 756 745 743 745 750 b 678 711 734 726 714 696 b 643 816 638 727 641 779 z m 453 1115 b 606 1054 509 1145 580 1106 b 629 812 644 982 634 891 b 549 708 627 766 611 693 b 512 753 528 714 518 733 b 430 728 501 707 462 686 b 412 806 415 750 413 780 b 410 892 410 835 410 863 b 438 920 410 908 423 919 b 465 892 453 921 466 907 b 465 823 465 868 465 847 b 481 752 466 803 460 752 b 499 783 491 754 497 774 b 512 870 503 801 505 849 b 554 867 520 889 554 886 b 555 784 553 843 555 800 b 596 769 556 745 586 726 b 548 1069 605 859 622 1005 b 445 1041 511 1102 455 1086 b 419 1064 442 1030 416 1037 b 453 1115 421 1091 438 1106 z m 177 953 b 400 1016 219 1016 332 1014 b 525 986 439 1017 497 1017 b 531 971 529 982 531 977 b 491 959 528 955 502 959 b 381 963 454 961 417 965 b 374 821 377 916 375 868 b 390 640 371 760 374 699 b 365 630 392 626 374 628 b 318 804 302 648 319 754 b 324 960 318 856 320 908 b 320 960 323 960 321 960 b 207 935 304 959 198 960 b 251 931 213 925 241 931 b 251 902 270 933 270 903 b 192 908 232 900 210 897 b 177 953 177 917 170 936 z m 167 263 l 146 263 l 146 208 l 130 208 l 130 263 l 109 263 l 109 276 l 167 276 z m 237 208 l 221 208 l 221 236 l 191 236 l 191 208 l 175 208 l 175 276 l 191 276 l 191 250 l 221 250 l 221 276 l 237 276 z m 267 208 l 251 208 l 251 276 l 267 276 z m 300 206 b 279 211 291 206 283 209 l 282 224 b 312 227 288 220 312 215 b 300 236 312 231 309 233 b 279 256 288 239 279 245 b 326 273 279 277 311 281 l 322 260 b 306 264 320 262 314 264 b 310 248 292 263 292 252 b 300 206 340 241 335 206 z m 408 263 l 379 263 l 379 248 l 406 248 l 406 235 l 379 235 l 379 208 l 362 208 l 362 276 l 408 276 z m 453 206 b 454 277 404 206 407 278 b 453 206 504 278 501 205 z m 545 208 b 516 259 537 222 523 244 l 515 259 b 516 208 516 244 516 223 l 501 208 l 501 276 l 521 276 b 549 227 530 262 543 242 l 549 227 b 548 276 547 242 548 261 l 563 276 l 563 208 z m 608 263 l 608 208 l 592 208 l 592 263 l 572 263 l 572 276 l 629 276 l 629 263 z m 676 208 l 660 208 l 660 276 l 676 276 z m 709 206 b 687 211 700 206 692 209 l 691 224 b 721 227 697 220 721 215 b 709 236 721 231 718 233 b 688 256 697 239 688 245 b 735 273 687 277 720 281 l 731 260 b 715 264 728 262 723 264 b 719 248 701 263 701 252 b 709 206 748 241 744 206 z m 826 216 b 771 208 816 206 785 205 l 771 275 b 826 269 786 277 815 278 b 826 216 843 259 841 226 z m 849 208 l 849 276 l 895 276 l 895 263 l 865 263 l 865 249 l 893 249 l 893 236 l 865 236 l 865 221 l 897 221 l 897 208 z m 972 208 b 970 264 971 226 970 246 l 970 264 b 952 209 965 248 957 225 l 939 209 l 931 236 b 924 264 929 245 926 255 l 924 264 b 922 208 923 247 923 225 l 906 208 l 910 276 l 933 276 l 940 254 b 946 229 943 246 945 237 l 947 229 b 962 276 950 244 957 262 l 984 276 l 988 208 l 972 208 z m 972 345 b 810 355 919 380 852 359 b 248 326 623 339 436 310 b 251 363 225 328 227 365 b 810 380 437 336 624 360 b 989 355 838 383 992 417 b 972 345 988 342 981 339 z m 849 631 b 655 640 785 631 716 639 b 651 506 658 596 652 551 b 658 453 651 489 649 465 b 692 476 670 437 687 467 b 756 609 717 518 709 582 b 806 590 776 619 798 610 b 761 502 820 556 790 518 b 759 485 759 501 759 490 b 776 448 759 473 763 453 b 834 532 807 440 832 503 b 826 589 834 551 831 570 b 827 608 824 595 820 603 b 881 590 844 621 873 606 b 889 562 885 581 887 571 b 919 606 895 578 903 597 b 970 595 936 615 958 609 b 933 495 1002 565 993 459 b 924 516 928 499 919 512 b 942 535 931 521 939 527 b 942 564 946 544 945 555 b 907 554 930 596 913 577 b 883 431 893 513 886 474 b 872 410 882 424 880 412 b 844 428 861 407 849 421 b 832 466 836 439 833 453 b 764 413 819 440 796 411 b 711 469 734 414 714 441 b 604 477 689 393 612 397 b 579 429 598 461 591 442 b 495 471 542 394 498 427 b 424 413 482 444 458 411 b 378 447 404 414 384 428 b 370 439 375 444 373 441 b 235 450 324 399 258 396 b 235 652 212 513 233 587 b 225 720 235 675 232 698 b 227 732 223 725 223 729 b 282 714 244 745 274 730 b 287 624 294 687 288 651 b 281 488 285 578 280 533 b 294 448 281 476 278 453 b 345 465 312 444 333 453 b 387 579 373 496 369 543 b 467 590 401 612 448 631 b 421 503 480 556 450 518 b 419 485 419 502 419 491 b 436 448 419 473 423 453 b 476 477 454 443 469 464 b 491 549 489 499 490 525 b 494 644 491 557 495 644 b 431 644 473 644 452 644 b 431 663 418 644 418 662 b 493 667 452 665 472 666 b 492 681 493 672 492 676 b 535 687 489 707 529 710 b 540 668 537 681 539 675 b 603 668 560 669 584 668 b 602 681 603 672 603 677 b 646 687 600 707 639 710 b 650 669 647 681 649 675 b 831 673 695 670 808 673 b 978 703 892 672 935 682 b 993 698 986 706 994 711 b 849 631 982 627 895 629 z m 1034 219 b 1034 265 1059 218 1060 265 b 1034 219 1008 265 1008 218 z m 454 265 b 454 219 428 265 428 218 b 454 265 479 218 480 265 z m 796 264 b 787 263 792 264 789 264 l 787 220 b 821 243 805 217 822 225 b 796 264 821 257 811 264 z "},"7":{"ha":1153,"x_min":0,"x_max":0,"o":"m 152 32 b 149 14 151 26 150 20 l 149 14 b 140 51 147 25 142 41 l 127 51 b 117 14 124 40 119 25 l 117 14 b 110 51 116 25 112 40 l 93 51 l 109 2 l 124 2 b 133 34 127 12 131 23 l 133 34 b 141 2 134 24 138 11 l 157 2 l 173 51 l 157 51 z m 236 32 b 233 14 235 26 233 20 l 232 14 b 223 51 230 25 226 41 l 210 51 b 201 14 208 40 203 25 l 201 14 b 193 51 199 25 195 40 l 177 51 l 192 2 l 208 2 b 216 34 210 12 214 23 l 216 34 b 225 2 218 24 222 11 l 240 2 l 256 51 l 240 51 z m 319 32 b 316 14 318 26 317 20 l 316 14 b 307 51 314 25 309 41 l 294 51 b 284 14 291 40 286 25 l 284 14 b 277 51 283 25 279 40 l 260 51 l 275 2 l 291 2 b 300 34 294 12 298 23 l 300 34 b 308 2 301 24 305 11 l 324 2 l 340 51 l 324 51 z m 350 19 b 350 0 338 20 338 0 b 360 10 356 0 360 4 b 350 19 360 15 356 19 z m 387 65 l 372 61 l 372 51 l 365 51 l 365 39 l 372 39 b 376 5 372 30 370 11 b 399 2 380 0 394 0 l 399 14 b 387 23 392 12 387 14 l 387 39 l 399 39 l 399 51 l 387 51 l 387 65 z m 463 32 b 460 14 462 26 460 20 l 460 14 b 450 51 458 25 453 41 l 438 51 b 428 14 435 40 430 25 l 428 14 b 420 51 426 25 423 40 l 404 51 l 419 2 l 435 2 b 443 34 438 12 442 23 l 443 34 b 452 2 445 24 449 11 l 467 2 l 483 51 l 467 51 z m 499 73 b 499 57 488 73 488 57 b 508 65 505 57 508 61 b 499 73 508 70 505 73 z m 507 2 l 507 51 l 491 51 l 491 2 z m 552 52 b 535 44 542 52 537 47 l 535 44 l 534 51 l 520 51 b 521 2 521 42 521 12 l 537 2 b 537 33 537 4 536 32 b 555 28 541 43 556 41 l 555 2 l 571 2 l 571 30 b 552 52 571 46 562 52 z m 600 2 l 600 74 l 584 74 l 584 2 z m 637 52 b 611 26 618 52 611 37 b 658 4 609 2 639 -5 l 656 15 b 626 21 648 11 627 10 l 661 21 b 637 52 663 35 658 52 z m 626 32 b 646 32 627 45 646 45 z m 689 65 l 673 61 l 673 51 l 666 51 l 666 39 l 673 39 b 677 5 673 30 671 11 b 700 2 681 0 695 0 l 700 14 b 689 23 694 12 688 14 l 689 39 l 700 39 l 700 51 l 689 51 l 689 65 z m 728 65 l 712 61 l 712 51 l 705 51 l 705 39 l 712 39 b 716 5 712 30 710 11 b 739 2 720 0 734 0 l 739 14 b 728 23 733 12 727 14 l 728 39 l 739 39 l 739 51 l 728 51 l 728 65 z m 772 52 b 745 26 753 52 745 37 b 793 4 744 2 774 -5 l 791 15 b 761 21 782 11 762 10 l 795 21 b 772 52 798 35 793 52 z m 761 32 b 781 32 762 45 781 45 z m 820 41 l 820 41 l 819 51 l 805 51 b 806 2 806 43 806 12 l 822 2 b 822 30 822 3 822 29 b 838 37 823 36 832 39 l 838 52 b 820 41 831 53 823 51 z m 848 19 b 848 0 835 20 835 0 b 857 10 854 0 857 4 b 848 19 857 15 854 19 z m 895 13 b 880 27 887 13 880 17 b 905 38 880 39 896 43 l 907 50 b 908 3 848 66 851 -16 l 905 15 b 895 13 903 14 899 13 z m 941 52 b 940 0 903 53 903 -1 b 941 52 976 -1 980 52 z m 941 12 b 941 41 926 11 925 41 b 941 12 957 41 955 10 z m 1041 52 b 1024 43 1033 52 1028 49 l 1024 43 b 993 44 1018 57 997 53 l 993 44 l 992 51 l 978 51 b 979 2 979 42 979 12 l 995 2 l 995 30 b 1003 40 995 34 997 39 b 1011 28 1008 40 1011 36 l 1011 2 l 1027 2 b 1027 34 1027 4 1026 32 b 1043 28 1031 43 1045 40 l 1043 2 l 1059 2 l 1059 30 b 1041 52 1059 46 1051 52 z m 283 111 l 283 117 l 263 117 l 263 111 z m 327 126 b 336 125 331 126 334 126 l 337 130 b 337 93 296 145 296 77 l 336 99 b 313 111 327 94 313 98 b 327 126 313 120 318 126 z m 381 112 b 342 111 382 139 341 139 b 381 112 342 85 381 83 z m 361 96 b 362 127 346 96 345 127 b 361 96 379 126 376 96 z m 415 116 l 415 92 l 422 92 l 422 116 b 431 126 422 121 425 126 b 439 114 437 126 439 122 l 439 92 l 446 92 l 446 115 b 420 124 446 136 427 137 l 420 124 b 396 125 417 135 400 134 l 396 125 l 396 131 l 390 131 b 390 92 390 124 390 99 l 397 92 b 398 119 397 94 396 117 b 415 116 401 130 416 128 z m 458 76 l 465 76 l 465 97 l 465 97 b 495 112 475 84 496 92 b 479 132 495 124 488 132 b 465 125 472 132 467 129 l 464 125 l 464 131 l 458 131 b 458 76 458 123 458 85 z m 465 115 b 476 127 465 121 471 127 b 476 97 493 127 492 95 b 465 105 471 97 467 100 b 465 115 465 107 465 113 z m 512 92 l 512 150 l 504 150 l 504 92 z m 521 102 b 545 97 520 90 539 87 l 545 97 l 546 92 l 552 92 b 551 116 551 97 552 110 b 523 129 553 132 536 136 l 525 124 b 544 117 534 129 546 128 b 521 102 529 117 521 112 z m 545 112 b 535 96 545 105 545 97 b 528 103 531 96 528 98 b 545 112 528 111 537 112 z m 571 141 l 564 139 l 564 131 l 558 131 l 558 126 l 564 126 b 567 94 565 119 562 99 b 581 92 570 90 578 90 l 581 97 b 572 105 576 96 571 97 l 572 126 l 582 126 l 582 131 l 572 131 l 572 141 z m 618 99 b 593 110 609 95 593 95 l 621 110 b 605 132 622 119 619 132 b 586 111 594 132 586 123 b 619 94 585 92 606 87 z m 604 127 b 614 115 613 127 615 120 l 593 115 b 604 127 594 120 597 127 z m 647 99 l 645 94 b 671 103 653 88 672 91 b 660 115 671 109 667 112 b 659 127 651 117 650 126 b 667 125 663 127 666 126 l 669 130 b 646 121 661 135 645 131 b 656 109 646 116 649 112 b 656 96 666 107 667 97 b 647 99 652 96 649 98 z m 712 114 b 696 132 712 121 708 132 b 677 111 684 132 677 123 b 710 93 676 92 696 87 l 708 99 b 684 110 700 95 684 95 l 712 110 b 712 114 712 111 712 112 z m 684 115 b 705 115 685 131 706 131 z m 730 141 l 722 139 l 722 131 l 716 131 l 716 126 l 722 126 b 725 94 723 119 720 99 b 739 92 728 90 736 90 l 739 97 b 730 105 734 96 729 97 l 730 126 l 740 126 l 740 131 l 730 131 l 730 141 z m 782 132 b 781 91 757 133 755 91 b 782 132 806 90 809 132 z m 782 96 b 782 127 766 96 765 127 b 782 96 799 126 796 96 z m 844 92 l 844 115 b 817 125 844 136 823 136 l 816 125 l 816 131 l 810 131 b 810 92 810 124 810 99 l 817 92 b 818 119 817 94 817 117 b 836 115 822 131 838 128 l 836 92 z m 889 111 l 889 117 l 869 117 l 869 111 z m 766 548 b 770 574 769 556 772 565 b 760 585 769 579 765 588 b 747 523 748 570 748 542 b 766 548 755 529 762 537 z m 559 642 b 530 642 551 643 538 641 b 527 506 533 597 528 551 b 533 454 526 490 525 465 b 568 476 546 437 563 467 b 584 530 576 492 580 512 b 590 597 588 552 589 574 b 590 642 590 600 593 642 b 559 642 580 642 569 642 z m 427 548 b 431 574 430 556 432 565 b 420 585 429 579 425 588 b 407 523 408 570 408 542 b 427 548 416 529 423 537 z m 1139 705 b 576 1267 1139 1015 887 1267 b 170 315 82 1269 -170 665 l 73 315 l 73 176 l 1080 176 l 1080 315 l 982 315 b 1139 705 1079 416 1139 553 z m 1020 277 b 1019 206 1070 278 1067 205 b 1020 277 970 206 973 278 z m 642 948 b 697 936 648 989 704 979 b 696 936 697 936 697 936 b 647 915 698 906 666 890 b 642 948 641 925 640 937 z m 629 816 b 637 876 632 845 630 848 b 690 869 645 906 691 900 b 681 773 686 837 682 805 b 685 745 681 764 680 752 b 705 754 691 738 702 750 b 719 789 711 764 715 777 b 732 892 731 822 732 857 b 756 916 733 905 743 916 b 780 892 770 916 779 905 b 783 816 782 867 782 841 b 856 917 793 852 807 923 b 881 836 888 906 882 864 b 877 776 881 816 877 796 b 889 747 877 766 877 750 b 928 763 903 742 919 754 b 961 919 964 805 978 867 b 878 963 952 944 906 993 b 845 944 862 947 856 917 b 849 982 842 953 841 965 b 976 964 878 1029 950 1000 b 897 706 1037 882 1000 735 b 832 869 800 684 824 811 b 828 878 832 871 833 885 b 806 821 817 862 812 840 b 788 753 799 799 794 776 b 761 710 785 737 782 713 b 731 738 744 708 732 722 b 731 756 731 743 731 750 b 664 711 720 726 700 696 b 629 816 624 727 627 780 z m 439 1115 b 592 1054 495 1146 566 1106 b 615 812 630 982 620 891 b 535 708 613 767 597 693 b 498 753 514 714 504 733 b 416 728 487 707 448 686 b 398 806 401 750 399 780 b 396 892 396 835 396 863 b 424 920 396 908 409 919 b 452 892 439 921 452 907 b 451 823 451 868 451 847 b 468 752 452 804 446 752 b 485 783 477 754 483 774 b 498 870 489 801 491 849 b 540 867 506 889 540 886 b 541 784 539 843 541 800 b 582 769 542 745 573 726 b 534 1069 591 859 608 1005 b 431 1041 497 1102 442 1086 b 405 1064 428 1030 402 1037 b 439 1115 407 1091 424 1106 z m 163 953 b 387 1016 205 1017 318 1014 b 511 987 425 1017 483 1017 b 517 971 515 982 518 977 b 477 960 514 955 488 959 b 367 963 440 961 403 965 b 360 821 363 916 361 868 b 376 640 357 760 360 699 b 351 630 379 626 360 628 b 304 804 289 648 305 754 b 310 961 304 856 306 908 b 306 960 309 960 308 960 b 193 935 290 959 184 960 b 237 931 200 925 227 931 b 237 902 256 933 256 903 b 178 908 218 900 196 897 b 163 953 163 917 156 936 z m 132 263 l 132 208 l 116 208 l 116 263 l 95 263 l 95 276 l 153 276 l 153 263 z m 223 208 l 207 208 l 207 236 l 177 236 l 177 208 l 161 208 l 161 276 l 177 276 l 177 250 l 207 250 l 207 276 l 223 276 z m 253 208 l 237 208 l 237 276 l 253 276 z m 286 206 b 265 211 278 206 269 209 l 268 224 b 299 227 274 220 298 215 b 286 236 299 231 295 233 b 266 256 274 239 266 245 b 313 273 265 277 297 281 l 309 261 b 293 264 306 262 300 264 b 296 248 278 264 278 252 b 286 206 326 241 321 206 z m 394 263 l 365 263 l 365 248 l 392 248 l 392 235 l 365 235 l 365 208 l 349 208 l 349 276 l 394 276 z m 439 206 b 440 277 390 206 393 278 b 439 206 490 278 487 205 z m 531 208 b 502 259 523 223 509 244 l 502 259 b 502 208 502 244 502 224 l 487 208 l 487 276 l 507 276 b 535 227 516 262 529 242 l 535 227 b 534 276 533 242 534 261 l 549 276 l 549 208 z m 615 263 l 594 263 l 594 208 l 578 208 l 578 263 l 558 263 l 558 276 l 615 276 z m 662 208 l 646 208 l 646 276 l 662 276 z m 695 206 b 674 211 686 206 678 209 l 677 224 b 708 227 683 220 707 215 b 695 236 708 231 704 233 b 674 256 683 239 674 245 b 721 273 674 277 706 281 l 718 261 b 701 264 715 262 709 264 b 705 248 687 264 687 252 b 695 206 734 241 730 206 z m 812 216 b 757 208 802 206 771 206 l 757 275 b 812 269 773 277 801 278 b 812 216 829 260 827 226 z m 883 208 l 835 208 l 835 276 l 881 276 l 881 263 l 851 263 l 851 249 l 879 249 l 879 236 l 851 236 l 851 221 l 883 221 z m 958 208 b 956 265 957 226 956 246 l 956 265 b 938 209 952 248 943 225 l 925 209 l 917 236 b 910 265 915 245 912 255 l 910 265 b 908 208 910 247 909 225 l 892 208 l 897 276 l 919 276 l 927 254 b 933 229 929 246 931 237 l 933 229 b 948 276 937 244 943 262 l 970 276 l 974 208 l 958 208 z m 958 345 b 796 355 905 380 838 359 b 234 326 609 340 422 310 b 237 363 211 328 213 365 b 796 380 423 336 610 360 b 975 355 824 383 978 417 b 958 345 974 342 968 339 z m 835 631 b 641 641 771 631 702 639 b 637 506 644 596 638 551 b 644 454 637 490 636 465 b 678 476 656 437 674 467 b 742 609 703 518 696 582 b 793 590 762 619 785 611 b 747 503 806 556 776 518 b 745 485 745 502 745 491 b 762 448 745 473 749 453 b 820 532 793 440 818 503 b 812 589 820 551 817 570 b 813 608 810 595 806 604 b 867 590 830 621 859 606 b 875 562 871 581 874 571 b 905 606 881 578 889 597 b 956 595 922 615 944 609 b 919 496 988 565 979 459 b 910 516 914 499 905 512 b 928 535 917 521 925 527 b 928 564 932 544 931 555 b 893 554 916 596 899 577 b 869 431 879 513 872 474 b 858 410 868 424 866 412 b 830 428 847 407 835 421 b 818 466 822 439 819 453 b 750 413 805 440 782 411 b 697 469 720 414 700 441 b 590 477 675 393 597 397 b 565 429 584 461 577 442 b 481 471 528 394 484 427 b 410 413 468 444 444 411 b 364 447 390 414 370 428 b 356 439 361 444 359 441 b 221 450 310 399 244 396 b 221 652 198 514 219 587 b 211 720 221 675 218 698 b 213 732 209 725 209 729 b 268 714 230 745 260 730 b 273 624 280 688 274 651 b 266 488 271 579 266 534 b 280 448 267 476 264 453 b 331 465 297 444 318 453 b 373 579 359 496 354 543 b 453 590 387 612 434 631 b 407 503 466 556 436 518 b 405 485 405 502 405 491 b 422 448 405 473 409 453 b 462 477 440 443 455 464 b 477 549 474 499 476 525 b 480 644 477 557 480 644 b 417 644 459 644 438 644 b 417 663 404 644 404 662 b 479 667 437 665 458 666 b 478 681 479 672 478 676 b 521 687 475 707 515 710 b 526 668 523 681 525 675 b 589 668 546 669 570 669 b 588 681 589 673 589 677 b 632 687 586 707 625 710 b 636 669 633 681 635 675 b 817 673 681 671 794 673 b 964 703 878 672 921 682 b 979 698 972 706 980 711 b 835 631 968 627 881 629 z m 1020 219 b 1020 265 1045 218 1046 265 b 1020 219 994 266 994 218 z m 440 265 b 440 219 414 266 414 218 b 440 265 465 218 466 265 z m 782 264 b 774 264 778 264 775 264 l 774 220 b 807 243 791 217 808 225 b 782 264 807 257 797 264 z "},"8":{"ha":1176,"x_min":0,"x_max":0,"o":"m 163 32 b 160 14 162 26 161 20 l 160 14 b 151 51 158 25 153 41 l 138 51 b 129 14 135 40 131 25 l 128 14 b 121 51 127 25 123 40 l 104 51 l 120 1 l 135 1 b 144 34 138 12 142 23 l 144 34 b 152 1 146 24 150 11 l 168 1 l 184 51 l 168 51 z m 247 32 b 244 14 246 26 244 20 l 244 14 b 234 51 242 25 237 41 l 221 51 b 212 14 219 40 214 25 l 212 14 b 204 51 210 25 207 40 l 188 51 l 203 1 l 219 1 b 227 34 222 12 226 23 l 227 34 b 236 1 229 24 233 11 l 251 1 l 267 51 l 252 51 z m 330 32 b 327 14 329 26 328 20 l 327 14 b 318 51 325 25 320 41 l 305 51 b 296 14 302 40 298 25 l 295 14 b 288 51 294 25 290 40 l 271 51 l 287 1 l 302 1 b 311 34 305 12 309 23 l 311 34 b 319 1 313 24 317 11 l 335 1 l 351 51 l 335 51 z m 361 19 b 361 0 349 20 349 0 b 371 10 367 0 371 4 b 361 19 371 15 367 19 z m 399 65 l 383 60 l 383 51 l 376 51 l 376 39 l 383 39 b 387 5 383 30 381 11 b 410 2 391 0 405 -1 l 410 14 b 399 23 403 12 398 14 l 399 39 l 410 39 l 410 51 l 399 51 l 399 65 z m 474 32 b 471 14 473 26 472 20 l 471 14 b 462 51 469 25 464 41 l 449 51 b 439 14 446 40 441 25 l 439 14 b 431 51 437 25 434 40 l 415 51 l 430 1 l 446 1 b 454 34 449 12 453 23 l 455 34 b 463 1 456 24 460 11 l 479 1 l 494 51 l 479 51 z m 510 73 b 510 57 499 73 499 57 b 519 65 516 57 519 61 b 510 73 519 69 516 73 z m 518 2 l 518 51 l 502 51 l 502 2 z m 563 52 b 546 44 554 52 548 47 l 546 44 l 545 51 l 531 51 b 532 2 532 42 532 12 l 548 2 b 548 33 548 4 547 32 b 566 28 552 43 567 41 l 566 2 l 582 2 l 582 30 b 563 52 582 46 573 52 z m 612 1 l 612 74 l 595 74 l 595 1 z m 648 52 b 622 26 629 52 622 37 b 669 4 620 2 650 -5 l 667 14 b 637 21 659 11 639 10 l 672 21 b 648 52 674 35 669 52 z m 637 32 b 657 32 638 45 657 45 z m 700 65 l 684 60 l 684 51 l 677 51 l 677 39 l 684 39 b 688 5 685 30 682 11 b 711 2 692 0 706 -1 l 711 14 b 700 23 705 12 699 14 l 700 39 l 711 39 l 711 51 l 700 51 z m 739 65 l 723 60 l 723 51 l 716 51 l 716 39 l 723 39 b 727 5 724 30 721 11 b 750 2 731 0 745 -1 l 750 14 b 739 23 744 12 738 14 l 739 39 l 750 39 l 750 51 l 739 51 l 739 65 z m 783 52 b 757 26 764 52 757 37 b 804 4 755 2 785 -5 l 802 14 b 772 21 794 11 773 10 l 807 21 b 783 52 809 35 804 52 z m 772 32 b 792 32 773 45 792 45 z m 831 41 l 831 41 l 830 51 l 816 51 b 817 2 817 43 817 12 l 833 2 b 833 29 833 3 833 29 b 849 37 834 36 843 39 l 849 52 b 831 41 842 53 835 51 z m 859 19 b 859 0 846 20 846 0 b 868 10 865 0 868 4 b 859 19 868 15 865 19 z m 906 13 b 892 27 898 13 892 17 b 916 38 891 39 907 43 l 918 50 b 919 3 859 66 862 -16 l 916 15 b 906 13 914 13 911 13 z m 952 52 b 951 0 914 53 915 -1 b 952 52 987 -1 991 52 z m 952 12 b 952 41 937 11 936 41 b 952 12 968 41 966 10 z m 1052 52 b 1035 43 1045 52 1039 49 l 1035 43 b 1004 44 1030 57 1008 53 l 1004 44 l 1003 51 l 990 51 b 990 2 990 42 990 12 l 1006 2 l 1006 30 b 1014 39 1006 34 1008 39 b 1022 28 1019 39 1022 35 l 1022 2 l 1038 2 b 1038 34 1038 4 1037 32 b 1054 28 1042 43 1056 40 l 1054 2 l 1070 2 l 1070 30 b 1052 52 1070 46 1062 52 z m 294 111 l 294 117 l 274 117 l 274 111 z m 338 126 b 347 124 342 126 345 125 l 348 130 b 348 93 307 145 307 77 l 347 99 b 324 111 338 94 324 98 b 338 126 324 120 329 126 z m 392 112 b 353 111 393 139 353 139 b 392 112 353 85 392 83 z m 373 96 b 373 127 357 96 356 127 b 373 96 390 126 387 96 z m 426 115 l 426 92 l 433 92 l 433 116 b 442 126 433 121 436 126 b 450 114 448 126 450 122 l 450 92 l 457 92 l 457 115 b 431 124 457 136 438 136 l 431 124 b 407 125 428 135 411 134 l 407 125 l 407 131 l 401 131 b 401 92 401 124 401 99 l 408 92 b 409 119 408 94 407 117 b 426 115 412 130 427 128 z m 476 76 l 476 97 l 476 97 b 507 112 486 84 507 92 b 490 132 507 124 499 132 b 476 124 483 132 479 129 l 476 124 l 475 131 l 469 131 b 469 76 469 123 469 85 z m 476 115 b 488 126 476 121 482 127 b 487 96 504 127 503 95 b 477 105 482 96 478 100 b 476 115 476 107 476 113 z m 523 92 l 523 150 l 516 150 l 516 92 z m 532 102 b 556 97 531 90 550 87 l 556 97 l 557 92 l 563 92 b 563 116 562 97 563 110 b 535 129 564 132 547 136 l 536 124 b 555 117 545 129 557 128 b 532 102 540 117 532 112 z m 556 112 b 546 96 556 105 556 97 b 539 103 542 96 539 98 b 556 112 539 111 548 112 z m 583 141 l 576 139 l 576 131 l 569 131 l 569 126 l 576 126 b 578 94 576 119 573 99 b 592 92 581 90 589 90 l 592 97 b 583 105 587 96 582 97 l 583 126 l 593 126 l 593 131 l 583 131 z m 629 99 b 604 110 620 95 604 95 l 632 110 b 616 132 633 119 631 132 b 598 111 605 132 598 123 b 630 93 597 92 617 87 z m 616 127 b 626 115 624 127 626 120 l 605 115 b 616 127 605 120 608 127 z m 658 99 l 656 94 b 682 103 665 88 683 91 b 671 115 682 109 678 112 b 671 127 662 117 661 126 b 679 124 674 127 677 125 l 680 130 b 657 121 672 135 656 131 b 668 109 657 116 660 112 b 667 96 677 107 678 96 b 658 99 664 96 660 98 z m 723 114 b 707 132 723 121 720 132 b 688 111 695 132 688 123 b 721 93 687 92 708 87 l 720 99 b 695 110 711 95 695 95 l 723 110 b 723 114 723 111 723 112 z m 695 115 b 716 115 696 131 717 131 z m 741 141 l 734 139 l 734 131 l 727 131 l 727 126 l 734 126 b 736 94 734 119 731 99 b 751 92 739 90 747 90 l 750 97 b 741 105 745 96 740 97 l 741 126 l 751 126 l 751 131 l 741 131 z m 793 132 b 792 91 768 133 767 90 b 793 132 817 89 820 132 z m 793 96 b 793 127 778 96 776 127 b 793 96 810 126 807 96 z m 855 92 l 855 115 b 828 125 855 136 834 136 l 828 125 l 827 131 l 821 131 b 821 92 821 124 821 99 l 828 92 b 829 119 829 94 828 117 b 848 115 833 130 849 128 l 848 92 z m 900 111 l 900 117 l 880 117 l 880 111 z m 778 548 b 782 573 781 556 783 565 b 771 585 780 579 776 588 b 758 523 759 570 759 542 b 778 548 767 529 774 537 z m 570 642 b 541 642 562 642 549 641 b 538 506 544 597 539 551 b 545 454 537 489 536 465 b 579 476 557 437 574 467 b 595 529 587 492 591 512 b 601 597 599 552 600 574 b 602 642 601 600 604 642 b 570 642 591 642 581 642 z m 438 548 b 442 573 441 556 444 565 b 431 585 441 579 436 588 b 418 523 420 570 419 542 b 438 548 427 529 434 537 z m 1150 704 b 587 1267 1150 1015 898 1267 b 181 315 93 1269 -159 665 l 85 315 l 85 176 l 1092 176 l 1092 315 l 993 315 b 1150 704 1090 416 1150 553 z m 1031 277 b 1030 206 1081 278 1078 205 b 1031 277 981 206 984 278 z m 653 948 b 708 936 659 989 715 979 b 708 935 708 936 708 936 b 658 915 709 906 677 890 b 653 948 652 925 651 937 z m 640 816 b 648 876 643 845 641 848 b 701 869 656 906 702 900 b 692 773 697 837 693 805 b 696 745 692 764 691 752 b 716 754 702 738 713 749 b 730 789 722 764 726 777 b 743 892 742 822 743 857 b 767 916 744 905 754 916 b 791 892 781 916 790 905 b 794 816 793 867 793 841 b 867 917 804 852 818 923 b 892 836 899 905 893 864 b 888 776 892 816 888 796 b 900 746 888 765 889 750 b 939 763 914 742 930 754 b 972 919 975 805 989 867 b 889 963 963 944 917 993 b 856 944 874 946 867 917 b 860 982 853 953 852 965 b 987 964 889 1029 961 1000 b 909 706 1049 882 1011 735 b 843 869 811 684 835 811 b 840 878 843 871 844 885 b 817 821 828 862 823 840 b 800 753 810 799 805 776 b 772 710 796 737 793 713 b 742 738 756 708 744 722 b 742 756 742 743 742 750 b 675 711 731 726 711 696 b 640 816 635 727 638 779 z m 451 1115 b 604 1054 507 1145 577 1106 b 626 812 641 982 632 891 b 546 708 624 766 608 693 b 509 753 526 714 515 733 b 428 728 498 707 459 686 b 409 806 412 750 411 780 b 407 892 407 835 407 863 b 435 920 408 908 420 919 b 463 892 450 921 463 907 b 462 823 462 868 462 847 b 479 752 463 803 457 752 b 496 783 488 754 494 774 b 509 870 500 801 502 849 b 551 867 518 889 551 886 b 552 784 551 843 552 800 b 593 769 553 745 584 726 b 545 1069 602 859 619 1005 b 442 1041 508 1102 453 1086 b 416 1064 439 1030 413 1037 b 451 1115 418 1091 435 1106 z m 174 953 b 398 1016 217 1016 329 1014 b 522 986 436 1017 494 1017 b 528 971 526 982 529 977 b 488 959 525 955 499 959 b 378 963 451 961 415 965 b 371 821 374 916 372 868 b 387 640 368 760 371 699 b 363 630 390 626 371 628 b 315 804 300 648 316 754 b 321 960 315 856 317 908 b 318 960 320 960 319 960 b 204 935 301 959 195 960 b 248 931 211 925 238 931 b 248 902 267 933 267 903 b 189 908 229 900 207 897 b 174 953 174 917 167 936 z m 164 263 l 143 263 l 143 208 l 127 208 l 127 263 l 106 263 l 106 276 l 164 276 z m 234 208 l 218 208 l 218 236 l 188 236 l 188 208 l 172 208 l 172 276 l 188 276 l 188 250 l 218 250 l 218 276 l 234 276 z m 264 208 l 248 208 l 248 276 l 264 276 z m 297 206 b 276 211 289 206 280 209 l 279 224 b 310 227 285 220 309 215 b 297 236 310 231 306 233 b 277 256 285 239 277 245 b 324 273 276 277 308 281 l 320 260 b 304 264 317 262 311 264 b 307 248 289 263 289 252 b 297 206 337 241 332 206 z m 405 263 l 376 263 l 376 248 l 403 248 l 403 235 l 376 235 l 376 208 l 360 208 l 360 276 l 405 276 z m 450 206 b 451 277 401 206 404 278 b 450 206 501 278 498 205 z m 560 208 l 543 208 b 513 259 534 222 520 244 l 513 259 b 513 208 514 244 513 223 l 498 208 l 498 276 l 518 276 b 546 227 527 262 540 242 l 546 227 b 545 276 545 242 545 261 l 560 276 z m 626 263 l 605 263 l 605 208 l 589 208 l 589 263 l 569 263 l 569 276 l 626 276 z m 673 208 l 657 208 l 657 276 l 673 276 z m 706 206 b 685 211 698 206 689 209 l 688 224 b 719 227 694 220 718 215 b 706 236 719 231 715 233 b 685 256 694 239 685 245 b 732 273 685 277 717 281 l 729 260 b 712 264 726 262 720 264 b 716 248 698 263 698 252 b 706 206 746 241 741 206 z m 823 216 b 769 208 813 206 783 205 l 769 275 b 823 269 784 277 812 278 b 823 216 840 259 838 226 z m 846 208 l 846 276 l 892 276 l 892 263 l 862 263 l 862 249 l 890 249 l 890 236 l 862 236 l 862 221 l 894 221 l 894 208 z m 969 208 b 967 264 968 226 967 246 l 967 264 b 949 209 963 248 955 225 l 936 209 l 928 236 b 922 264 926 245 923 255 l 921 264 b 919 208 921 247 920 225 l 904 208 l 908 276 l 931 276 l 938 254 b 944 229 940 246 942 237 l 944 229 b 959 276 948 244 954 262 l 981 276 l 985 208 l 969 208 z m 969 345 b 807 355 916 380 849 359 b 245 326 620 339 434 310 b 248 363 222 328 224 365 b 807 380 435 336 622 360 b 986 355 835 383 989 417 b 969 345 986 342 979 339 z m 847 631 b 652 640 782 631 713 639 b 648 506 655 596 649 551 b 655 453 648 489 647 465 b 689 476 667 437 685 467 b 753 609 714 518 707 582 b 804 590 773 619 796 610 b 758 502 817 556 787 518 b 756 485 756 501 756 490 b 774 448 756 473 760 453 b 831 532 805 440 829 503 b 823 589 831 551 828 570 b 824 608 821 595 817 603 b 878 590 841 621 870 606 b 886 562 883 581 885 571 b 916 606 892 578 900 597 b 968 595 933 615 955 609 b 930 495 999 565 990 459 b 921 516 925 499 916 512 b 939 535 928 521 936 527 b 939 564 944 544 942 555 b 904 554 928 596 910 577 b 880 431 890 513 883 474 b 869 410 879 424 877 412 b 841 428 858 407 847 421 b 830 466 833 439 830 453 b 761 413 817 440 793 411 b 709 469 731 414 711 441 b 601 477 686 393 609 397 b 576 429 596 461 588 442 b 492 471 540 394 495 427 b 421 413 479 444 455 411 b 375 447 401 414 382 428 b 367 439 373 444 370 441 b 233 450 321 399 256 396 b 232 652 210 513 230 587 b 222 720 233 675 229 698 b 225 732 221 725 220 729 b 279 714 242 745 271 730 b 284 624 292 687 286 651 b 278 488 282 578 278 533 b 292 448 278 476 276 453 b 342 465 309 444 330 453 b 384 579 371 496 366 543 b 464 590 399 612 446 631 b 418 503 477 556 447 518 b 416 485 416 502 416 491 b 434 448 417 473 420 453 b 474 477 451 443 466 464 b 489 549 486 499 487 525 b 491 644 489 557 492 644 b 428 644 470 644 449 644 b 428 663 415 644 416 662 b 490 667 449 665 470 666 b 489 681 490 672 490 676 b 533 687 487 707 526 710 b 537 668 534 681 536 675 b 601 668 557 669 581 668 b 600 681 600 672 600 677 b 643 687 597 707 636 710 b 647 669 645 681 646 675 b 829 673 692 670 806 673 b 975 703 890 672 932 682 b 990 698 983 706 992 711 b 847 631 979 627 893 629 z m 1031 219 b 1031 265 1056 218 1057 265 b 1031 219 1005 265 1005 218 z m 451 265 b 451 219 426 265 426 218 b 451 265 476 218 477 265 z m 793 264 b 785 263 789 264 786 264 l 785 220 b 818 243 802 217 819 225 b 793 264 818 257 808 264 z "},"9":{"ha":1182,"x_min":0,"x_max":0,"o":"m 166 32 b 163 14 165 26 164 20 l 163 14 b 154 51 161 25 156 40 l 141 51 b 131 14 138 40 133 25 l 131 14 b 124 51 130 25 126 40 l 107 51 l 123 1 l 138 1 b 147 34 141 11 145 23 l 147 34 b 155 1 148 24 152 11 l 171 1 l 187 51 l 171 51 z m 250 32 b 247 14 248 26 247 20 l 246 14 b 237 51 244 25 240 40 l 224 51 b 215 14 222 40 217 25 l 215 14 b 207 51 213 25 209 40 l 191 51 l 206 1 l 222 1 b 230 34 224 11 229 23 l 230 34 b 239 1 232 24 236 11 l 254 1 l 270 51 l 254 51 z m 333 32 b 330 14 332 26 331 20 l 330 14 b 321 51 328 25 323 40 l 308 51 b 298 14 305 40 300 25 l 298 14 b 291 51 297 25 293 40 l 274 51 l 290 1 l 305 1 b 314 34 308 11 312 23 l 314 34 b 322 1 315 24 319 11 l 338 1 l 354 51 l 338 51 z m 364 19 b 364 0 352 20 352 0 b 374 10 370 0 374 4 b 364 19 374 15 370 19 z m 401 65 l 386 60 l 386 51 l 379 51 l 379 39 l 386 39 b 390 5 386 30 384 11 b 413 2 394 0 408 -1 l 413 14 b 401 23 406 12 401 14 l 401 39 l 413 39 l 413 51 l 401 51 l 401 65 z m 477 32 b 474 14 476 26 474 20 l 474 14 b 464 51 472 25 467 40 l 451 51 b 442 14 449 40 444 25 l 442 14 b 434 51 440 25 437 40 l 418 51 l 433 1 l 449 1 b 457 34 452 11 456 23 l 457 34 b 466 1 459 24 463 11 l 481 1 l 497 51 l 482 51 z m 513 73 b 513 57 502 73 502 57 b 522 65 519 57 522 61 b 513 73 522 69 519 73 z m 521 1 l 521 51 l 505 51 l 505 1 z m 566 52 b 549 44 556 52 551 47 l 549 44 l 548 51 l 534 51 b 535 1 535 41 535 12 l 551 1 b 551 33 551 4 550 32 b 569 28 555 43 570 41 l 569 1 l 585 1 l 585 30 b 566 52 585 46 576 52 z m 614 1 l 614 74 l 598 74 l 598 1 z m 651 52 b 625 26 632 52 625 37 b 672 4 623 1 653 -5 l 670 14 b 640 21 662 11 641 10 l 675 21 b 651 52 677 35 672 52 z m 640 32 b 660 32 641 45 660 45 z m 703 65 l 687 60 l 687 51 l 680 51 l 680 39 l 687 39 b 691 5 687 30 685 11 b 714 2 695 0 709 -1 l 714 14 b 703 23 708 12 702 14 l 703 39 l 714 39 l 714 51 l 703 51 l 703 65 z m 742 65 l 726 60 l 726 51 l 719 51 l 719 39 l 726 39 b 730 5 726 30 724 11 b 753 2 734 0 748 -1 l 753 14 b 742 23 747 12 741 14 l 742 39 l 753 39 l 753 51 l 742 51 l 742 65 z m 786 52 b 759 26 767 52 759 37 b 807 4 758 1 788 -5 l 805 14 b 775 21 796 11 776 10 l 809 21 b 786 52 812 35 807 52 z m 775 32 b 795 32 776 45 795 45 z m 834 41 l 834 41 l 833 51 l 819 51 b 820 1 820 42 820 12 l 836 1 b 836 29 836 3 836 29 b 852 37 836 36 845 39 l 852 52 b 834 41 845 53 837 50 z m 862 19 b 862 0 849 20 849 0 b 871 10 867 0 871 4 b 862 19 871 15 867 19 z m 909 13 b 894 26 901 13 894 17 b 919 38 893 39 910 43 l 921 50 b 922 3 862 66 865 -16 l 919 14 b 909 13 917 13 913 13 z m 955 52 b 954 0 917 53 917 -1 b 955 52 990 -1 994 52 z m 955 12 b 955 41 940 11 939 41 b 955 12 971 41 969 10 z m 1055 52 b 1038 43 1047 52 1042 49 l 1038 43 b 1007 44 1032 57 1011 53 l 1007 44 l 1006 51 l 992 51 b 993 1 993 41 993 12 l 1008 1 l 1008 30 b 1017 39 1008 34 1011 39 b 1025 28 1022 39 1025 35 l 1025 2 l 1041 2 b 1041 34 1041 4 1040 32 b 1057 28 1045 43 1059 40 l 1057 1 l 1073 1 l 1073 30 b 1055 52 1073 46 1065 52 z m 297 111 l 297 116 l 277 116 l 277 111 z m 341 126 b 350 124 345 126 348 125 l 351 130 b 351 93 310 145 310 77 l 350 98 b 327 111 341 94 327 98 b 341 126 327 120 332 126 z m 395 112 b 356 111 396 139 355 139 b 395 112 356 85 395 83 z m 375 96 b 376 127 360 96 359 127 b 375 96 393 126 390 96 z m 429 115 l 429 92 l 436 92 l 436 116 b 445 126 436 121 439 126 b 453 114 451 126 453 122 l 453 92 l 460 92 l 460 115 b 434 124 460 136 441 136 l 434 124 b 410 125 431 135 414 134 l 410 125 l 410 131 l 404 131 b 404 92 404 124 404 99 l 411 92 b 412 119 411 94 410 117 b 429 115 415 130 429 128 z m 479 75 l 479 97 l 479 97 b 509 112 489 84 510 92 b 493 132 509 124 502 132 b 478 124 486 132 481 129 l 478 124 l 478 131 l 472 131 b 472 75 472 123 472 85 z m 479 115 b 490 126 479 121 485 127 b 490 96 507 127 506 95 b 479 105 485 96 481 100 b 479 115 479 107 479 112 z m 526 92 l 526 150 l 518 150 l 518 92 z m 535 102 b 559 97 534 90 553 87 l 559 97 l 560 92 l 566 92 b 565 116 565 97 566 110 b 537 129 567 132 550 136 l 539 124 b 558 117 548 129 559 128 b 535 102 543 117 535 112 z m 559 112 b 549 96 559 105 559 96 b 542 103 545 96 542 98 b 559 112 542 111 551 112 z m 585 141 l 578 138 l 578 131 l 572 131 l 572 126 l 578 126 b 581 94 579 119 576 99 b 595 92 584 90 592 90 l 595 97 b 585 104 590 96 585 97 l 585 126 l 596 126 l 596 131 l 585 131 z m 632 98 b 607 110 623 95 607 95 l 635 110 b 619 132 636 119 633 132 b 600 111 607 132 600 123 b 633 93 599 92 620 87 z m 618 127 b 628 115 627 127 628 120 l 607 115 b 618 127 608 120 611 127 z m 661 99 l 659 94 b 685 103 667 88 686 91 b 674 115 685 109 681 112 b 673 127 665 117 664 126 b 681 124 677 127 680 125 l 683 130 b 660 120 675 135 659 131 b 670 109 660 116 663 112 b 670 96 680 107 680 96 b 661 99 666 96 663 98 z m 726 113 b 710 132 726 121 722 132 b 691 111 698 132 691 123 b 724 93 690 92 710 87 l 722 98 b 698 110 714 95 698 95 l 726 110 b 726 113 726 111 726 112 z m 698 115 b 719 115 699 131 719 131 z m 743 141 l 736 138 l 736 131 l 730 131 l 730 126 l 736 126 b 739 94 737 119 734 99 b 753 92 742 90 750 90 l 753 97 b 744 104 748 96 743 97 l 744 126 l 754 126 l 754 131 l 744 131 l 744 141 z m 796 132 b 795 91 771 133 769 90 b 796 132 820 89 823 132 z m 796 96 b 796 127 780 96 779 127 b 796 96 813 126 810 96 z m 858 92 l 858 115 b 831 125 858 136 837 136 l 830 125 l 830 131 l 824 131 b 824 92 824 124 824 99 l 831 92 b 832 119 831 94 831 117 b 850 114 836 130 852 128 l 850 92 z m 903 111 l 903 116 l 883 116 l 883 111 z m 780 548 b 784 573 783 556 786 565 b 774 585 783 579 779 588 b 761 523 762 570 762 542 b 780 548 769 529 776 537 z m 573 642 b 544 642 565 642 552 641 b 541 506 547 597 542 551 b 547 453 540 489 539 465 b 582 476 560 437 577 467 b 598 529 590 492 594 512 b 604 597 602 552 603 574 b 604 642 604 600 606 642 b 573 642 594 642 583 642 z m 441 548 b 445 573 444 556 446 565 b 434 585 443 579 439 588 b 421 523 422 570 422 542 b 441 548 430 529 437 537 z m 1153 704 b 590 1267 1153 1015 901 1267 b 184 315 96 1269 -156 665 l 87 315 l 87 176 l 1094 176 l 1094 315 l 996 315 b 1153 704 1093 416 1153 553 z m 1034 277 b 1033 206 1084 278 1081 205 b 1034 277 984 206 987 278 z m 656 948 b 711 936 662 988 718 979 b 710 935 710 936 710 936 b 661 914 712 906 680 889 b 656 948 655 925 654 937 z m 643 816 b 651 876 646 845 644 847 b 704 869 659 906 705 900 b 695 773 700 837 695 805 b 699 745 695 764 694 752 b 719 754 705 738 716 749 b 733 789 725 764 729 777 b 746 892 744 822 746 857 b 770 916 747 905 757 916 b 794 892 784 916 793 905 b 797 816 796 867 796 841 b 870 917 807 851 821 923 b 895 836 902 905 896 864 b 891 776 895 816 891 796 b 903 746 891 765 892 750 b 942 763 917 742 933 754 b 975 919 978 805 992 867 b 892 963 966 944 920 993 b 859 944 876 946 870 917 b 863 982 856 953 855 965 b 990 964 892 1029 964 1000 b 911 706 1052 882 1014 735 b 846 869 814 684 838 811 b 843 878 846 871 847 885 b 820 821 831 862 826 840 b 802 753 813 798 808 776 b 775 710 799 736 796 713 b 745 738 759 708 746 722 b 745 756 745 743 745 750 b 678 711 734 726 714 696 b 643 816 638 727 641 779 z m 453 1114 b 606 1054 509 1145 580 1106 b 629 812 644 981 634 890 b 549 708 627 766 611 693 b 512 753 528 714 518 733 b 430 728 501 707 462 686 b 412 806 415 750 414 780 b 410 892 410 834 410 863 b 438 920 410 908 423 919 b 465 892 453 920 466 907 b 465 823 465 868 465 847 b 482 752 466 803 460 752 b 499 783 491 754 497 774 b 512 870 503 801 505 849 b 554 867 520 889 554 886 b 555 784 553 843 555 800 b 596 769 556 745 587 725 b 548 1069 605 859 622 1005 b 445 1041 511 1102 456 1086 b 419 1064 442 1030 416 1037 b 453 1114 421 1091 438 1106 z m 177 953 b 401 1016 219 1016 332 1014 b 525 986 439 1017 497 1017 b 531 971 529 982 532 977 b 491 959 528 955 502 959 b 381 963 454 961 417 965 b 374 821 377 916 375 868 b 390 640 371 759 374 699 b 365 630 393 626 374 628 b 318 804 302 648 319 754 b 324 960 318 856 320 908 b 320 960 323 960 322 960 b 207 935 304 959 198 960 b 251 931 214 925 241 931 b 251 902 270 933 270 903 b 192 908 232 900 210 897 b 177 953 177 917 170 936 z m 167 263 l 146 263 l 146 208 l 130 208 l 130 263 l 109 263 l 109 276 l 167 276 z m 237 208 l 221 208 l 221 236 l 191 236 l 191 208 l 175 208 l 175 276 l 191 276 l 191 250 l 221 250 l 221 276 l 237 276 z m 267 208 l 251 208 l 251 276 l 267 276 z m 300 206 b 279 211 292 206 283 209 l 282 224 b 313 227 288 220 312 215 b 300 236 313 231 309 233 b 280 256 288 239 280 245 b 326 273 279 277 311 281 l 323 260 b 307 264 320 262 314 264 b 310 248 292 263 292 252 b 300 206 340 240 335 206 z m 408 263 l 379 263 l 379 248 l 406 248 l 406 235 l 379 235 l 379 207 l 363 207 l 363 276 l 408 276 z m 453 206 b 454 277 404 206 407 278 b 453 206 504 278 501 205 z m 563 208 l 545 208 b 516 259 537 222 523 244 l 516 259 b 516 208 516 244 516 223 l 501 208 l 501 276 l 521 276 b 549 227 530 262 543 242 l 549 227 b 548 276 547 242 548 260 l 563 276 z m 629 263 l 608 263 l 608 208 l 592 208 l 592 263 l 572 263 l 572 276 l 629 276 z m 676 208 l 660 208 l 660 276 l 676 276 z m 709 206 b 687 211 700 206 692 209 l 691 224 b 721 227 697 220 721 215 b 709 236 721 231 718 233 b 688 256 697 239 688 245 b 735 273 687 277 720 281 l 731 260 b 715 264 728 262 723 264 b 719 248 701 263 701 252 b 709 206 748 240 744 206 z m 826 216 b 771 208 816 206 785 205 l 771 275 b 826 269 786 277 815 278 b 826 216 843 259 841 226 z m 849 208 l 849 276 l 895 276 l 895 263 l 865 263 l 865 249 l 893 249 l 893 236 l 865 236 l 865 221 l 897 221 l 897 208 z m 972 208 b 970 264 971 225 970 246 l 970 264 b 952 209 965 248 957 225 l 939 209 l 931 236 b 924 264 929 245 926 255 l 924 264 b 922 208 924 247 923 225 l 906 208 l 911 276 l 933 276 l 940 254 b 947 229 943 246 945 237 l 947 229 b 962 276 950 243 957 262 l 984 276 l 988 207 l 972 207 z m 972 345 b 810 355 919 380 852 359 b 248 326 623 339 436 310 b 251 363 225 328 227 365 b 810 380 437 336 624 360 b 989 355 838 383 992 417 b 972 345 988 342 982 339 z m 849 631 b 655 640 785 631 716 639 b 651 506 658 596 652 551 b 658 453 651 489 649 465 b 692 476 670 437 687 467 b 756 609 717 518 709 582 b 807 590 776 619 798 610 b 761 502 820 556 790 518 b 759 485 759 501 759 490 b 776 448 759 473 763 453 b 834 532 807 440 832 503 b 826 589 834 551 831 570 b 827 608 824 595 820 603 b 881 590 844 621 873 606 b 889 561 885 580 888 571 b 919 606 895 578 903 597 b 970 595 936 615 958 609 b 933 495 1002 565 993 459 b 924 516 928 499 919 512 b 942 534 931 521 939 526 b 942 564 947 544 945 555 b 907 554 930 596 913 576 b 883 431 893 513 886 474 b 872 410 882 424 880 412 b 844 428 861 407 849 420 b 832 466 836 439 833 453 b 764 413 819 440 796 411 b 711 469 734 414 714 441 b 604 477 689 393 612 397 b 579 429 599 461 591 442 b 495 471 542 394 498 427 b 424 413 482 443 458 411 b 378 447 404 414 384 428 b 370 439 375 444 373 441 b 235 450 324 399 258 396 b 235 652 212 513 233 587 b 225 720 235 675 232 698 b 227 732 223 725 223 729 b 282 713 244 745 274 730 b 287 623 294 687 288 651 b 281 488 285 578 280 533 b 294 448 281 476 278 453 b 345 465 312 444 333 453 b 387 579 373 496 369 542 b 467 590 401 612 449 631 b 421 503 480 556 450 518 b 419 485 419 502 419 491 b 437 448 419 473 423 453 b 476 477 454 442 469 464 b 491 549 489 499 490 525 b 494 644 492 556 495 644 b 431 644 473 644 452 644 b 431 663 418 644 418 662 b 493 667 452 664 472 666 b 492 681 493 671 492 676 b 535 687 489 707 529 710 b 540 668 537 681 539 675 b 603 668 560 669 584 668 b 602 681 603 672 603 677 b 646 687 600 707 639 710 b 650 669 647 681 649 675 b 831 672 695 670 808 673 b 978 703 892 672 935 682 b 993 698 986 706 994 710 b 849 631 982 627 895 629 z m 1034 219 b 1034 265 1059 218 1060 265 b 1034 219 1008 265 1008 218 z m 454 264 b 454 219 428 265 428 218 b 454 264 479 218 480 265 z m 796 264 b 788 263 792 264 789 264 l 788 219 b 821 243 805 217 822 225 b 796 264 821 257 811 264 z "},"\u0000":{"ha":0,"x_min":0,"x_max":0,"o":""},"\n":{"ha":0,"x_min":0,"x_max":0,"o":""},"\r":{"ha":0,"x_min":0,"x_max":0,"o":""}," ":{"ha":256,"x_min":0,"x_max":0,"o":""},"!":{"ha":1153,"x_min":0,"x_max":0,"o":"m 155 67 b 152 50 154 61 153 56 l 152 50 b 143 86 150 60 145 76 l 130 86 b 120 50 127 76 122 61 l 120 50 b 112 86 118 61 115 76 l 96 86 l 111 37 l 127 37 b 135 70 130 47 134 59 l 136 70 b 144 37 137 59 141 47 l 159 37 l 175 86 l 160 86 z m 239 67 b 235 50 237 61 236 56 l 235 50 b 226 86 233 60 229 76 l 213 86 b 204 50 210 76 206 61 l 204 50 b 196 86 202 61 198 76 l 180 86 l 195 37 l 210 37 b 219 70 213 47 217 59 l 219 70 b 227 37 221 59 225 47 l 243 37 l 259 86 l 243 86 z m 322 67 b 319 50 321 61 320 56 l 319 50 b 309 86 317 60 312 76 l 297 86 b 287 50 294 76 289 61 l 287 50 b 279 86 285 61 282 76 l 263 86 l 278 37 l 294 37 b 302 70 297 47 301 59 l 302 70 b 311 37 304 59 308 47 l 326 37 l 342 86 l 327 86 z m 353 55 b 353 35 341 55 341 35 b 363 45 359 35 363 39 b 353 55 363 51 359 55 z m 390 100 l 375 96 l 375 86 l 368 86 l 368 74 l 375 74 b 379 40 375 66 373 46 b 402 37 383 35 397 35 l 402 49 b 390 58 395 47 389 49 l 390 74 l 402 74 l 402 86 l 390 86 l 390 100 z m 466 67 b 463 50 464 61 463 56 l 462 50 b 453 86 460 60 456 76 l 440 86 b 431 50 438 76 433 61 l 431 50 b 423 86 429 61 425 76 l 407 86 l 422 37 l 437 37 b 446 70 440 47 444 59 l 446 70 b 455 37 448 59 452 47 l 470 37 l 486 86 l 470 86 z m 502 108 b 502 92 491 108 491 92 b 511 100 507 92 511 96 b 502 108 511 105 507 108 z m 510 37 l 510 86 l 494 86 l 494 37 z m 555 87 b 538 79 545 87 540 82 l 538 79 l 537 86 l 523 86 b 523 37 524 77 523 47 l 540 37 b 540 68 540 39 539 67 b 558 63 544 78 559 76 l 558 37 l 574 37 l 574 65 b 555 87 574 81 565 87 z m 603 37 l 603 109 l 587 109 l 587 37 z m 640 87 b 613 61 621 87 613 72 b 661 39 612 37 642 31 l 659 50 b 629 56 650 47 630 45 l 663 56 b 640 87 666 70 660 87 z m 629 67 b 649 67 630 80 649 80 z m 691 100 l 676 96 l 676 86 l 669 86 l 669 74 l 676 74 b 680 40 676 66 674 46 b 703 37 684 35 698 35 l 703 49 b 691 58 696 47 691 49 l 691 74 l 703 74 l 703 86 l 691 86 l 691 100 z m 731 100 l 715 96 l 715 86 l 708 86 l 708 74 l 715 74 b 719 40 715 66 713 46 b 742 37 723 35 737 35 l 742 49 b 731 58 735 47 730 49 l 731 74 l 742 74 l 742 86 l 731 86 l 731 100 z m 775 87 b 748 61 756 87 748 72 b 796 39 747 37 777 31 l 794 50 b 764 56 785 47 765 45 l 798 56 b 775 87 801 70 795 87 z m 763 67 b 784 67 765 80 784 80 z m 823 76 l 822 76 l 822 86 l 808 86 b 809 37 809 78 808 47 l 825 37 b 825 65 825 38 824 64 b 841 72 825 71 834 74 l 841 87 b 823 76 834 88 826 86 z m 851 55 b 850 35 838 55 838 35 b 860 45 856 35 860 39 b 851 55 860 51 856 55 z m 898 48 b 883 62 890 48 883 52 b 907 73 882 74 899 78 l 910 85 b 910 38 851 101 853 19 l 908 50 b 898 48 906 49 902 48 z m 944 87 b 943 36 905 88 906 35 b 944 87 979 34 983 87 z m 944 47 b 944 76 929 46 928 76 b 944 47 959 76 958 45 z m 1044 87 b 1027 79 1036 87 1031 84 l 1026 79 b 996 79 1021 92 1000 88 l 996 79 l 995 86 l 981 86 b 982 37 982 77 982 47 l 997 37 l 997 65 b 1006 75 997 69 1000 74 b 1014 63 1011 75 1014 71 l 1014 37 l 1030 37 b 1030 69 1030 40 1029 67 b 1046 63 1034 79 1048 76 l 1046 37 l 1062 37 l 1062 65 b 1044 87 1062 81 1053 87 z m 286 146 l 286 152 l 266 152 l 266 146 z m 330 162 b 338 160 334 162 337 161 l 340 165 b 340 128 299 180 299 112 l 339 134 b 316 147 330 129 316 133 b 330 162 316 155 321 162 z m 384 147 b 345 146 384 174 344 174 b 384 147 344 120 384 119 z m 364 131 b 364 162 349 131 348 162 b 364 131 381 162 379 131 z m 417 151 l 417 127 l 424 127 l 424 151 b 434 162 424 157 428 162 b 442 149 439 162 442 157 l 442 127 l 449 127 l 449 150 b 423 159 449 171 430 172 l 423 159 b 399 160 419 170 403 169 l 399 160 l 399 166 l 392 166 b 393 127 393 160 393 134 l 400 127 b 400 154 400 129 399 153 b 417 151 404 165 418 163 z m 461 111 l 468 111 l 468 132 l 468 132 b 498 147 478 119 499 127 b 481 167 498 159 491 167 b 467 160 475 167 470 165 l 467 160 l 467 166 l 460 166 b 461 111 461 158 461 120 z m 468 150 b 479 162 468 156 473 162 b 479 132 495 162 494 131 b 468 140 474 132 470 135 b 468 150 468 142 468 148 z m 514 127 l 514 185 l 507 185 l 507 127 z m 523 137 b 548 132 523 125 542 123 l 548 132 l 548 127 l 555 127 b 554 151 554 132 554 145 b 526 164 555 167 539 172 l 528 159 b 547 152 536 164 548 163 b 523 137 532 152 523 147 z m 547 147 b 537 131 548 140 547 132 b 531 138 534 131 531 134 b 547 147 531 146 540 147 z m 574 176 l 567 174 l 567 166 l 561 166 l 561 161 l 567 161 b 570 129 568 154 565 134 b 584 127 573 126 581 126 l 584 133 b 574 140 579 131 574 133 l 574 161 l 585 161 l 585 166 l 574 166 l 574 176 z m 621 134 b 596 145 612 130 596 130 l 624 145 b 608 167 625 154 622 167 b 589 146 596 167 589 158 b 622 129 588 127 609 122 z m 607 162 b 617 151 615 162 617 155 l 596 151 b 607 162 597 156 600 162 z m 649 134 l 648 129 b 674 138 656 123 674 126 b 663 150 674 144 670 147 b 662 162 654 152 653 161 b 670 160 666 162 669 161 l 672 165 b 649 156 664 170 648 166 b 659 145 649 151 652 147 b 659 131 669 142 669 132 b 649 134 655 131 652 133 z m 715 149 b 698 167 715 156 711 167 b 680 146 687 167 680 158 b 712 129 679 127 699 122 l 711 134 b 687 145 702 130 686 130 l 714 145 b 715 149 715 146 715 147 z m 687 151 b 708 151 688 166 708 166 z m 732 176 l 725 174 l 725 166 l 719 166 l 719 161 l 725 161 b 728 129 726 154 723 134 b 742 127 731 126 739 126 l 742 133 b 732 140 737 131 732 133 l 732 161 l 743 161 l 743 166 l 732 166 l 732 176 z m 785 167 b 784 126 759 168 758 126 b 785 167 808 125 812 167 z m 784 131 b 785 162 769 131 768 162 b 784 131 802 162 799 131 z m 847 127 l 847 151 b 819 160 847 171 826 171 l 819 160 l 819 166 l 813 166 b 813 127 813 160 813 134 l 820 127 b 821 154 820 129 820 153 b 839 150 825 166 841 163 l 839 127 z m 892 146 l 892 152 l 872 152 l 872 146 z m 769 583 b 773 609 772 591 775 600 b 763 620 772 614 768 624 b 749 558 751 605 751 577 b 769 583 758 564 765 573 z m 562 677 b 532 677 554 678 541 677 b 530 541 536 632 531 586 b 536 489 529 525 528 500 b 571 511 548 472 566 502 b 587 565 579 527 583 547 b 593 632 591 587 592 610 b 593 677 593 635 595 677 b 562 677 583 677 572 677 z m 429 583 b 433 609 433 591 435 600 b 423 620 432 614 428 624 b 410 558 411 605 411 577 b 429 583 418 564 425 573 z m 1142 740 b 579 1302 1142 1050 890 1302 b 173 350 85 1304 -167 700 l 76 350 l 76 211 l 1083 211 l 1083 350 l 985 350 b 1142 740 1082 451 1142 589 z m 1023 312 b 1022 242 1073 313 1070 240 b 1023 312 973 241 976 313 z m 645 983 b 699 972 651 1024 707 1014 b 699 971 699 971 699 971 b 650 950 700 941 669 925 b 645 983 644 960 643 972 z m 632 851 b 640 912 635 881 632 883 b 693 904 648 941 694 935 b 684 808 689 872 684 840 b 688 780 684 799 682 788 b 707 789 694 773 704 785 b 721 824 714 800 718 813 b 735 928 733 857 735 893 b 759 952 736 941 745 952 b 783 928 773 952 782 941 b 785 851 785 902 785 877 b 859 952 796 887 810 958 b 884 872 891 941 884 899 b 880 811 883 851 880 831 b 892 782 880 801 880 786 b 931 798 906 777 922 790 b 964 954 967 841 980 902 b 881 998 955 979 909 1028 b 848 979 865 982 859 952 b 852 1017 844 988 843 1000 b 979 999 881 1064 952 1036 b 900 742 1040 917 1003 770 b 834 904 803 719 827 847 b 831 914 835 906 836 920 b 808 856 819 897 814 875 b 791 788 802 834 796 811 b 764 746 787 772 785 748 b 734 773 747 743 735 757 b 734 791 734 778 734 785 b 667 746 723 761 703 731 b 632 851 627 763 630 815 z m 442 1150 b 595 1089 498 1181 568 1141 b 618 847 633 1017 623 926 b 538 743 616 802 600 728 b 501 788 517 749 507 769 b 419 764 490 742 451 721 b 401 841 404 785 402 815 b 399 927 398 870 399 899 b 427 955 399 943 412 954 b 454 927 442 956 455 942 b 454 858 454 903 454 882 b 470 788 455 839 448 787 b 488 818 480 789 486 809 b 501 905 492 836 494 885 b 543 902 509 924 543 922 b 544 819 542 878 544 835 b 585 805 544 780 575 761 b 537 1104 594 894 611 1040 b 434 1076 500 1137 444 1121 b 408 1099 431 1065 405 1072 b 442 1150 410 1126 427 1141 z m 166 988 b 389 1052 208 1052 321 1050 b 514 1022 427 1052 486 1052 b 519 1006 518 1017 520 1012 b 480 995 517 990 491 994 b 369 998 443 997 406 1000 b 363 856 366 951 364 903 b 379 675 360 795 363 734 b 354 665 381 661 363 663 b 307 840 291 683 308 789 b 313 996 307 892 309 944 b 309 996 312 996 310 996 b 195 970 293 994 187 995 b 240 967 202 961 230 966 b 240 937 259 968 259 939 b 181 943 221 936 198 933 b 166 988 166 953 159 971 z m 135 298 l 135 243 l 119 243 l 119 298 l 98 298 l 98 311 l 156 311 l 156 298 z m 226 243 l 210 243 l 210 271 l 180 271 l 180 243 l 164 243 l 164 311 l 180 311 l 180 285 l 210 285 l 210 311 l 226 311 z m 256 243 l 240 243 l 240 311 l 256 311 z m 289 242 b 267 246 280 242 272 244 l 271 259 b 301 262 277 256 301 250 b 289 271 301 266 298 268 b 268 292 277 275 268 280 b 315 309 267 312 300 316 l 311 296 b 295 299 309 297 303 299 b 299 283 281 299 281 288 b 289 242 328 276 324 241 z m 397 298 l 367 298 l 367 283 l 395 283 l 395 270 l 367 270 l 367 243 l 351 243 l 351 311 l 397 311 z m 442 242 b 443 312 393 241 396 313 b 442 242 493 313 490 240 z m 534 243 b 505 295 525 258 512 279 l 504 295 b 505 243 505 279 505 259 l 490 243 l 490 311 l 510 311 b 538 262 519 297 532 277 l 538 262 b 537 311 536 277 537 296 l 552 311 l 552 243 z m 618 298 l 597 298 l 597 243 l 581 243 l 581 298 l 561 298 l 561 311 l 618 311 z m 665 243 l 648 243 l 648 311 l 665 311 z m 698 242 b 676 246 689 242 681 244 l 680 259 b 710 262 685 256 710 250 b 698 271 710 266 707 268 b 677 292 686 275 677 280 b 724 309 676 312 709 316 l 720 296 b 704 299 717 297 712 299 b 708 283 690 299 690 288 b 698 242 737 276 732 241 z m 815 252 b 760 243 805 241 774 241 l 760 310 b 815 304 775 313 804 313 b 815 252 832 295 830 261 z m 885 243 l 838 243 l 838 311 l 884 311 l 884 298 l 854 298 l 854 284 l 882 284 l 882 271 l 854 271 l 854 256 l 885 256 z m 961 243 b 959 300 960 261 959 281 l 959 300 b 941 244 954 283 946 260 l 928 244 l 920 271 b 913 300 918 280 915 290 l 913 300 b 911 243 912 282 911 260 l 895 243 l 899 311 l 922 311 l 929 289 b 935 264 932 281 934 272 l 936 264 b 951 311 939 279 946 297 l 973 311 l 977 243 l 961 243 z m 961 381 b 799 390 908 415 841 394 b 237 361 612 375 425 345 b 240 398 214 363 216 401 b 799 415 426 371 613 395 b 978 390 827 418 981 452 b 961 381 977 377 970 374 z m 838 666 b 644 676 774 667 705 674 b 640 541 646 631 641 586 b 647 489 639 525 638 500 b 681 511 659 472 676 502 b 745 644 706 553 698 618 b 795 625 764 654 787 646 b 749 538 809 591 779 553 b 748 520 748 537 748 526 b 765 483 748 508 751 488 b 823 567 796 475 821 538 b 815 624 823 586 820 606 b 816 644 813 631 809 639 b 870 625 832 656 862 641 b 877 597 874 616 876 606 b 908 641 884 613 891 632 b 959 630 924 650 947 644 b 921 531 991 600 982 495 b 913 551 917 534 908 548 b 931 570 919 556 927 562 b 931 599 935 579 934 590 b 896 589 919 631 902 612 b 871 466 882 548 875 509 b 860 445 871 459 868 447 b 833 463 850 442 838 456 b 821 502 825 474 822 488 b 753 448 808 476 785 446 b 700 505 723 449 703 477 b 593 513 678 428 600 432 b 568 464 587 496 579 477 b 484 506 531 429 487 462 b 413 448 471 479 447 447 b 366 483 392 449 373 463 b 359 474 364 479 362 477 b 224 485 313 434 247 432 b 223 687 201 549 222 622 b 213 755 224 710 220 733 b 216 768 212 760 212 764 b 271 749 233 780 263 765 b 276 659 283 723 277 687 b 269 523 274 614 269 569 b 283 484 269 511 267 488 b 333 500 300 479 321 488 b 376 614 362 531 357 578 b 455 625 390 647 437 666 b 409 538 469 591 439 554 b 408 520 408 537 408 526 b 425 484 408 508 411 488 b 465 512 443 478 457 499 b 480 584 477 534 479 560 b 483 680 480 592 483 680 b 419 679 462 679 440 679 b 419 698 407 679 407 697 b 482 702 440 700 461 701 b 481 717 482 707 481 712 b 524 722 478 742 517 745 b 529 704 526 716 527 710 b 592 703 549 704 573 704 b 591 717 592 708 591 712 b 635 722 589 742 628 745 b 639 704 636 716 638 710 b 820 708 683 706 797 708 b 967 738 881 707 924 718 b 982 733 975 742 983 746 b 838 666 971 662 884 664 z m 1023 254 b 1023 300 1048 253 1048 300 b 1023 254 997 301 997 253 z m 443 300 b 443 254 417 301 417 253 b 443 300 468 253 468 300 z m 785 299 b 776 299 781 299 778 299 l 776 255 b 810 278 794 252 811 260 b 785 299 810 292 800 299 z "},"\"":{"ha":1153,"x_min":0,"x_max":0,"o":"m 150 -48 b 146 -65 148 -53 147 -59 l 146 -65 b 137 -28 144 -55 140 -39 l 124 -28 b 115 -65 121 -39 117 -54 l 114 -65 b 107 -28 113 -54 109 -39 l 91 -28 l 106 -78 l 121 -78 b 130 -45 124 -68 128 -56 l 130 -45 b 138 -78 132 -56 136 -68 l 154 -78 l 170 -28 l 154 -28 z m 233 -48 b 230 -65 232 -53 231 -59 l 230 -65 b 220 -28 228 -55 223 -39 l 208 -28 b 198 -65 205 -39 200 -54 l 198 -65 b 190 -28 196 -54 193 -39 l 174 -28 l 189 -78 l 205 -78 b 213 -45 208 -68 212 -56 l 213 -45 b 222 -78 215 -56 219 -68 l 237 -78 l 253 -28 l 238 -28 z m 317 -48 b 313 -65 315 -53 314 -59 l 313 -65 b 304 -28 311 -55 307 -39 l 291 -28 b 282 -65 288 -39 284 -54 l 281 -65 b 274 -28 280 -54 276 -39 l 258 -28 l 273 -78 l 288 -78 b 297 -45 291 -68 295 -56 l 297 -45 b 305 -78 299 -56 303 -68 l 321 -78 l 337 -28 l 321 -28 z m 348 -60 b 348 -79 335 -60 335 -80 b 357 -70 353 -79 357 -75 b 348 -60 357 -64 353 -60 z m 385 -15 l 369 -19 l 369 -28 l 362 -28 l 362 -40 l 369 -40 b 373 -75 369 -49 367 -69 b 396 -78 377 -80 391 -80 l 396 -66 b 385 -57 390 -67 384 -66 l 385 -41 l 396 -41 l 396 -28 l 385 -28 l 385 -15 z m 460 -48 b 457 -65 459 -53 458 -59 l 457 -65 b 448 -28 455 -55 450 -39 l 435 -28 b 425 -65 432 -39 427 -54 l 425 -65 b 417 -28 423 -54 420 -39 l 401 -28 l 416 -78 l 432 -78 b 440 -45 435 -68 439 -56 l 441 -45 b 449 -78 442 -56 446 -68 l 465 -78 l 480 -28 l 465 -28 z m 497 -7 b 496 -22 485 -6 485 -22 b 505 -14 502 -22 505 -19 b 497 -7 505 -10 502 -7 z m 505 -78 l 505 -28 l 488 -28 l 488 -78 z m 549 -27 b 533 -36 540 -27 534 -33 l 532 -36 l 531 -28 l 517 -28 b 518 -78 518 -38 518 -68 l 534 -78 b 534 -46 534 -76 533 -47 b 552 -52 538 -36 553 -38 l 552 -78 l 568 -78 l 568 -49 b 549 -27 568 -34 559 -27 z m 598 -78 l 598 -5 l 582 -5 l 582 -78 z m 635 -27 b 608 -54 615 -27 608 -42 b 656 -76 606 -78 636 -84 l 653 -65 b 623 -58 645 -68 625 -70 l 658 -58 b 635 -27 660 -45 655 -27 z m 623 -47 b 643 -47 624 -35 643 -35 z m 686 -15 l 670 -19 l 670 -28 l 663 -28 l 663 -40 l 670 -40 b 674 -75 671 -49 668 -69 b 697 -78 678 -80 692 -80 l 697 -66 b 686 -57 691 -67 685 -66 l 686 -41 l 697 -41 l 697 -28 l 686 -28 l 686 -15 z m 725 -15 l 709 -19 l 709 -28 l 703 -28 l 703 -40 l 709 -40 b 714 -75 710 -49 707 -69 b 737 -78 717 -80 731 -80 l 736 -66 b 725 -57 730 -67 724 -66 l 725 -41 l 737 -41 l 737 -28 l 725 -28 l 725 -15 z m 769 -27 b 743 -54 750 -27 743 -42 b 790 -76 741 -78 771 -84 l 788 -65 b 758 -58 780 -68 760 -70 l 793 -58 b 769 -27 795 -45 790 -27 z m 758 -47 b 778 -47 759 -35 778 -35 z m 817 -38 l 817 -38 l 816 -28 l 803 -28 b 803 -78 803 -37 803 -68 l 819 -78 b 819 -50 819 -76 819 -51 b 835 -42 820 -43 829 -40 l 835 -27 b 817 -38 828 -26 821 -29 z m 845 -60 b 845 -79 833 -60 832 -80 b 855 -70 851 -79 855 -75 b 845 -60 854 -64 851 -60 z m 892 -67 b 878 -53 885 -67 878 -62 b 902 -41 877 -40 893 -37 l 905 -29 b 905 -77 845 -13 848 -96 l 903 -65 b 892 -67 900 -66 897 -67 z m 939 -27 b 938 -79 900 -26 901 -80 b 939 -27 973 -81 977 -27 z m 938 -68 b 938 -39 923 -69 922 -38 b 938 -68 954 -38 952 -69 z m 1038 -27 b 1021 -36 1031 -27 1026 -30 l 1021 -36 b 990 -35 1016 -23 994 -26 l 990 -35 l 989 -28 l 976 -28 b 976 -78 976 -38 976 -68 l 992 -78 l 992 -50 b 1000 -40 992 -45 994 -40 b 1008 -51 1006 -40 1008 -44 l 1008 -78 l 1024 -78 b 1025 -46 1024 -75 1023 -47 b 1041 -52 1029 -36 1042 -39 l 1041 -78 l 1056 -78 l 1056 -50 b 1038 -27 1056 -34 1048 -27 z m 280 32 l 280 37 l 260 37 l 260 32 z m 325 47 b 333 45 328 47 331 46 l 335 51 b 334 14 293 65 293 -2 l 333 19 b 311 32 324 14 310 19 b 325 47 311 40 315 47 z m 378 32 b 339 32 379 59 339 59 b 378 32 339 5 378 4 z m 359 17 b 359 47 343 16 342 47 b 359 17 376 47 373 16 z m 412 36 l 412 12 l 419 12 l 419 37 b 428 47 419 42 423 47 b 437 35 434 47 437 42 l 437 12 l 444 12 l 444 36 b 417 45 443 57 424 57 l 417 45 b 394 45 414 56 397 54 l 393 45 l 393 52 l 387 52 b 387 12 387 45 387 20 l 394 12 b 395 40 394 15 394 38 b 412 36 398 50 413 49 z m 462 -4 l 462 18 l 462 18 b 493 33 472 5 493 13 b 476 53 493 45 485 53 b 462 45 469 53 465 50 l 462 45 l 461 52 l 455 52 b 455 -4 455 44 455 5 z m 462 35 b 474 47 462 41 468 47 b 473 17 490 47 489 16 b 463 25 468 17 464 20 b 462 35 462 27 462 33 z m 509 12 l 509 70 l 502 70 l 502 12 z m 518 23 b 542 17 517 10 536 8 l 542 17 l 543 12 l 549 12 b 549 37 548 18 549 31 b 521 49 550 52 533 57 l 522 44 b 542 37 531 50 543 48 b 518 23 526 38 518 32 z m 542 32 b 532 17 542 25 542 17 b 525 24 528 17 525 19 b 542 32 525 31 534 33 z m 569 61 l 562 59 l 562 52 l 556 52 l 556 46 l 562 46 b 564 15 562 40 560 19 b 579 12 567 11 575 11 l 578 18 b 569 25 573 16 568 18 l 569 46 l 579 46 l 579 52 l 569 52 l 569 61 z m 615 19 b 591 31 606 15 590 16 l 618 31 b 602 53 619 40 617 52 b 584 31 591 53 584 43 b 616 14 583 13 603 8 z m 602 48 b 612 36 610 48 612 40 l 591 36 b 602 48 591 41 594 48 z m 644 20 l 642 14 b 668 23 651 9 669 12 b 658 35 668 29 664 33 b 657 47 648 37 647 47 b 665 45 660 47 663 46 l 667 50 b 643 41 659 56 642 52 b 654 30 643 36 647 32 b 653 17 664 27 664 17 b 644 20 650 17 646 18 z m 709 34 b 693 53 709 41 706 53 b 674 31 681 53 674 43 b 707 14 673 13 694 8 l 706 19 b 681 31 697 15 681 16 l 709 31 b 709 34 709 31 709 33 z m 681 36 b 702 36 683 51 703 52 z m 727 61 l 720 59 l 720 52 l 714 52 l 714 46 l 720 46 b 723 15 720 40 718 19 b 737 12 725 11 733 11 l 736 18 b 727 25 731 16 726 18 l 727 46 l 737 46 l 737 52 l 727 52 l 727 61 z m 779 53 b 779 11 754 54 753 11 b 779 53 803 10 806 53 z m 779 17 b 779 47 764 16 762 47 b 779 17 796 47 794 16 z m 841 12 l 841 36 b 814 45 841 57 820 56 l 814 45 l 813 52 l 807 52 b 807 12 808 45 807 20 l 814 12 b 815 39 815 15 814 38 b 834 35 819 51 835 48 l 834 12 z m 887 32 l 887 37 l 866 37 l 866 32 z m 764 468 b 768 494 767 476 770 486 b 757 505 767 499 762 509 b 744 443 746 491 745 462 b 764 468 753 450 760 458 z m 557 563 b 527 563 548 563 535 562 b 524 426 530 518 525 472 b 531 374 524 410 522 385 b 565 396 543 358 561 387 b 581 450 574 413 577 432 b 587 518 586 472 586 495 b 588 563 587 521 590 562 b 557 563 578 563 567 562 z m 424 468 b 428 494 427 476 430 486 b 418 505 427 499 422 509 b 404 443 406 491 406 462 b 424 468 413 450 420 458 z m 1136 625 b 573 1188 1136 936 884 1188 b 167 236 79 1189 -173 586 l 71 236 l 71 96 l 1078 96 l 1078 236 l 980 236 b 1136 625 1077 337 1136 474 z m 1017 198 b 1016 127 1067 198 1064 125 b 1017 198 967 127 970 199 z m 639 869 b 694 857 646 909 701 899 b 694 856 694 857 694 856 b 644 835 695 826 663 810 b 639 869 638 845 637 857 z m 627 736 b 634 797 629 766 627 768 b 687 790 642 827 688 820 b 678 693 683 758 679 725 b 682 666 678 685 677 673 b 702 675 688 658 699 670 b 716 709 708 685 712 698 b 729 813 728 743 729 778 b 753 837 730 826 740 837 b 777 813 767 837 776 826 b 780 736 779 787 779 762 b 853 838 790 772 804 843 b 878 757 886 826 879 784 b 874 696 878 737 874 717 b 886 667 874 686 875 671 b 925 684 900 663 916 675 b 958 840 961 726 975 788 b 875 883 949 864 903 913 b 842 864 860 867 853 838 b 846 902 839 873 838 886 b 973 884 875 950 947 921 b 894 627 1035 802 997 656 b 829 790 797 604 821 732 b 826 799 829 791 830 805 b 803 741 814 783 809 760 b 786 674 796 719 791 696 b 758 631 782 657 779 634 b 728 658 742 629 730 643 b 728 676 728 664 728 671 b 661 631 717 647 697 617 b 627 736 621 648 625 700 z m 437 1035 b 590 974 493 1066 563 1026 b 612 733 627 902 618 811 b 533 628 610 687 594 613 b 495 674 512 635 501 654 b 414 649 485 628 445 607 b 395 726 398 671 397 701 b 393 813 393 755 393 784 b 421 840 394 828 406 840 b 449 813 436 841 449 827 b 448 743 449 788 448 768 b 465 673 449 724 443 672 b 482 704 474 675 480 694 b 495 791 486 721 488 770 b 537 787 504 809 537 807 b 538 704 537 763 538 721 b 579 690 539 666 570 646 b 531 990 588 779 605 925 b 428 962 494 1022 439 1007 b 402 984 425 950 399 957 b 437 1035 405 1011 421 1027 z m 161 873 b 384 937 203 937 315 935 b 508 907 422 937 480 938 b 514 892 512 903 515 898 b 474 880 511 875 485 879 b 364 884 437 882 401 885 b 358 741 360 836 358 789 b 373 560 354 680 357 619 b 349 550 376 546 357 548 b 301 725 286 569 302 674 b 307 881 301 777 303 829 b 304 881 306 881 305 881 b 190 855 287 879 182 880 b 234 852 197 846 225 851 b 234 822 253 853 253 824 b 175 829 215 821 193 818 b 161 873 160 838 153 857 z m 150 183 l 129 183 l 129 128 l 113 128 l 113 183 l 92 183 l 92 196 l 150 196 z m 220 128 l 204 128 l 204 157 l 175 157 l 175 128 l 159 128 l 159 196 l 175 196 l 175 170 l 204 170 l 204 196 l 220 196 z m 250 128 l 234 128 l 234 196 l 250 196 z m 283 127 b 262 132 275 127 266 129 l 265 145 b 296 147 271 141 295 135 b 284 156 296 151 292 154 b 263 177 271 160 263 166 b 310 194 262 198 294 202 l 306 181 b 290 185 303 182 297 185 b 293 169 275 184 275 173 b 283 127 323 161 318 126 z m 392 183 l 362 183 l 362 168 l 390 168 l 390 155 l 362 155 l 362 128 l 346 128 l 346 196 l 392 196 z m 436 127 b 437 198 387 126 390 199 b 436 127 487 198 484 125 z m 529 128 b 499 180 520 143 506 164 l 499 180 b 499 128 500 164 499 144 l 484 128 l 484 196 l 504 196 b 532 147 513 183 526 163 l 532 147 b 531 196 531 163 531 181 l 546 196 l 546 128 z m 613 183 l 592 183 l 592 128 l 576 128 l 576 183 l 555 183 l 555 196 l 613 196 z m 659 128 l 643 128 l 643 196 l 659 196 z m 692 127 b 671 132 684 127 675 129 l 674 145 b 705 147 680 141 704 135 b 692 156 705 151 701 154 b 672 177 680 160 672 166 b 718 194 671 198 703 202 l 715 181 b 699 185 712 182 706 185 b 702 169 684 184 684 173 b 692 127 732 161 727 126 z m 809 137 b 755 128 799 127 769 126 l 755 195 b 809 189 770 198 798 198 b 809 137 826 180 824 146 z m 880 128 l 832 128 l 832 196 l 878 196 l 878 183 l 848 183 l 848 170 l 877 170 l 877 157 l 848 157 l 848 141 l 880 141 z m 955 128 b 953 185 954 146 953 166 l 953 185 b 935 129 949 169 941 146 l 922 129 l 914 156 b 908 185 912 165 910 175 l 907 185 b 905 128 907 167 906 145 l 890 128 l 894 196 l 917 196 l 924 174 b 930 150 926 167 928 158 l 930 150 b 945 196 934 164 940 182 l 968 196 l 971 128 l 955 128 z m 955 266 b 794 276 903 301 835 279 b 231 247 606 260 420 230 b 234 283 209 249 210 286 b 793 301 421 257 608 280 b 972 275 821 304 975 338 b 955 266 972 262 965 260 z m 833 552 b 638 561 768 552 699 559 b 635 426 641 517 635 471 b 641 374 634 410 633 385 b 675 396 653 358 671 387 b 740 530 700 438 693 503 b 790 511 759 539 782 531 b 744 423 803 476 773 439 b 742 406 742 422 742 411 b 760 369 743 393 746 373 b 817 452 791 361 815 423 b 809 510 817 472 815 491 b 810 529 808 516 804 524 b 864 510 827 542 857 526 b 872 482 869 501 871 492 b 902 527 879 499 886 517 b 954 516 919 536 941 530 b 916 416 985 485 976 380 b 907 437 911 419 902 433 b 926 455 914 442 922 447 b 925 484 930 464 928 475 b 891 474 914 517 896 497 b 866 351 876 434 869 394 b 855 330 865 345 863 332 b 827 349 844 328 833 341 b 816 387 820 360 816 374 b 747 333 803 361 779 332 b 695 390 717 334 697 362 b 588 398 672 314 595 317 b 562 350 582 381 574 363 b 478 392 526 314 481 347 b 407 333 465 364 442 332 b 361 368 387 334 368 348 b 353 360 359 365 356 362 b 219 371 307 320 242 317 b 218 573 196 434 217 508 b 208 640 219 595 215 619 b 211 653 207 645 206 650 b 265 634 228 666 257 651 b 270 544 278 608 272 572 b 264 409 269 499 264 454 b 278 369 264 396 262 373 b 328 385 295 364 316 373 b 371 499 357 416 352 463 b 450 511 385 532 432 551 b 404 423 464 477 433 439 b 403 406 402 422 403 411 b 420 369 403 393 406 374 b 460 398 438 363 452 385 b 475 470 472 419 474 446 b 477 565 475 477 478 565 b 414 564 456 565 435 565 b 414 584 402 564 402 583 b 476 587 435 585 456 586 b 475 602 476 592 476 597 b 519 608 473 628 512 631 b 523 589 521 601 522 595 b 587 589 543 590 567 589 b 586 602 586 593 586 597 b 629 608 583 628 622 631 b 633 590 631 602 632 596 b 815 593 678 591 792 593 b 962 623 876 592 918 603 b 976 619 969 627 978 631 b 833 552 966 547 879 550 z m 1017 139 b 1017 185 1043 138 1043 186 b 1017 139 992 186 992 139 z m 437 185 b 437 139 412 186 412 139 b 437 185 463 138 463 186 z m 779 185 b 771 184 775 185 772 184 l 771 140 b 804 163 788 138 805 145 b 779 185 804 178 794 185 z "},"#":{"ha":1264,"x_min":0,"x_max":0,"o":"m 208 69 b 205 52 207 63 205 57 l 204 52 b 195 88 203 62 198 78 l 182 88 b 173 52 180 78 175 63 l 173 52 b 165 88 171 63 168 78 l 149 88 l 164 39 l 180 39 b 188 71 183 49 187 60 l 188 71 b 197 39 190 61 194 49 l 212 39 l 228 88 l 212 88 z m 291 69 b 288 52 290 63 289 57 l 288 52 b 279 88 286 62 281 78 l 266 88 b 257 52 263 78 259 63 l 256 52 b 249 88 255 63 251 78 l 233 88 l 248 39 l 263 39 b 272 71 266 49 270 60 l 272 71 b 280 39 274 61 278 49 l 296 39 l 312 88 l 296 88 z m 375 69 b 372 52 374 63 372 57 l 371 52 b 362 88 370 62 365 78 l 349 88 b 340 52 347 78 342 63 l 340 52 b 332 88 338 63 335 78 l 316 88 l 331 39 l 347 39 b 355 71 350 49 354 60 l 355 71 b 364 39 357 61 361 49 l 379 39 l 395 88 l 379 88 z m 406 56 b 406 37 394 57 393 37 b 416 47 412 37 416 41 b 406 56 415 52 412 56 z m 443 102 l 427 98 l 427 88 l 420 88 l 420 76 l 427 76 b 432 42 428 68 425 48 b 455 39 435 37 449 37 l 454 51 b 443 60 448 49 442 51 l 443 76 l 455 76 l 455 88 l 443 88 l 443 102 z m 519 69 b 515 52 517 63 516 57 l 515 52 b 506 88 513 62 509 78 l 493 88 b 484 52 490 78 486 63 l 483 52 b 476 88 482 63 478 78 l 460 88 l 475 39 l 490 39 b 499 71 493 49 497 60 l 499 71 b 507 39 501 61 505 49 l 523 39 l 539 88 l 523 88 z m 555 110 b 555 94 544 110 543 94 b 563 102 560 94 563 98 b 555 110 563 107 560 110 z m 563 39 l 563 88 l 547 88 l 547 39 z m 607 89 b 591 81 598 89 593 84 l 591 81 l 590 88 l 576 88 b 576 39 576 79 576 49 l 592 39 b 593 70 593 41 592 69 b 610 65 597 80 612 78 l 610 39 l 627 39 l 627 67 b 607 89 627 83 618 89 z m 656 39 l 656 111 l 640 111 l 640 39 z m 693 89 b 666 63 674 89 666 74 b 714 41 665 39 695 33 l 712 52 b 682 58 703 49 683 47 l 716 58 b 693 89 719 72 713 89 z m 681 69 b 702 69 683 82 702 82 z m 744 102 l 729 98 l 729 88 l 722 88 l 722 76 l 729 76 b 733 42 729 68 726 48 b 756 39 737 37 751 37 l 756 51 b 744 60 749 49 743 51 l 744 76 l 756 76 l 756 88 l 744 88 l 744 102 z m 783 102 l 768 98 l 768 88 l 761 88 l 761 76 l 768 76 b 772 42 768 68 766 48 b 795 39 776 37 790 37 l 795 51 b 783 60 788 49 783 51 l 783 76 l 795 76 l 795 88 l 783 88 l 783 102 z m 828 89 b 801 63 809 89 801 74 b 849 41 800 39 830 33 l 847 52 b 816 58 838 49 818 47 l 851 58 b 828 89 853 72 848 89 z m 816 69 b 837 69 818 82 837 82 z m 876 78 l 875 78 l 875 88 l 861 88 b 861 39 862 80 861 49 l 877 39 b 878 67 877 40 877 66 b 894 74 878 73 887 76 l 894 89 b 876 78 887 90 879 88 z m 903 56 b 903 37 891 57 891 37 b 913 47 909 37 913 41 b 903 56 913 52 909 56 z m 951 50 b 936 64 943 50 936 54 b 960 75 935 76 951 80 l 963 87 b 963 40 904 103 906 21 l 961 52 b 951 50 958 51 955 50 z m 997 89 b 996 37 958 90 959 37 b 997 89 1032 36 1035 89 z m 996 49 b 996 78 982 48 980 78 b 996 49 1012 78 1010 47 z m 1097 89 b 1079 80 1089 89 1084 86 l 1079 80 b 1049 81 1074 94 1053 90 l 1048 81 l 1048 88 l 1034 88 b 1035 39 1035 79 1034 49 l 1050 39 l 1050 67 b 1059 77 1050 71 1052 76 b 1067 65 1064 77 1067 73 l 1067 39 l 1082 39 b 1083 71 1083 42 1082 69 b 1099 65 1087 80 1100 78 l 1099 39 l 1115 39 l 1115 67 b 1097 89 1115 83 1106 89 z m 339 148 l 339 154 l 319 154 l 319 148 z m 383 164 b 391 162 387 164 390 163 l 393 167 b 393 130 352 182 352 114 l 392 136 b 369 149 383 131 368 135 b 383 164 369 157 374 164 z m 436 149 b 398 148 437 176 397 176 b 436 149 397 122 436 121 z m 417 133 b 417 164 402 133 400 164 b 417 133 434 163 432 133 z m 470 153 l 470 129 l 477 129 l 477 153 b 486 164 477 159 481 163 b 495 151 492 164 495 159 l 495 129 l 502 129 l 502 152 b 476 161 502 173 483 174 l 476 161 b 452 162 472 172 456 171 l 452 162 l 452 168 l 445 168 b 446 129 446 162 445 136 l 453 129 b 453 156 453 131 452 155 b 470 153 456 167 471 165 z m 514 113 l 521 113 l 521 134 l 521 134 b 551 149 531 121 552 129 b 534 169 551 161 544 169 b 520 162 528 169 523 166 l 520 162 l 520 168 l 513 168 b 514 113 514 160 514 122 z m 521 152 b 532 164 521 158 526 164 b 532 134 548 164 547 133 b 521 142 527 134 522 137 b 521 152 521 144 521 150 z m 567 129 l 567 187 l 560 187 l 560 129 z m 576 139 b 600 134 576 127 594 125 l 601 134 l 601 129 l 608 129 b 607 153 607 134 607 147 b 579 166 608 169 592 174 l 581 161 b 600 154 589 166 601 165 b 576 139 585 154 576 149 z m 600 149 b 590 133 601 142 600 134 b 583 140 586 133 583 136 b 600 149 583 148 592 149 z m 627 178 l 620 176 l 620 168 l 614 168 l 614 163 l 620 163 b 623 131 621 156 618 136 b 637 129 625 127 633 127 l 637 135 b 627 142 632 133 626 135 l 627 163 l 637 163 l 637 168 l 627 168 z m 673 136 b 649 147 665 132 649 132 l 677 147 b 661 169 678 156 675 169 b 642 148 649 169 642 160 b 675 131 641 129 662 124 z m 660 164 b 670 152 668 164 670 157 l 649 152 b 660 164 650 158 653 164 z m 702 136 l 700 131 b 726 140 709 125 727 128 b 716 152 726 146 723 149 b 715 164 707 154 706 163 b 723 162 719 164 722 163 l 725 167 b 702 158 717 172 701 168 b 712 147 702 153 705 149 b 712 133 722 144 722 134 b 702 136 708 133 704 135 z m 768 151 b 751 169 768 158 764 169 b 733 148 740 169 733 160 b 765 131 732 129 752 124 l 764 136 b 740 147 755 132 739 132 l 767 147 b 768 151 767 148 768 149 z m 740 153 b 761 153 741 168 761 168 z m 785 178 l 778 176 l 778 168 l 772 168 l 772 163 l 778 163 b 781 131 779 156 776 136 b 795 129 783 127 792 127 l 795 135 b 785 142 790 133 784 135 l 785 163 l 795 163 l 795 168 l 785 168 z m 838 169 b 837 128 812 170 811 128 b 838 169 861 127 865 169 z m 837 133 b 837 164 822 133 821 164 b 837 133 854 163 852 133 z m 899 129 l 899 152 b 872 162 899 173 879 173 l 872 162 l 872 168 l 865 168 b 866 129 866 162 866 136 l 873 129 b 873 156 873 131 872 154 b 892 152 877 168 893 165 l 892 129 z m 945 148 l 945 154 l 925 154 l 925 148 z m 822 585 b 826 611 825 593 828 602 b 816 622 825 616 821 625 b 802 560 804 607 804 579 b 822 585 811 566 818 575 z m 615 679 b 585 679 607 680 594 679 b 583 543 589 634 583 588 b 589 491 582 527 581 502 b 623 513 601 474 619 504 b 639 567 632 529 636 549 b 646 634 644 589 645 612 b 646 679 646 637 648 679 b 615 679 636 679 625 679 z m 482 585 b 486 611 485 593 488 602 b 476 622 485 616 481 625 b 463 560 464 607 464 579 b 482 585 471 566 478 575 z m 1194 742 b 632 1304 1194 1052 943 1304 b 226 352 137 1306 -115 702 l 129 352 l 129 213 l 1136 213 l 1136 352 l 1038 352 b 1194 742 1135 453 1194 591 z m 1076 314 b 1075 244 1125 315 1123 242 b 1076 314 1026 243 1029 315 z m 697 985 b 752 974 704 1026 759 1016 b 752 973 752 973 752 973 b 702 952 753 943 722 927 b 697 985 696 962 696 974 z m 685 853 b 693 913 687 882 685 885 b 746 906 701 943 747 937 b 737 810 742 874 737 842 b 741 782 736 801 735 790 b 760 791 747 775 757 787 b 774 826 767 802 770 814 b 788 930 786 859 787 895 b 812 954 788 943 798 954 b 836 930 825 954 835 942 b 838 853 838 904 838 879 b 912 954 849 889 862 960 b 937 874 944 943 937 901 b 933 813 936 853 933 833 b 945 784 933 803 933 787 b 984 800 959 779 975 791 b 1017 956 1020 842 1033 904 b 934 1000 1008 981 962 1030 b 901 981 918 984 912 954 b 905 1019 897 990 896 1002 b 1032 1001 934 1066 1005 1038 b 953 743 1093 919 1056 772 b 887 906 856 721 880 849 b 884 916 888 908 889 922 b 861 858 872 899 867 877 b 844 790 854 836 849 813 b 817 748 840 774 838 750 b 787 775 800 745 788 759 b 787 793 787 780 787 787 b 720 748 776 763 756 733 b 685 853 680 764 683 817 z m 495 1152 b 648 1091 551 1183 621 1143 b 671 849 685 1019 676 928 b 591 745 669 804 653 730 b 554 790 570 751 559 771 b 472 766 543 744 504 723 b 453 843 457 787 455 817 b 452 929 451 872 452 901 b 480 957 452 945 464 956 b 507 929 494 958 507 944 b 506 860 507 905 507 884 b 523 790 508 841 501 789 b 540 820 533 791 538 811 b 554 907 545 838 547 887 b 595 904 562 926 596 923 b 597 821 595 880 597 837 b 638 807 597 782 628 763 b 590 1106 647 896 664 1042 b 487 1078 552 1139 497 1123 b 460 1101 484 1067 458 1074 b 495 1152 463 1128 480 1143 z m 219 990 b 442 1054 261 1054 373 1052 b 567 1024 480 1054 538 1054 b 572 1008 571 1019 573 1014 b 532 997 570 992 544 996 b 422 1000 496 999 459 1002 b 416 858 419 953 416 905 b 431 677 413 797 415 736 b 407 667 434 663 415 665 b 359 842 344 685 361 791 b 365 998 360 894 362 946 b 362 997 364 998 363 997 b 248 972 346 996 240 997 b 293 969 255 963 283 968 b 293 939 312 970 312 941 b 234 945 274 937 251 935 b 219 990 219 955 212 973 z m 188 300 l 188 245 l 171 245 l 171 300 l 151 300 l 151 313 l 208 313 l 208 300 z m 278 245 l 262 245 l 262 273 l 233 273 l 233 245 l 217 245 l 217 313 l 233 313 l 233 287 l 262 287 l 262 313 l 278 313 z m 309 245 l 292 245 l 292 313 l 309 313 z m 342 244 b 320 248 333 244 325 246 l 324 261 b 354 264 329 258 354 252 b 342 273 354 268 351 270 b 321 294 330 276 321 282 b 368 310 320 314 353 318 l 364 298 b 348 301 361 299 356 301 b 351 285 334 301 333 290 b 342 244 381 278 376 243 z m 450 300 l 420 300 l 420 285 l 448 285 l 448 272 l 420 272 l 420 245 l 404 245 l 404 313 l 450 313 z m 495 244 b 496 314 446 243 448 315 b 495 244 545 315 543 242 z m 605 245 l 587 245 b 558 297 578 260 565 281 l 557 297 b 558 245 558 281 558 261 l 543 245 l 543 313 l 563 313 b 591 264 571 299 585 279 l 591 264 b 590 313 589 279 590 298 l 605 313 z m 671 300 l 650 300 l 650 245 l 634 245 l 634 300 l 613 300 l 613 313 l 671 313 z m 717 245 l 701 245 l 701 313 l 717 313 z m 750 244 b 729 248 742 244 733 246 l 733 261 b 763 264 738 258 763 252 b 751 273 763 268 760 270 b 730 294 739 276 730 282 b 777 310 729 314 762 318 l 773 298 b 757 301 770 299 765 301 b 760 285 742 301 742 290 b 750 244 790 278 785 243 z m 868 254 b 813 245 858 243 827 243 l 813 312 b 867 306 828 315 857 315 b 868 254 884 297 882 263 z m 891 245 l 891 313 l 937 313 l 937 300 l 907 300 l 907 286 l 935 286 l 935 273 l 907 273 l 907 258 l 938 258 l 938 245 z m 1013 245 b 1012 302 1013 263 1012 283 l 1011 302 b 994 246 1007 285 999 262 l 981 246 l 973 273 b 966 302 970 282 968 292 l 966 302 b 963 245 965 284 964 262 l 948 245 l 952 313 l 975 313 l 982 291 b 988 266 984 283 987 274 l 989 266 b 1004 313 992 281 999 299 l 1026 313 l 1030 245 l 1013 245 z m 1014 383 b 852 392 961 417 893 396 b 290 363 665 377 478 347 b 293 400 267 365 269 403 b 852 417 479 373 666 397 b 1031 392 880 420 1034 454 b 1014 383 1030 379 1023 376 z m 891 668 b 697 678 826 669 757 676 b 693 543 699 633 693 588 b 699 491 692 527 691 502 b 734 513 711 474 729 504 b 798 646 758 555 751 620 b 848 627 817 656 840 648 b 802 540 862 593 831 555 b 801 522 800 539 801 528 b 818 485 801 510 804 490 b 875 569 849 477 873 540 b 868 626 875 588 873 607 b 868 645 866 633 862 641 b 923 627 885 658 915 643 b 930 599 927 618 929 608 b 961 643 937 615 944 634 b 1012 632 977 652 1000 646 b 974 533 1043 602 1034 497 b 965 553 970 536 960 549 b 984 572 972 558 980 564 b 983 601 988 581 987 592 b 949 591 972 633 954 614 b 924 468 934 550 928 511 b 913 447 924 461 921 449 b 886 465 903 444 891 458 b 874 504 878 476 875 490 b 805 450 861 478 838 448 b 753 506 776 451 756 478 b 646 515 731 430 653 434 b 620 466 640 498 632 479 b 537 508 584 431 539 464 b 466 450 524 481 500 448 b 419 484 445 451 426 465 b 411 476 417 481 414 478 b 277 487 366 436 300 433 b 276 689 254 551 275 624 b 266 757 277 712 273 735 b 269 770 265 762 265 766 b 323 751 286 782 316 767 b 329 661 336 725 330 689 b 322 525 327 616 322 571 b 336 486 322 513 320 490 b 386 502 353 481 374 490 b 429 616 415 533 410 580 b 508 627 443 649 490 668 b 462 540 522 593 492 556 b 461 522 460 539 461 528 b 478 486 461 510 464 490 b 518 514 496 480 510 501 b 533 586 530 536 532 562 b 536 681 533 594 536 681 b 472 681 515 681 493 681 b 472 700 460 681 460 699 b 535 704 493 702 514 703 b 534 718 534 709 534 714 b 577 724 531 744 570 747 b 582 706 579 718 580 712 b 645 705 601 706 626 706 b 644 719 645 710 644 714 b 687 724 641 744 681 747 b 692 706 689 718 691 712 b 873 710 736 708 850 710 b 1020 740 934 709 977 720 b 1035 735 1027 743 1036 748 b 891 668 1024 664 937 666 z m 1075 256 b 1075 302 1101 255 1101 302 b 1075 256 1050 303 1050 255 z m 495 302 b 495 256 470 303 470 255 b 495 302 521 255 521 302 z m 838 301 b 829 301 833 301 831 301 l 829 257 b 863 280 846 254 863 262 b 838 301 863 294 853 301 z "},"$":{"ha":1264,"x_min":0,"x_max":0,"o":"m 208 -71 b 205 -88 207 -77 205 -82 l 205 -88 b 195 -52 203 -78 198 -62 l 182 -52 b 173 -88 180 -62 175 -77 l 173 -88 b 165 -52 171 -77 168 -62 l 149 -52 l 164 -101 l 180 -101 b 188 -68 183 -91 187 -79 l 188 -68 b 197 -101 190 -79 194 -91 l 212 -101 l 228 -52 l 213 -52 z m 291 -71 b 288 -88 290 -77 289 -82 l 288 -88 b 279 -52 286 -78 281 -62 l 266 -52 b 256 -88 263 -62 259 -77 l 256 -88 b 249 -52 255 -77 251 -62 l 232 -52 l 248 -101 l 263 -101 b 272 -68 266 -91 270 -79 l 272 -68 b 280 -101 274 -79 278 -91 l 296 -101 l 312 -52 l 296 -52 z m 375 -71 b 372 -88 374 -77 372 -82 l 371 -88 b 362 -52 370 -78 365 -62 l 349 -52 b 340 -88 347 -62 342 -77 l 340 -88 b 332 -52 338 -77 335 -62 l 316 -52 l 331 -101 l 347 -101 b 355 -68 350 -91 354 -79 l 355 -68 b 364 -101 357 -79 361 -91 l 379 -101 l 395 -52 l 379 -52 z m 406 -83 b 406 -102 393 -83 393 -103 b 415 -93 412 -102 415 -98 b 406 -83 415 -87 412 -83 z m 443 -38 l 427 -42 l 427 -52 l 421 -52 l 421 -64 l 427 -64 b 432 -98 428 -72 425 -92 b 455 -101 435 -103 449 -103 l 454 -89 b 443 -80 448 -90 442 -89 l 443 -64 l 455 -64 l 455 -52 l 443 -52 z m 519 -71 b 515 -88 517 -77 516 -82 l 515 -88 b 506 -52 513 -78 509 -62 l 493 -52 b 484 -88 490 -62 486 -77 l 483 -88 b 476 -52 482 -77 478 -62 l 460 -52 l 475 -101 l 490 -101 b 499 -68 493 -91 497 -79 l 499 -68 b 507 -101 501 -79 505 -91 l 523 -101 l 539 -52 l 523 -52 z m 555 -30 b 555 -45 544 -29 543 -46 b 564 -38 560 -46 564 -42 b 555 -30 563 -33 560 -30 z m 563 -101 l 563 -52 l 547 -52 l 547 -101 z m 607 -50 b 591 -59 598 -50 593 -56 l 590 -59 l 590 -52 l 576 -52 b 576 -101 576 -61 576 -91 l 592 -101 b 593 -69 592 -99 592 -71 b 610 -75 597 -59 612 -62 l 610 -101 l 626 -101 l 626 -72 b 607 -50 627 -57 618 -50 z m 656 -101 l 656 -29 l 640 -29 l 640 -101 z m 693 -50 b 666 -77 674 -50 666 -66 b 714 -99 665 -101 695 -107 l 712 -88 b 682 -81 703 -91 683 -93 l 716 -81 b 693 -50 719 -68 713 -51 z m 681 -70 b 702 -70 683 -58 702 -58 z m 744 -38 l 729 -42 l 729 -52 l 722 -52 l 722 -64 l 729 -64 b 733 -98 729 -72 727 -92 b 756 -101 737 -103 751 -103 l 756 -89 b 744 -80 749 -90 744 -89 l 744 -64 l 756 -64 l 756 -52 l 744 -52 z m 783 -38 l 768 -42 l 768 -52 l 761 -52 l 761 -64 l 768 -64 b 772 -98 768 -72 766 -92 b 795 -101 776 -103 790 -103 l 795 -89 b 783 -80 788 -90 783 -89 l 783 -64 l 795 -64 l 795 -52 l 783 -52 l 783 -38 z m 828 -50 b 801 -77 809 -50 801 -66 b 849 -99 800 -101 830 -107 l 847 -88 b 816 -81 838 -91 818 -93 l 851 -81 b 828 -50 854 -68 848 -51 z m 816 -70 b 837 -70 818 -58 837 -58 z m 876 -61 l 875 -61 l 875 -52 l 861 -52 b 861 -101 862 -60 861 -91 l 877 -101 b 878 -73 878 -100 877 -74 b 894 -66 878 -67 887 -64 l 894 -51 b 876 -61 887 -49 879 -52 z m 903 -83 b 903 -102 891 -83 891 -103 b 913 -93 909 -102 913 -98 b 903 -83 913 -87 909 -83 z m 951 -90 b 936 -76 943 -90 936 -85 b 960 -64 935 -64 951 -60 l 963 -53 b 963 -100 904 -36 906 -119 l 961 -88 b 951 -90 958 -89 955 -90 z m 997 -50 b 996 -102 958 -50 959 -103 b 997 -50 1032 -104 1035 -50 z m 996 -91 b 996 -62 982 -92 980 -61 b 996 -91 1012 -61 1010 -92 z m 1097 -50 b 1079 -59 1089 -50 1084 -53 l 1079 -59 b 1049 -59 1074 -46 1053 -49 l 1048 -59 l 1048 -52 l 1034 -52 b 1034 -101 1035 -61 1034 -91 l 1050 -101 l 1050 -73 b 1059 -63 1050 -68 1052 -64 b 1067 -74 1064 -63 1067 -67 l 1067 -101 l 1082 -101 b 1083 -69 1082 -98 1082 -71 b 1099 -75 1087 -59 1100 -62 l 1099 -101 l 1114 -101 l 1114 -73 b 1097 -50 1115 -57 1106 -50 z m 339 9 l 339 14 l 319 14 l 319 9 z m 383 24 b 391 22 387 24 390 23 l 393 27 b 393 -9 352 42 352 -26 l 391 -4 b 369 9 382 -9 368 -5 b 383 24 369 17 374 24 z m 436 9 b 398 9 437 36 397 36 b 436 9 397 -18 437 -19 z m 417 -6 b 417 24 402 -7 400 24 b 417 -6 434 24 432 -7 z m 470 13 l 470 -11 l 477 -11 l 477 14 b 486 24 477 19 481 24 b 495 12 492 24 495 19 l 495 -11 l 502 -11 l 502 12 b 476 22 502 33 483 34 l 476 22 b 452 22 472 33 456 31 l 452 22 l 451 29 l 445 29 b 446 -11 446 22 445 -3 l 453 -11 b 453 16 453 -8 452 15 b 470 13 456 27 471 26 z m 521 -27 l 521 -6 l 521 -6 b 551 9 531 -19 552 -10 b 534 30 551 21 544 30 b 520 22 528 30 523 27 l 520 22 l 520 29 l 513 29 b 514 -27 514 20 513 -18 z m 521 12 b 532 24 521 18 526 24 b 532 -6 548 24 547 -7 b 521 2 527 -6 522 -3 b 521 12 520 4 521 10 z m 567 -11 l 567 47 l 560 47 l 560 -11 z m 576 0 b 600 -6 576 -13 594 -15 l 601 -6 l 601 -11 l 608 -11 b 607 13 607 -5 607 8 b 579 26 608 29 592 34 l 581 21 b 600 14 589 27 601 25 b 576 0 585 14 576 9 z m 600 9 b 590 -6 601 2 600 -6 b 583 0 587 -6 583 -4 b 600 9 583 8 592 9 z m 627 38 l 620 36 l 620 29 l 614 29 l 614 23 l 620 23 b 623 -9 621 17 618 -4 b 637 -11 625 -12 634 -12 l 637 -5 b 627 2 632 -7 626 -5 l 627 23 l 637 23 l 637 29 l 627 29 z m 673 -4 b 649 8 665 -8 649 -7 l 677 8 b 661 30 678 16 675 29 b 642 8 649 30 642 20 b 675 -9 641 -10 661 -16 z m 660 24 b 670 13 668 24 670 17 l 649 13 b 660 24 650 18 653 24 z m 702 -4 l 700 -9 b 726 0 709 -15 727 -12 b 716 12 726 6 723 9 b 715 24 706 14 706 23 b 723 22 719 24 722 23 l 725 27 b 702 18 717 32 701 29 b 712 7 702 13 705 9 b 712 -6 722 4 722 -6 b 702 -4 708 -6 704 -5 z m 768 11 b 751 30 768 18 764 30 b 733 8 740 30 733 20 b 765 -9 732 -10 752 -16 l 764 -4 b 740 8 755 -8 739 -7 l 767 8 b 768 11 767 8 768 9 z m 740 13 b 761 13 741 28 761 28 z m 785 38 l 778 36 l 778 29 l 772 29 l 772 23 l 778 23 b 781 -9 779 17 776 -4 b 795 -11 783 -12 792 -12 l 795 -5 b 785 2 790 -7 784 -5 l 785 23 l 795 23 l 795 29 l 785 29 z m 838 30 b 837 -12 812 31 811 -12 b 838 30 861 -13 865 29 z m 837 -6 b 837 24 822 -7 821 24 b 837 -6 854 24 852 -7 z m 899 -11 l 899 13 b 872 22 899 34 879 33 l 872 22 l 872 29 l 865 29 b 866 -11 866 22 865 -3 l 873 -11 b 873 16 873 -9 872 15 b 892 12 877 28 893 25 l 892 -11 z m 945 9 l 945 14 l 925 14 l 925 9 z m 822 445 b 826 471 825 453 828 462 b 816 482 825 476 821 486 b 802 420 804 467 804 439 b 822 445 811 426 818 435 z m 615 540 b 585 539 607 540 594 539 b 583 403 589 495 583 448 b 589 351 582 387 581 362 b 623 373 601 335 619 364 b 639 427 632 389 636 409 b 646 495 644 449 645 472 b 646 539 646 497 648 539 b 615 540 636 540 625 539 z m 482 445 b 486 471 485 453 488 462 b 476 482 485 476 481 486 b 463 420 464 467 464 439 b 482 445 471 426 478 435 z m 1194 602 b 632 1164 1194 913 943 1164 b 226 212 137 1166 -115 563 l 129 212 l 129 73 l 1136 73 l 1136 212 l 1038 212 b 1194 602 1135 313 1194 451 z m 1076 174 b 1075 104 1125 175 1123 102 b 1076 174 1026 103 1029 176 z m 697 845 b 752 834 704 886 759 876 b 752 833 752 833 752 833 b 702 812 753 803 722 787 b 697 845 696 822 696 834 z m 685 713 b 693 774 687 743 685 745 b 746 767 701 803 747 797 b 737 670 742 735 737 702 b 741 643 736 662 735 650 b 760 652 747 635 757 647 b 774 686 767 662 771 675 b 788 790 786 720 787 755 b 812 814 788 803 798 814 b 836 790 825 814 835 803 b 838 713 838 764 838 739 b 912 814 849 749 863 820 b 937 734 944 803 937 761 b 933 673 936 714 933 693 b 945 644 933 663 933 648 b 984 661 958 639 975 652 b 1017 817 1020 703 1033 765 b 934 860 1008 841 962 890 b 901 841 918 844 912 814 b 905 879 897 850 896 862 b 1032 861 934 926 1005 898 b 953 604 1093 779 1056 633 b 887 766 856 581 880 709 b 884 776 888 768 889 782 b 861 718 872 760 867 737 b 844 650 854 696 849 673 b 817 608 840 634 838 611 b 787 635 800 605 788 619 b 787 653 787 640 787 648 b 720 608 776 623 756 594 b 685 713 680 625 683 677 z m 495 1012 b 648 951 551 1043 621 1003 b 671 710 685 879 676 788 b 591 605 669 664 653 590 b 554 651 570 612 559 631 b 472 626 543 604 504 583 b 453 703 457 647 455 678 b 452 790 451 732 451 761 b 479 817 452 805 464 817 b 507 790 494 818 507 804 b 506 720 507 765 506 744 b 523 650 508 701 501 649 b 540 681 533 652 538 671 b 554 768 545 698 546 747 b 595 764 562 786 596 784 b 597 681 595 740 597 698 b 637 667 597 643 628 623 b 589 967 647 756 664 902 b 487 938 552 999 497 983 b 460 961 484 927 458 934 b 495 1012 463 988 480 1004 z m 219 850 b 442 914 261 914 373 912 b 567 884 480 914 538 915 b 572 868 571 880 573 875 b 532 857 570 852 544 856 b 422 860 496 859 459 862 b 416 718 419 813 417 766 b 432 537 413 657 415 596 b 407 527 434 523 415 525 b 359 702 344 545 361 651 b 365 858 360 754 362 806 b 362 858 364 858 363 858 b 248 832 345 856 240 857 b 293 829 255 823 283 828 b 293 799 312 830 312 801 b 234 805 274 798 251 795 b 219 850 218 815 212 833 z m 208 160 l 187 160 l 187 105 l 171 105 l 171 160 l 151 160 l 151 173 l 208 173 z m 278 105 l 262 105 l 262 133 l 233 133 l 233 105 l 217 105 l 217 173 l 233 173 l 233 147 l 262 147 l 262 173 l 278 173 z m 309 105 l 292 105 l 292 173 l 309 173 z m 342 104 b 320 108 333 104 325 106 l 324 122 b 354 124 329 118 354 112 b 342 133 354 128 351 131 b 321 154 330 137 321 143 b 368 171 320 174 353 179 l 364 158 b 348 161 361 159 356 161 b 351 146 334 161 333 150 b 342 104 381 138 376 103 z m 450 160 l 420 160 l 420 145 l 448 145 l 448 132 l 420 132 l 420 105 l 404 105 l 404 173 l 450 173 z m 495 104 b 496 174 446 103 448 176 b 495 104 545 175 543 102 z m 605 105 l 587 105 b 558 157 578 120 565 141 l 557 157 b 558 105 558 141 558 121 l 543 105 l 543 173 l 563 173 b 591 124 571 159 585 139 l 591 124 b 590 173 589 139 590 158 l 605 173 z m 671 160 l 650 160 l 650 105 l 634 105 l 634 160 l 613 160 l 613 173 l 671 173 z m 717 105 l 701 105 l 701 173 l 717 173 z m 750 104 b 729 108 742 104 733 106 l 733 122 b 763 124 738 118 763 112 b 751 133 763 128 760 131 b 730 154 739 137 730 143 b 777 171 729 174 761 179 l 773 158 b 757 161 770 159 764 161 b 760 146 742 161 742 150 b 750 104 790 138 785 103 z m 868 114 b 813 105 858 104 827 103 l 813 172 b 867 166 828 175 857 175 b 868 114 884 157 882 123 z m 891 105 l 891 173 l 937 173 l 937 160 l 907 160 l 907 147 l 935 147 l 935 133 l 907 133 l 907 118 l 938 118 l 938 105 z m 1013 105 b 1012 162 1013 123 1012 143 l 1012 162 b 994 106 1007 145 999 122 l 981 106 l 973 133 b 966 162 970 142 968 152 l 966 162 b 963 105 965 144 964 122 l 948 105 l 952 173 l 975 173 l 982 151 b 988 126 984 143 987 135 l 989 126 b 1004 173 992 141 999 159 l 1026 173 l 1029 105 l 1013 105 z m 1014 243 b 852 253 961 277 893 256 b 290 223 665 237 478 207 b 293 260 267 226 269 263 b 852 278 479 234 666 257 b 1031 252 880 281 1034 314 b 1014 243 1030 239 1023 237 z m 891 528 b 696 538 826 529 757 536 b 693 403 699 493 693 448 b 699 351 692 387 691 362 b 734 373 711 334 729 364 b 798 507 758 415 751 480 b 848 487 817 516 840 508 b 802 400 862 453 831 416 b 801 382 800 399 801 388 b 818 346 801 370 804 350 b 875 429 849 337 873 400 b 868 486 875 449 873 468 b 868 506 866 493 862 501 b 923 487 885 518 915 503 b 930 459 927 478 929 469 b 960 503 937 476 944 494 b 1012 492 977 513 1000 506 b 974 393 1043 462 1034 357 b 965 413 970 396 960 410 b 984 432 972 419 980 424 b 983 461 988 441 987 452 b 949 451 972 493 954 474 b 924 328 934 411 928 371 b 913 307 924 321 921 309 b 886 325 903 304 891 318 b 874 364 878 337 875 350 b 805 310 861 338 838 309 b 753 367 776 311 756 339 b 646 375 731 290 653 294 b 621 326 640 358 632 340 b 537 369 584 291 540 324 b 466 310 524 341 500 309 b 419 345 445 311 426 325 b 412 336 417 342 415 339 b 277 348 366 297 300 294 b 276 549 254 411 275 484 b 266 617 277 572 273 595 b 269 630 265 622 265 626 b 323 611 286 642 316 627 b 329 521 336 585 330 549 b 322 386 327 476 322 431 b 336 346 322 373 320 350 b 386 362 353 341 374 350 b 429 476 415 393 410 440 b 508 488 443 509 490 528 b 462 400 522 453 492 416 b 461 383 460 399 461 388 b 478 346 461 370 464 350 b 518 375 496 340 510 361 b 533 447 530 396 532 422 b 536 542 533 454 536 542 b 472 541 515 542 493 541 b 472 560 460 541 460 560 b 535 564 493 562 514 563 b 534 579 534 569 534 574 b 577 585 531 604 570 608 b 582 566 579 578 580 572 b 645 565 601 566 626 566 b 644 579 645 570 644 574 b 688 585 642 604 681 608 b 692 567 689 579 691 573 b 873 570 736 568 850 570 b 1020 600 934 569 977 580 b 1035 595 1027 604 1036 608 b 891 528 1024 524 937 526 z m 1075 116 b 1075 162 1101 115 1101 163 b 1075 116 1050 163 1050 115 z m 495 162 b 495 116 470 163 470 115 b 495 162 521 115 521 163 z m 838 162 b 829 161 833 162 831 161 l 829 117 b 863 140 846 114 863 122 b 838 162 863 154 853 162 z "},"%":{"ha":1264,"x_min":0,"x_max":0,"o":"m 208 -38 b 205 -56 207 -44 205 -50 l 204 -56 b 195 -19 203 -45 198 -30 l 182 -19 b 173 -56 180 -30 175 -45 l 173 -56 b 165 -19 171 -45 168 -30 l 149 -19 l 164 -69 l 180 -69 b 188 -36 183 -59 187 -47 l 188 -36 b 197 -69 190 -46 194 -59 l 212 -69 l 228 -19 l 212 -19 z m 291 -38 b 288 -56 290 -44 289 -50 l 288 -56 b 279 -19 286 -45 281 -30 l 266 -19 b 256 -56 263 -30 258 -45 l 256 -56 b 249 -19 255 -45 251 -30 l 232 -19 l 248 -69 l 263 -69 b 272 -36 266 -59 270 -47 l 272 -36 b 280 -69 273 -46 277 -59 l 296 -69 l 312 -19 l 296 -19 z m 375 -38 b 372 -56 374 -44 372 -50 l 371 -56 b 362 -19 369 -45 365 -30 l 349 -19 b 340 -56 347 -30 342 -45 l 340 -56 b 332 -19 338 -45 334 -30 l 316 -19 l 331 -69 l 347 -69 b 355 -36 349 -59 354 -47 l 355 -36 b 364 -69 357 -46 361 -59 l 379 -69 l 395 -19 l 379 -19 z m 406 -51 b 406 -70 393 -50 393 -70 b 415 -60 412 -70 415 -66 b 406 -51 415 -55 412 -51 z m 443 -6 l 427 -10 l 427 -19 l 421 -19 l 421 -31 l 427 -31 b 432 -65 428 -40 425 -60 b 455 -69 435 -71 449 -71 l 454 -56 b 443 -48 448 -58 442 -57 l 443 -31 l 455 -31 l 455 -19 l 443 -19 l 443 -6 z m 519 -38 b 515 -56 517 -44 516 -50 l 515 -56 b 506 -19 513 -45 509 -30 l 493 -19 b 484 -56 490 -30 486 -45 l 483 -56 b 476 -19 482 -45 478 -30 l 460 -19 l 475 -69 l 490 -69 b 499 -36 493 -59 497 -47 l 499 -36 b 507 -69 501 -46 505 -59 l 523 -69 l 539 -19 l 523 -19 z m 555 3 b 555 -13 544 3 543 -13 b 563 -5 560 -13 563 -10 b 555 3 563 -1 560 3 z m 563 -69 l 563 -19 l 547 -19 l 547 -69 z m 607 -18 b 591 -26 598 -18 593 -23 l 590 -26 l 590 -19 l 576 -19 b 576 -69 576 -29 576 -58 l 592 -69 b 593 -37 593 -67 592 -38 b 610 -43 597 -27 612 -29 l 610 -69 l 626 -69 l 626 -40 b 607 -18 627 -25 618 -18 z m 656 -69 l 656 4 l 640 4 l 640 -69 z m 693 -18 b 666 -44 674 -18 666 -33 b 714 -67 665 -69 695 -75 l 712 -56 b 681 -49 703 -59 683 -60 l 716 -49 b 693 -18 719 -36 713 -18 z m 681 -38 b 702 -38 683 -25 702 -25 z m 744 -6 l 728 -10 l 728 -19 l 722 -19 l 722 -31 l 728 -31 b 733 -65 729 -40 726 -60 b 756 -69 737 -71 750 -71 l 756 -56 b 744 -48 749 -58 743 -57 l 744 -31 l 756 -31 l 756 -19 l 744 -19 l 744 -6 z m 783 -6 l 768 -10 l 768 -19 l 761 -19 l 761 -31 l 768 -31 b 772 -65 768 -40 766 -60 b 795 -69 776 -71 790 -71 l 795 -56 b 783 -48 788 -58 783 -57 l 783 -31 l 795 -31 l 795 -19 l 783 -19 l 783 -6 z m 828 -18 b 801 -44 809 -18 801 -33 b 849 -67 800 -69 830 -75 l 847 -56 b 816 -49 838 -59 818 -60 l 851 -49 b 828 -18 853 -36 848 -18 z m 816 -38 b 837 -38 818 -25 837 -25 z m 876 -29 l 875 -29 l 875 -19 l 861 -19 b 861 -69 862 -28 861 -59 l 877 -69 b 878 -41 877 -67 877 -41 b 894 -33 878 -34 887 -31 l 894 -18 b 876 -29 887 -17 879 -20 z m 903 -51 b 903 -70 891 -50 891 -70 b 913 -60 909 -70 913 -66 b 903 -51 913 -55 909 -51 z m 951 -58 b 936 -44 943 -58 936 -53 b 960 -32 935 -31 951 -27 l 963 -20 b 963 -67 904 -4 906 -87 l 961 -56 b 951 -58 958 -57 955 -58 z m 997 -18 b 996 -70 958 -17 959 -71 b 997 -18 1032 -72 1035 -18 z m 996 -59 b 996 -29 981 -60 980 -29 b 996 -59 1012 -29 1010 -60 z m 1097 -18 b 1079 -27 1089 -18 1084 -21 l 1079 -27 b 1049 -26 1074 -14 1053 -17 l 1048 -26 l 1048 -19 l 1034 -19 b 1035 -69 1035 -29 1034 -58 l 1050 -69 l 1050 -41 b 1059 -31 1050 -36 1052 -31 b 1067 -42 1064 -31 1067 -35 l 1067 -69 l 1082 -69 b 1083 -36 1083 -66 1082 -38 b 1099 -43 1087 -27 1100 -30 l 1099 -69 l 1115 -69 l 1115 -40 b 1097 -18 1115 -25 1106 -18 z m 339 41 l 339 46 l 319 46 l 319 41 z m 383 56 b 391 54 387 56 390 55 l 393 60 b 393 23 352 74 352 7 l 392 28 b 369 41 383 23 368 28 b 383 56 369 49 374 56 z m 436 42 b 398 41 437 69 397 69 b 436 42 397 14 436 13 z m 417 26 b 417 57 402 25 400 57 b 417 26 434 56 432 25 z m 470 45 l 470 22 l 477 22 l 477 46 b 486 56 477 51 481 56 b 495 44 492 56 495 51 l 495 22 l 502 22 l 502 45 b 476 54 502 66 483 66 l 476 54 b 452 55 472 65 456 63 l 452 55 l 451 61 l 445 61 b 445 21 446 54 445 29 l 452 21 b 453 49 453 24 452 47 b 470 45 456 59 471 58 z m 521 5 l 521 27 l 521 27 b 551 42 531 14 552 22 b 534 62 551 54 544 62 b 520 54 528 62 523 59 l 520 54 l 520 61 l 513 61 b 514 5 514 53 513 14 z m 521 44 b 532 56 521 51 526 56 b 532 26 548 57 547 25 b 521 35 527 26 522 30 b 521 44 520 36 521 42 z m 567 21 l 567 79 l 560 79 l 560 21 z m 576 32 b 600 26 576 19 594 17 l 601 26 l 601 22 l 608 22 b 607 46 607 27 607 40 b 579 58 608 61 592 66 l 581 54 b 600 47 589 59 601 57 b 576 32 585 47 576 41 z m 600 42 b 590 26 601 34 600 26 b 583 33 586 26 583 28 b 600 42 583 40 592 42 z m 627 70 l 620 68 l 620 61 l 614 61 l 614 56 l 620 56 b 623 24 621 49 618 28 b 637 22 625 20 633 20 l 637 27 b 627 34 632 25 626 27 l 627 56 l 637 56 l 637 61 l 627 61 z m 673 28 b 649 40 665 24 649 25 l 677 40 b 661 62 678 49 675 62 b 642 41 649 62 642 53 b 675 23 641 22 661 17 z m 660 57 b 670 45 668 57 670 50 l 649 45 b 660 57 650 50 653 57 z m 702 29 l 700 23 b 726 32 709 18 727 21 b 716 44 726 38 723 42 b 715 56 706 47 706 56 b 723 54 719 56 722 55 l 725 59 b 702 50 717 65 701 61 b 712 39 702 46 705 42 b 712 26 722 37 722 26 b 702 29 708 26 704 27 z m 768 43 b 751 62 768 51 764 62 b 733 41 740 62 733 52 b 765 23 732 22 752 17 l 764 28 b 739 40 755 24 739 25 l 767 40 b 768 43 767 41 768 42 z m 740 45 b 761 45 741 60 761 61 z m 785 70 l 778 68 l 778 61 l 772 61 l 772 56 l 778 56 b 781 24 779 49 776 28 b 795 22 783 20 792 20 l 795 27 b 785 34 790 25 784 27 l 785 56 l 795 56 l 795 61 l 785 61 z m 838 62 b 837 21 812 63 811 20 b 838 62 861 19 865 62 z m 837 26 b 837 57 822 25 820 57 b 837 26 854 56 852 25 z m 899 21 l 899 45 b 872 54 899 66 879 65 l 872 54 l 872 61 l 865 61 b 866 21 866 54 865 29 l 873 21 b 873 49 873 24 872 47 b 892 44 877 60 893 57 l 892 21 z m 945 41 l 945 46 l 925 46 l 925 41 z m 822 478 b 826 503 825 486 828 495 b 816 515 825 509 821 518 b 802 452 804 500 804 471 b 822 478 811 459 818 467 z m 615 572 b 585 572 607 572 594 571 b 583 436 589 527 583 481 b 589 383 582 419 581 394 b 623 405 601 367 619 396 b 639 459 632 422 636 441 b 646 527 644 481 645 504 b 646 572 646 530 648 572 b 615 572 636 572 625 572 z m 482 478 b 486 503 485 486 488 495 b 476 515 485 509 481 518 b 462 452 464 500 464 471 b 482 478 471 459 478 467 z m 1194 634 b 632 1197 1194 945 943 1197 b 226 245 137 1199 -115 595 l 129 245 l 129 106 l 1136 106 l 1136 245 l 1038 245 b 1194 634 1135 346 1194 483 z m 1076 207 b 1075 136 1125 207 1123 134 b 1076 207 1026 136 1028 208 z m 697 878 b 752 866 704 918 759 909 b 752 865 752 866 752 865 b 702 844 753 835 722 819 b 697 878 696 855 696 867 z m 685 745 b 693 806 687 775 685 777 b 746 799 701 836 747 829 b 737 702 742 767 737 735 b 741 675 736 694 735 682 b 760 684 747 668 757 679 b 774 719 767 694 771 707 b 788 822 786 752 787 787 b 812 846 788 835 798 846 b 836 822 825 846 835 835 b 838 746 838 797 838 771 b 912 847 849 781 863 853 b 937 766 944 835 937 794 b 933 705 936 746 933 726 b 945 676 933 695 933 680 b 984 693 959 672 975 684 b 1017 849 1020 735 1033 797 b 934 893 1008 873 962 923 b 901 874 918 876 912 847 b 905 911 897 882 896 895 b 1032 894 934 959 1005 930 b 953 636 1093 811 1056 665 b 887 799 856 613 880 741 b 884 808 888 801 889 814 b 861 750 872 792 867 769 b 844 683 854 728 849 705 b 817 640 840 666 838 643 b 787 667 800 638 788 652 b 787 685 787 673 787 680 b 720 641 776 656 756 626 b 685 745 680 657 683 709 z m 495 1044 b 648 983 551 1075 621 1035 b 671 742 685 911 676 820 b 591 637 669 696 653 623 b 554 683 570 644 559 663 b 472 658 543 637 504 616 b 453 735 457 680 455 710 b 452 822 451 764 451 793 b 480 850 452 837 464 849 b 507 822 494 850 507 836 b 506 752 507 798 507 777 b 523 682 508 733 501 681 b 540 713 533 684 538 704 b 554 800 545 731 546 779 b 595 797 562 818 596 816 b 597 714 595 773 597 730 b 637 699 597 675 628 655 b 589 999 647 788 664 934 b 487 971 552 1031 497 1016 b 460 994 484 960 458 967 b 495 1044 463 1021 480 1036 z m 219 883 b 442 946 261 946 373 944 b 567 916 480 947 538 947 b 572 901 571 912 573 907 b 532 889 570 884 544 889 b 422 893 496 891 459 894 b 416 751 419 845 416 798 b 431 569 413 689 415 628 b 407 559 434 555 415 558 b 359 734 344 578 361 683 b 365 890 360 786 362 838 b 362 890 364 890 363 890 b 248 865 345 889 240 890 b 293 861 255 855 283 860 b 293 832 312 862 311 833 b 234 838 274 830 251 827 b 219 883 218 847 212 866 z m 187 192 l 187 137 l 171 137 l 171 192 l 151 192 l 151 206 l 208 206 l 208 192 z m 278 137 l 262 137 l 262 166 l 233 166 l 233 137 l 217 137 l 217 206 l 233 206 l 233 180 l 262 180 l 262 206 l 278 206 z m 309 137 l 292 137 l 292 206 l 309 206 z m 342 136 b 320 141 333 136 324 138 l 324 154 b 354 156 329 150 354 144 b 342 166 354 160 351 163 b 321 186 330 169 321 175 b 368 203 320 207 353 211 l 364 190 b 348 194 361 191 356 194 b 351 178 334 193 333 182 b 342 136 381 170 376 135 z m 450 192 l 420 192 l 420 177 l 448 177 l 448 164 l 420 164 l 420 137 l 404 137 l 404 206 l 450 206 z m 495 136 b 496 207 446 136 448 208 b 495 136 545 207 543 135 z m 605 137 l 587 137 b 558 189 578 152 564 173 l 557 189 b 558 137 558 174 558 153 l 543 137 l 543 206 l 563 206 b 590 157 571 192 585 172 l 591 157 b 590 206 589 172 590 190 l 605 206 z m 671 192 l 650 192 l 650 137 l 634 137 l 634 192 l 613 192 l 613 206 l 671 206 z m 717 137 l 701 137 l 701 206 l 717 206 z m 750 136 b 729 141 742 136 733 138 l 733 154 b 763 156 738 150 763 144 b 751 166 763 160 760 163 b 730 186 739 169 730 175 b 777 203 729 207 761 211 l 773 190 b 757 194 770 191 764 194 b 760 178 742 193 742 182 b 750 136 790 170 785 135 z m 868 146 b 813 138 858 136 827 135 l 813 205 b 867 198 828 207 857 208 b 868 146 884 189 882 156 z m 890 137 l 890 206 l 937 206 l 937 192 l 907 192 l 907 179 l 935 179 l 935 166 l 907 166 l 907 150 l 938 150 l 938 137 z m 1013 137 b 1012 194 1013 155 1012 175 l 1012 194 b 994 138 1007 178 999 155 l 981 138 l 973 166 b 966 194 970 174 968 185 l 966 194 b 963 137 965 177 964 155 l 948 137 l 952 206 l 975 206 l 982 183 b 988 159 984 176 987 167 l 989 159 b 1004 206 992 173 999 192 l 1026 206 l 1029 137 l 1013 137 z m 1014 275 b 852 285 961 310 893 289 b 290 256 665 269 478 239 b 293 292 267 258 269 295 b 852 310 479 266 666 290 b 1031 284 880 313 1034 347 b 1014 275 1030 271 1023 269 z m 891 561 b 697 570 826 561 757 569 b 693 436 699 526 693 480 b 699 383 692 419 691 394 b 734 405 711 367 729 396 b 798 539 758 448 751 512 b 848 520 817 548 840 540 b 802 432 862 486 831 448 b 801 415 800 431 801 420 b 818 378 801 402 804 383 b 875 461 849 370 873 432 b 868 519 875 481 873 500 b 868 538 866 525 862 533 b 923 519 885 551 915 536 b 930 491 927 510 929 501 b 960 536 937 508 944 527 b 1012 525 977 545 1000 539 b 974 425 1043 494 1034 389 b 965 446 970 429 960 442 b 984 464 972 451 980 456 b 983 493 988 473 987 484 b 949 484 972 526 954 506 b 924 361 934 443 928 403 b 913 339 924 354 921 341 b 886 358 903 337 891 350 b 874 396 878 369 875 383 b 805 342 861 370 838 341 b 753 399 776 344 756 371 b 646 407 731 323 653 327 b 620 359 640 391 632 372 b 537 401 584 324 539 356 b 466 342 524 373 500 341 b 419 377 445 344 426 358 b 411 369 417 374 414 371 b 277 380 366 329 300 326 b 276 582 254 443 275 517 b 266 650 277 605 273 628 b 269 662 265 654 265 659 b 323 643 286 675 316 660 b 329 553 336 617 330 581 b 322 418 327 508 322 463 b 336 378 322 405 320 383 b 386 394 353 373 374 382 b 429 508 415 426 410 472 b 508 520 443 542 490 560 b 462 432 522 486 492 448 b 461 415 460 431 461 420 b 478 378 461 402 464 383 b 518 407 496 372 510 394 b 533 479 530 429 532 455 b 536 574 533 486 536 574 b 472 573 515 574 493 574 b 472 593 460 573 460 592 b 535 596 493 594 514 595 b 534 611 534 601 534 606 b 577 617 531 637 570 640 b 582 598 579 611 580 604 b 645 598 601 599 625 598 b 644 611 645 602 644 607 b 687 617 641 637 681 640 b 692 599 689 611 691 605 b 873 602 736 600 850 603 b 1020 632 934 601 977 612 b 1035 628 1027 636 1036 640 b 891 561 1024 557 937 559 z m 1075 149 b 1075 194 1101 147 1101 195 b 1075 149 1050 195 1050 148 z m 495 194 b 495 149 470 195 470 148 b 495 194 521 147 521 195 z m 838 194 b 829 193 833 194 831 194 l 829 149 b 863 173 846 147 863 154 b 838 194 863 187 853 194 z "},"&":{"ha":1143,"x_min":0,"x_max":0,"o":"m 147 12 b 144 -5 146 7 144 1 l 143 -5 b 134 32 141 5 137 21 l 121 32 b 112 -5 119 21 114 6 l 112 -5 b 104 32 110 6 106 21 l 88 32 l 103 -18 l 119 -18 b 127 15 121 -8 126 4 l 127 15 b 136 -18 129 4 133 -8 l 151 -18 l 167 32 l 151 32 z m 230 12 b 227 -5 229 7 228 1 l 227 -5 b 218 32 225 5 220 21 l 205 32 b 195 -5 202 21 197 6 l 195 -5 b 188 32 193 6 190 21 l 171 32 l 186 -18 l 202 -18 b 211 15 205 -8 209 4 l 211 15 b 219 -18 212 4 216 -8 l 235 -18 l 251 32 l 235 32 z m 314 12 b 311 -5 312 7 311 1 l 310 -5 b 301 32 308 5 304 21 l 288 32 b 279 -5 286 21 281 6 l 279 -5 b 271 32 277 6 273 21 l 255 32 l 270 -18 l 286 -18 b 294 15 288 -8 293 4 l 294 15 b 303 -18 296 4 300 -8 l 318 -18 l 334 32 l 318 32 z m 345 0 b 345 -19 332 0 332 -20 b 354 -10 351 -19 354 -15 b 345 0 354 -4 351 0 z m 382 45 l 366 41 l 366 32 l 359 32 l 359 20 l 366 20 b 370 -15 367 11 364 -9 b 393 -18 374 -20 388 -20 l 393 -6 b 382 3 387 -7 381 -6 l 382 19 l 393 19 l 393 32 l 382 32 l 382 45 z m 457 12 b 454 -5 456 7 455 1 l 454 -5 b 445 32 452 5 447 21 l 432 32 b 423 -5 429 21 425 6 l 422 -5 b 415 32 421 6 417 21 l 399 32 l 414 -18 l 429 -18 b 438 15 432 -8 436 4 l 438 15 b 446 -18 440 4 444 -8 l 462 -18 l 478 32 l 462 32 z m 494 53 b 494 38 482 54 482 38 b 502 46 499 38 502 41 b 494 53 502 50 499 53 z m 502 -18 l 502 32 l 486 32 l 486 -18 z m 546 33 b 530 24 537 33 532 27 l 529 24 l 529 32 l 515 32 b 515 -18 515 22 515 -8 l 531 -18 b 532 14 531 -16 531 13 b 549 8 536 24 550 22 l 549 -18 l 565 -18 l 565 11 b 546 33 565 26 557 33 z m 595 -18 l 595 55 l 579 55 l 579 -18 z m 632 33 b 605 6 613 33 605 17 b 653 -16 604 -18 634 -24 l 651 -5 b 620 2 642 -8 622 -10 l 655 2 b 632 33 658 15 652 33 z m 620 13 b 641 13 622 25 641 25 z m 683 45 l 667 41 l 667 32 l 661 32 l 661 20 l 667 20 b 672 -15 668 11 665 -9 b 695 -18 676 -20 689 -20 l 694 -6 b 683 3 688 -7 682 -6 l 683 19 l 695 19 l 695 32 l 683 32 l 683 45 z m 722 45 l 706 41 l 706 32 l 700 32 l 700 20 l 706 20 b 711 -15 707 11 704 -9 b 734 -18 715 -20 728 -20 l 734 -6 b 722 3 727 -7 721 -6 l 722 19 l 734 19 l 734 32 l 722 32 l 722 45 z m 767 33 b 740 6 747 33 740 17 b 788 -16 738 -18 769 -24 l 785 -5 b 755 2 777 -8 757 -10 l 790 2 b 767 33 792 15 787 33 z m 755 13 b 775 13 756 25 776 25 z m 815 22 l 814 22 l 814 32 l 800 32 b 800 -18 801 23 800 -8 l 816 -18 b 816 10 816 -16 816 9 b 832 18 817 16 826 20 l 832 33 b 815 22 826 34 818 31 z m 842 0 b 842 -19 830 0 830 -20 b 852 -10 848 -19 852 -15 b 842 0 852 -4 848 0 z m 890 -7 b 875 7 882 -7 875 -2 b 899 19 874 20 890 23 l 902 31 b 902 -17 843 47 845 -36 l 900 -5 b 890 -7 897 -6 894 -7 z m 936 33 b 935 -19 897 34 898 -20 b 936 33 970 -21 974 33 z m 935 -8 b 935 21 920 -9 919 22 b 935 -8 951 22 949 -9 z m 1035 33 b 1018 24 1028 33 1023 30 l 1018 24 b 988 25 1013 37 992 34 l 987 25 l 987 32 l 973 32 b 973 -18 974 22 973 -8 l 989 -18 l 989 10 b 998 20 989 15 991 20 b 1006 9 1003 20 1006 16 l 1006 -18 l 1021 -18 b 1022 14 1021 -15 1021 13 b 1038 8 1026 24 1039 21 l 1038 -18 l 1054 -18 l 1054 10 b 1035 33 1053 26 1045 33 z m 278 92 l 278 97 l 258 97 l 258 92 z m 322 107 b 330 105 326 107 328 106 l 332 111 b 332 74 290 125 290 58 l 330 79 b 308 92 321 74 307 79 b 322 107 308 100 313 107 z m 375 92 b 337 92 376 119 336 119 b 375 92 336 65 375 64 z m 356 77 b 356 107 341 76 339 107 b 356 77 373 107 371 76 z m 409 96 l 409 72 l 416 72 l 416 97 b 425 107 416 102 420 107 b 434 95 431 107 434 102 l 434 72 l 441 72 l 441 96 b 415 105 441 117 422 117 l 414 105 b 391 105 411 116 395 114 l 391 105 l 390 112 l 384 112 b 384 72 385 105 384 80 l 391 72 b 392 100 392 75 391 98 b 409 96 395 110 410 109 z m 460 56 l 460 78 l 460 78 b 490 93 470 64 491 73 b 473 113 490 105 483 113 b 459 105 467 113 462 110 l 459 105 l 459 112 l 452 112 b 453 56 453 104 452 65 z m 460 95 b 471 107 460 101 465 107 b 471 77 487 107 486 76 b 460 85 466 77 461 80 b 460 95 459 87 460 93 z m 506 72 l 506 130 l 499 130 l 499 72 z m 515 83 b 539 77 515 70 533 68 l 539 77 l 540 72 l 547 72 b 546 97 546 78 546 91 b 518 109 547 112 530 117 l 520 104 b 539 97 528 110 540 108 b 515 83 524 97 515 92 z m 539 92 b 529 77 540 85 539 77 b 522 84 525 77 522 79 b 539 92 522 91 531 93 z m 566 121 l 559 119 l 559 112 l 553 112 l 553 106 l 559 106 b 562 74 560 100 557 79 b 576 72 564 71 572 71 l 575 78 b 566 85 571 76 565 78 l 566 106 l 576 106 l 576 112 l 566 112 z m 612 79 b 588 91 604 75 588 76 l 616 91 b 599 113 617 99 614 112 b 581 91 588 113 581 103 b 613 74 580 73 600 68 z m 599 108 b 609 96 607 108 609 100 l 588 96 b 599 108 588 101 592 108 z m 641 80 l 639 74 b 665 83 648 69 666 72 b 655 95 665 89 662 93 b 654 107 645 97 644 107 b 662 105 658 107 661 106 l 664 110 b 640 101 656 116 640 112 b 651 90 640 96 644 92 b 651 77 661 87 661 77 b 641 80 647 77 643 78 z m 706 94 b 690 113 706 101 703 113 b 672 91 679 113 672 103 b 704 74 671 73 691 68 l 703 79 b 678 91 694 75 678 76 l 706 91 b 706 94 706 91 706 93 z m 678 96 b 699 96 680 111 700 112 z m 724 121 l 717 119 l 717 112 l 711 112 l 711 106 l 717 106 b 720 74 718 100 715 79 b 734 72 722 71 730 71 l 734 78 b 724 85 729 76 723 78 l 724 106 l 734 106 l 734 112 l 724 112 l 724 121 z m 776 113 b 776 71 751 114 750 71 b 776 113 800 70 803 113 z m 776 77 b 776 107 761 76 759 107 b 776 77 793 107 791 76 z m 838 72 l 838 96 b 811 105 838 117 817 116 l 811 105 l 811 112 l 804 112 b 805 72 805 105 804 80 l 812 72 b 812 99 812 74 811 98 b 831 95 816 111 832 108 l 831 72 z m 884 92 l 884 97 l 864 97 l 864 92 z m 761 528 b 765 554 764 536 767 546 b 755 565 764 559 759 569 b 741 503 743 551 743 522 b 761 528 750 510 757 518 z m 554 623 b 524 623 546 623 533 622 b 521 486 528 578 522 532 b 528 434 521 470 520 445 b 562 456 540 418 558 447 b 578 510 571 473 575 492 b 584 578 583 532 583 555 b 585 623 585 581 587 622 b 554 623 575 623 564 622 z m 421 528 b 425 554 424 536 427 546 b 415 565 424 559 420 569 b 401 503 403 551 403 522 b 421 528 410 510 417 518 z m 1133 685 b 571 1248 1133 996 881 1248 b 165 296 76 1249 -176 646 l 68 296 l 68 156 l 1075 156 l 1075 296 l 977 296 b 1133 685 1074 397 1133 534 z m 1015 258 b 1013 187 1064 258 1062 185 b 1015 258 965 187 967 259 z m 636 929 b 691 917 643 969 698 959 b 691 916 691 917 691 916 b 641 895 692 886 661 870 b 636 929 635 905 634 917 z m 624 796 b 632 857 626 826 624 828 b 685 850 639 887 686 880 b 675 753 681 818 676 785 b 680 726 675 745 674 733 b 699 735 685 718 696 730 b 713 769 706 745 709 758 b 727 873 725 803 726 838 b 751 897 727 886 737 897 b 775 873 764 897 774 886 b 777 796 776 847 777 822 b 850 898 788 832 801 903 b 876 817 883 886 876 844 b 872 756 875 797 872 777 b 884 727 872 746 872 731 b 922 744 897 723 914 735 b 956 900 959 786 972 848 b 872 943 947 924 901 973 b 840 924 857 927 850 898 b 843 962 836 933 835 946 b 970 944 872 1010 944 981 b 892 687 1032 862 994 716 b 826 850 795 664 819 792 b 823 859 826 851 828 865 b 800 801 811 843 806 820 b 783 733 793 779 788 756 b 756 691 779 717 776 694 b 726 718 739 689 727 703 b 726 736 725 724 726 731 b 659 691 715 707 694 677 b 624 796 618 708 622 760 z m 434 1095 b 587 1034 490 1126 560 1086 b 610 793 624 962 615 871 b 530 688 608 747 592 673 b 493 734 509 695 498 714 b 411 709 482 688 442 667 b 392 786 396 731 394 761 b 391 873 390 815 390 844 b 418 900 391 888 403 900 b 446 873 433 901 446 887 b 445 803 446 848 445 828 b 462 733 447 784 440 732 b 479 764 472 735 477 754 b 493 851 484 781 485 830 b 534 847 501 869 535 867 b 536 764 534 823 536 781 b 576 750 536 726 567 706 b 528 1050 586 839 603 985 b 426 1022 491 1082 436 1067 b 399 1044 423 1010 397 1017 b 434 1095 402 1071 419 1087 z m 158 933 b 381 997 200 997 312 995 b 506 967 419 997 477 998 b 511 952 509 963 512 958 b 471 940 509 935 483 939 b 361 944 435 942 398 945 b 355 801 358 896 355 849 b 370 620 352 740 354 679 b 346 610 373 606 354 608 b 298 785 283 629 300 734 b 304 941 298 837 301 889 b 301 941 303 941 302 941 b 187 915 284 939 179 940 b 232 912 194 906 222 911 b 232 882 251 913 250 884 b 173 889 212 881 190 878 b 158 933 157 898 151 917 z m 147 243 l 126 243 l 126 188 l 110 188 l 110 243 l 90 243 l 90 256 l 147 256 z m 217 188 l 201 188 l 201 217 l 172 217 l 172 188 l 156 188 l 156 256 l 172 256 l 172 230 l 201 230 l 201 256 l 217 256 z m 247 188 l 231 188 l 231 256 l 247 256 z m 280 187 b 259 192 272 187 263 189 l 263 205 b 293 207 268 201 293 195 b 281 216 293 211 290 214 b 260 237 269 220 260 226 b 307 254 259 258 292 262 l 303 241 b 287 245 300 242 295 245 b 290 229 273 244 272 233 b 280 187 320 221 315 186 z m 389 243 l 359 243 l 359 228 l 387 228 l 387 215 l 359 215 l 359 188 l 343 188 l 343 256 l 389 256 z m 434 187 b 435 258 385 186 387 259 b 434 187 484 258 482 185 z m 543 188 l 526 188 b 496 240 517 203 503 224 l 496 240 b 497 188 497 224 497 204 l 482 188 l 482 256 l 502 256 b 529 207 510 243 524 223 l 530 207 b 528 256 528 223 529 241 l 543 256 z m 610 243 l 589 243 l 589 188 l 573 188 l 573 243 l 552 243 l 552 256 l 610 256 z m 656 188 l 640 188 l 640 256 l 656 256 z m 689 187 b 668 192 681 187 672 189 l 671 205 b 702 207 677 201 701 195 b 690 216 702 211 699 214 b 669 237 677 220 669 226 b 716 254 668 258 700 262 l 712 241 b 696 245 709 242 703 245 b 699 229 681 244 681 233 b 689 187 729 221 724 186 z m 807 197 b 752 188 797 187 766 186 l 752 255 b 806 249 767 258 796 258 b 807 197 823 240 821 206 z m 829 188 l 829 256 l 876 256 l 876 243 l 846 243 l 846 230 l 874 230 l 874 217 l 846 217 l 846 201 l 877 201 l 877 188 z m 952 188 b 951 245 952 206 951 226 l 950 245 b 932 189 946 229 938 206 l 920 189 l 912 216 b 905 245 909 225 907 235 l 905 245 b 902 188 904 227 903 205 l 887 188 l 891 256 l 914 256 l 921 234 b 927 210 923 227 925 218 l 928 210 b 943 256 931 224 937 242 l 965 256 l 968 188 l 952 188 z m 953 326 b 791 336 900 361 832 339 b 229 306 604 320 417 290 b 232 343 206 309 207 346 b 791 361 418 317 605 340 b 969 335 818 364 973 398 b 953 326 969 322 962 320 z m 830 612 b 635 621 765 612 696 619 b 632 486 638 577 632 531 b 638 434 631 470 630 445 b 673 456 650 418 668 447 b 737 590 697 498 690 563 b 787 571 756 599 779 591 b 741 483 801 536 770 499 b 740 466 739 482 740 471 b 757 429 740 453 743 433 b 814 512 788 421 812 483 b 807 570 814 532 812 551 b 807 589 805 576 801 584 b 862 570 824 602 854 586 b 869 542 866 561 868 552 b 899 587 876 559 883 577 b 951 576 916 596 939 590 b 913 476 982 545 973 440 b 904 497 909 479 899 493 b 923 515 911 502 919 507 b 922 544 927 524 926 535 b 888 534 911 577 893 557 b 863 411 873 494 867 454 b 852 390 863 405 860 392 b 825 409 842 388 830 401 b 813 447 817 420 814 433 b 744 393 800 421 777 392 b 692 450 715 394 695 422 b 585 458 670 374 592 377 b 559 410 579 441 571 423 b 476 452 523 374 478 407 b 405 393 463 424 439 392 b 358 428 384 394 365 408 b 350 420 356 425 353 422 b 216 431 305 380 239 377 b 215 633 193 494 214 568 b 205 700 216 655 212 679 b 208 713 204 705 203 710 b 262 694 225 726 254 710 b 268 604 275 668 269 632 b 261 469 266 559 261 514 b 275 429 261 456 259 433 b 325 445 292 424 313 433 b 368 559 354 476 349 523 b 447 571 382 592 429 611 b 401 483 461 537 430 499 b 400 466 399 482 400 471 b 417 429 400 453 403 433 b 457 458 435 423 449 445 b 472 530 469 479 471 506 b 474 625 472 537 475 625 b 411 624 453 625 432 625 b 411 644 399 624 399 643 b 474 647 432 645 453 646 b 472 662 473 652 473 657 b 516 668 470 687 509 691 b 520 649 518 661 519 655 b 584 649 540 650 564 649 b 583 662 584 653 583 657 b 626 668 580 688 620 691 b 631 650 628 662 629 656 b 812 653 675 651 789 653 b 959 683 873 652 916 663 b 973 679 966 687 975 691 b 830 612 963 607 876 610 z m 1014 199 b 1014 245 1040 198 1040 246 b 1014 199 989 246 989 199 z m 434 245 b 434 199 409 246 409 199 b 434 245 460 198 460 246 z m 777 245 b 768 244 772 245 770 244 l 768 200 b 801 223 785 198 802 205 b 777 245 801 238 792 245 z "},"'":{"ha":217,"x_min":0,"x_max":0,"o":"m 194 960 b 11 959 133 960 72 959 b 75 655 32 858 54 757 l 147 655 b 183 755 160 683 173 716 b 194 960 204 839 201 911 z "},"(":{"ha":390,"x_min":0,"x_max":0,"o":"m 298 646 b 373 841 311 695 332 764 b 380 981 375 888 378 934 b 192 996 317 986 255 991 b 128 894 175 973 152 938 b 25 355 1 655 19 415 b 178 -70 47 149 131 1 b 316 -93 224 -78 270 -85 b 376 47 336 -46 356 0 b 303 201 355 80 325 132 b 298 646 238 396 280 571 z "}}}
